GeezHandwriting.ufo
<glyph name="parenright" format="2">
  <advance width="717"/>
  <unicode hex="0029"/>
  <outline>
    <contour>
      <point x="547" y="684" type="curve" smooth="yes"/>
      <point x="547" y="811"/>
      <point x="519.01" y="938.003"/>
      <point x="459" y="1065" type="curve" smooth="yes"/>
      <point x="433.01" y="1120"/>
      <point x="396.61" y="1182.67"/>
      <point x="344" y="1245" type="curve" smooth="yes"/>
      <point x="252" y="1354" type="line" smooth="yes"/>
      <point x="242.833" y="1364.86"/>
      <point x="231" y="1368"/>
      <point x="217" y="1368" type="curve" smooth="yes"/>
      <point x="182" y="1368"/>
      <point x="166" y="1352"/>
      <point x="166" y="1317" type="curve" smooth="yes"/>
      <point x="166" y="1303"/>
      <point x="170" y="1290"/>
      <point x="180" y="1280" type="curve"/>
      <point x="276" y="1163"/>
      <point x="338.139" y="1079.07"/>
      <point x="365" y="1024" type="curve" smooth="yes"/>
      <point x="418.137" y="915.07"/>
      <point x="444" y="803"/>
      <point x="444" y="684" type="curve" smooth="yes"/>
      <point x="444" y="565"/>
      <point x="418.709" y="452.144"/>
      <point x="365" y="344" type="curve" smooth="yes"/>
      <point x="344.708" y="303.143"/>
      <point x="318.137" y="261.9"/>
      <point x="287" y="219" type="curve" smooth="yes"/>
      <point x="273.137" y="199.9"/>
      <point x="237.742" y="155.222"/>
      <point x="180" y="88" type="curve" smooth="yes"/>
      <point x="170.739" y="77.2188"/>
      <point x="166" y="66"/>
      <point x="166" y="51" type="curve" smooth="yes"/>
      <point x="166" y="16"/>
      <point x="182" y="0"/>
      <point x="217" y="0" type="curve" smooth="yes"/>
      <point x="231" y="0"/>
      <point x="242.833" y="3.1388"/>
      <point x="252" y="14" type="curve" smooth="yes"/>
      <point x="344" y="123" type="line" smooth="yes"/>
      <point x="396.61" y="185.332"/>
      <point x="433.01" y="247.997"/>
      <point x="459" y="303" type="curve" smooth="yes"/>
      <point x="519.009" y="429.997"/>
      <point x="547" y="557"/>
    </contour>
  </outline>
</glyph>
<glyph name="slash" format="2">
  <advance width="1024"/>
  <unicode hex="002F"/>
  <outline>
    <contour>
      <point x="846" y="1255" type="curve" smooth="yes"/>
      <point x="846" y="1274"/>
      <point x="835.828" y="1288.61"/>
      <point x="815" y="1298" type="curve" smooth="yes"/>
      <point x="784.822" y="1311.61"/>
      <point x="761.464" y="1302.79"/>
      <point x="748" y="1274" type="curve" smooth="yes"/>
      <point x="184" y="68" type="line" smooth="yes"/>
      <point x="179.828" y="59.0782"/>
      <point x="178" y="51"/>
      <point x="178" y="45" type="curve" smooth="yes"/>
      <point x="178" y="27"/>
      <point x="188.021" y="9.04975"/>
      <point x="209" y="0" type="curve" smooth="yes"/>
      <point x="239.021" y="-12.9502"/>
      <point x="262.536" y="-3.7895"/>
      <point x="276" y="25" type="curve" smooth="yes"/>
      <point x="840" y="1231" type="line" smooth="yes"/>
      <point x="843.789" y="1239.1"/>
      <point x="846" y="1247"/>
    </contour>
  </outline>
</glyph>
<glyph name="three" format="2">
  <advance width="1024"/>
  <unicode hex="0033"/>
  <outline>
    <contour>
      <point x="879" y="377" type="curve" smooth="yes"/>
      <point x="879" y="502"/>
      <point x="817" y="604"/>
      <point x="694" y="684" type="curve"/>
      <point x="754" y="698"/>
      <point x="798.813" y="740.093"/>
      <point x="834" y="811" type="curve" smooth="yes"/>
      <point x="864.813" y="873.092"/>
      <point x="879" y="936"/>
      <point x="879" y="1004" type="curve" smooth="yes"/>
      <point x="879" y="1102"/>
      <point x="839.963" y="1183.95"/>
      <point x="760" y="1247" type="curve" smooth="yes"/>
      <point x="683.963" y="1306.95"/>
      <point x="597.986" y="1334.37"/>
      <point x="498" y="1331" type="curve" smooth="yes"/>
      <point x="419.986" y="1328.37"/>
      <point x="343.988" y="1303.02"/>
      <point x="268" y="1247" type="curve" smooth="yes"/>
      <point x="187.988" y="1188.02"/>
      <point x="147" y="1120"/>
      <point x="147" y="1044" type="curve" smooth="yes"/>
      <point x="147" y="1008"/>
      <point x="166" y="989"/>
      <point x="201" y="989" type="curve" smooth="yes"/>
      <point x="219" y="989"/>
      <point x="236" y="997"/>
      <point x="246" y="1014" type="curve"/>
      <point x="256" y="1073"/>
      <point x="285" y="1122"/>
      <point x="334" y="1165" type="curve" smooth="yes"/>
      <point x="383" y="1208"/>
      <point x="438" y="1229"/>
      <point x="498" y="1229" type="curve" smooth="yes"/>
      <point x="567" y="1229"/>
      <point x="629.102" y="1208.14"/>
      <point x="684" y="1169" type="curve" smooth="yes"/>
      <point x="744.102" y="1126.14"/>
      <point x="774" y="1071"/>
      <point x="774" y="1004" type="curve" smooth="yes"/>
      <point x="774" y="837.995"/>
      <point x="680.007" y="754"/>
      <point x="494" y="754" type="curve" smooth="yes"/>
      <point x="463" y="754"/>
      <point x="441.939" y="752.232"/>
      <point x="434.001" y="750" type="curve" smooth="yes"/>
      <point x="409.934" y="743.231"/>
      <point x="397.001" y="725"/>
      <point x="397.001" y="696" type="curve" smooth="yes"/>
      <point x="397.001" y="668"/>
      <point x="408.083" y="649.219"/>
      <point x="430.001" y="641" type="curve" smooth="yes"/>
      <point x="440.085" y="637.218"/>
      <point x="463.001" y="635"/>
      <point x="494.001" y="635" type="curve" smooth="yes"/>
      <point x="565.001" y="635"/>
      <point x="628.03" y="610.035"/>
      <point x="686.001" y="559" type="curve" smooth="yes"/>
      <point x="745.032" y="507.033"/>
      <point x="774.001" y="449"/>
      <point x="774.001" y="379" type="curve" smooth="yes"/>
      <point x="774.001" y="303"/>
      <point x="747.258" y="237.736"/>
      <point x="692.001" y="184" type="curve" smooth="yes"/>
      <point x="638.258" y="131.736"/>
      <point x="573.001" y="104"/>
      <point x="498.001" y="104" type="curve" smooth="yes"/>
      <point x="438.001" y="104"/>
      <point x="382.427" y="124.492"/>
      <point x="334.001" y="166" type="curve" smooth="yes"/>
      <point x="284.424" y="208.494"/>
      <point x="256.001" y="258"/>
      <point x="246.001" y="317" type="curve"/>
      <point x="236.001" y="336"/>
      <point x="219.001" y="344"/>
      <point x="201.001" y="344" type="curve" smooth="yes"/>
      <point x="166.001" y="344"/>
      <point x="147.001" y="326"/>
      <point x="147.001" y="287" type="curve" smooth="yes"/>
      <point x="147.001" y="213"/>
      <point x="188.013" y="145.016"/>
      <point x="268.001" y="84" type="curve" smooth="yes"/>
      <point x="344.013" y="26.0165"/>
      <point x="422.001" y="-2"/>
      <point x="498.001" y="-2" type="curve" smooth="yes"/>
      <point x="604.001" y="-2"/>
      <point x="695.251" y="33.7445"/>
      <point x="768.001" y="106" type="curve" smooth="yes"/>
      <point x="842.253" y="179.747"/>
      <point x="879.001" y="270"/>
    </contour>
  </outline>
</glyph>
<glyph name="seven" format="2">
  <advance width="1024"/>
  <unicode hex="0037"/>
  <outline>
    <contour>
      <point x="885" y="1284" type="curve" smooth="yes"/>
      <point x="885" y="1313"/>
      <point x="868" y="1327"/>
      <point x="834" y="1327" type="curve" smooth="yes"/>
      <point x="190" y="1327" type="line" smooth="yes"/>
      <point x="160" y="1327"/>
      <point x="141" y="1311"/>
      <point x="139" y="1276" type="curve"/>
      <point x="141" y="1241"/>
      <point x="160" y="1225"/>
      <point x="190" y="1225" type="curve" smooth="yes"/>
      <point x="756" y="1225" type="line"/>
      <point x="213" y="68" type="line"/>
      <point x="211" y="59"/>
      <point x="209" y="51"/>
      <point x="209" y="45" type="curve" smooth="yes"/>
      <point x="209" y="27"/>
      <point x="219" y="10"/>
      <point x="238" y="0" type="curve"/>
      <point x="270" y="-12"/>
      <point x="293.559" y="-3.79925"/>
      <point x="307" y="25" type="curve" smooth="yes"/>
      <point x="868" y="1227" type="line" smooth="yes"/>
      <point x="878.221" y="1248.9"/>
      <point x="885" y="1270"/>
    </contour>
  </outline>
</glyph>
<glyph name="D" format="2">
  <advance width="1229"/>
  <unicode hex="0044"/>
  <outline>
    <contour>
      <point x="1075" y="684" type="curve" smooth="yes"/>
      <point x="1075" y="553"/>
      <point x="1024.31" y="423.76"/>
      <point x="924" y="295" type="curve" smooth="yes"/>
      <point x="823.309" y="165.754"/>
      <point x="715.002" y="102"/>
      <point x="602" y="102" type="curve" smooth="yes"/>
      <point x="205" y="102" type="line"/>
      <point x="205" y="1229" type="line"/>
      <point x="602" y="1229" type="line" smooth="yes"/>
      <point x="719.002" y="1229"/>
      <point x="826.275" y="1173.25"/>
      <point x="926" y="1063" type="curve" smooth="yes"/>
      <point x="1025.27" y="953.249"/>
      <point x="1075" y="827"/>
    </contour>
    <contour>
      <point x="1178" y="684" type="curve" smooth="yes"/>
      <point x="1178" y="856"/>
      <point x="1116.6" y="1010.62"/>
      <point x="995" y="1143" type="curve" smooth="yes"/>
      <point x="879.596" y="1268.63"/>
      <point x="756.007" y="1331"/>
      <point x="625" y="1331" type="curve" smooth="yes"/>
      <point x="154" y="1331" type="line" smooth="yes"/>
      <point x="118.998" y="1331"/>
      <point x="102" y="1315"/>
      <point x="102" y="1280" type="curve" smooth="yes"/>
      <point x="102" y="51" type="line" smooth="yes"/>
      <point x="102" y="16"/>
      <point x="118.998" y="0"/>
      <point x="154" y="0" type="curve" smooth="yes"/>
      <point x="625" y="0" type="line" smooth="yes"/>
      <point x="752.006" y="0"/>
      <point x="874" y="72"/>
      <point x="995" y="217" type="curve" smooth="yes"/>
      <point x="1116" y="362"/>
      <point x="1178" y="518"/>
    </contour>
  </outline>
</glyph>
<glyph name="E" format="2">
  <advance width="1126"/>
  <unicode hex="0045"/>
  <outline>
    <contour>
      <point x="981" y="51" type="curve"/>
      <point x="979" y="86"/>
      <point x="961" y="102"/>
      <point x="930" y="102" type="curve" smooth="yes"/>
      <point x="205" y="102" type="line"/>
      <point x="205" y="633" type="line"/>
      <point x="639" y="633" type="line" smooth="yes"/>
      <point x="670" y="633"/>
      <point x="688" y="649"/>
      <point x="690" y="684" type="curve"/>
      <point x="688" y="719"/>
      <point x="670" y="735"/>
      <point x="639" y="735" type="curve" smooth="yes"/>
      <point x="205" y="735" type="line"/>
      <point x="205" y="1229" type="line"/>
      <point x="930" y="1229" type="line" smooth="yes"/>
      <point x="961" y="1229"/>
      <point x="979" y="1245"/>
      <point x="981" y="1280" type="curve"/>
      <point x="979" y="1315"/>
      <point x="961" y="1331"/>
      <point x="930" y="1331" type="curve" smooth="yes"/>
      <point x="154" y="1331" type="line" smooth="yes"/>
      <point x="119" y="1331"/>
      <point x="102" y="1315"/>
      <point x="102" y="1280" type="curve" smooth="yes"/>
      <point x="102" y="51" type="line" smooth="yes"/>
      <point x="102" y="16"/>
      <point x="119" y="0"/>
      <point x="154" y="0" type="curve" smooth="yes"/>
      <point x="930" y="0" type="line" smooth="yes"/>
      <point x="961" y="0"/>
      <point x="979" y="16"/>
    </contour>
  </outline>
</glyph>
<glyph name="H" format="2">
  <advance width="1229"/>
  <unicode hex="0048"/>
  <outline>
    <contour>
      <point x="1157" y="1280" type="line" smooth="yes"/>
      <point x="1157" y="1311"/>
      <point x="1141" y="1329"/>
      <point x="1106" y="1331" type="curve"/>
      <point x="1071" y="1329"/>
      <point x="1055" y="1311"/>
      <point x="1055" y="1280" type="curve" smooth="yes"/>
      <point x="1055" y="731" type="line"/>
      <point x="205" y="731" type="line"/>
      <point x="205" y="1280" type="line" smooth="yes"/>
      <point x="205" y="1311"/>
      <point x="188" y="1329"/>
      <point x="154" y="1331" type="curve"/>
      <point x="119" y="1329"/>
      <point x="102" y="1311"/>
      <point x="102" y="1280" type="curve" smooth="yes"/>
      <point x="102" y="51" type="line" smooth="yes"/>
      <point x="102" y="20"/>
      <point x="119" y="2"/>
      <point x="154" y="0" type="curve"/>
      <point x="188" y="2"/>
      <point x="205" y="20"/>
      <point x="205" y="51" type="curve" smooth="yes"/>
      <point x="205" y="629" type="line"/>
      <point x="1055" y="629" type="line"/>
      <point x="1055" y="51" type="line" smooth="yes"/>
      <point x="1055" y="20"/>
      <point x="1071" y="2"/>
      <point x="1106" y="0" type="curve"/>
      <point x="1141" y="2"/>
      <point x="1157" y="20"/>
      <point x="1157" y="51" type="curve" smooth="yes"/>
    </contour>
  </outline>
</glyph>
<glyph name="J" format="2">
  <advance width="1434"/>
  <unicode hex="004A"/>
  <outline>
    <contour>
      <point x="1354" y="1278" type="curve"/>
      <point x="1352" y="1313"/>
      <point x="1333" y="1331"/>
      <point x="1303" y="1331" type="curve" smooth="yes"/>
      <point x="485" y="1331" type="line" smooth="yes"/>
      <point x="455" y="1331"/>
      <point x="436" y="1315"/>
      <point x="434" y="1280" type="curve"/>
      <point x="436" y="1245"/>
      <point x="454.998" y="1229"/>
      <point x="485" y="1229" type="curve" smooth="yes"/>
      <point x="860" y="1229" type="line"/>
      <point x="860" y="467" type="line" smooth="yes"/>
      <point x="860" y="359.998"/>
      <point x="825.002" y="272.002"/>
      <point x="758" y="205" type="curve" smooth="yes"/>
      <point x="690" y="137"/>
      <point x="602" y="104"/>
      <point x="496" y="104" type="curve" smooth="yes"/>
      <point x="424" y="104"/>
      <point x="358.232" y="133.23"/>
      <point x="299" y="193" type="curve" smooth="yes"/>
      <point x="248.232" y="244.229"/>
      <point x="208.008" y="310.003"/>
      <point x="180" y="389" type="curve" smooth="yes"/>
      <point x="169.008" y="420.003"/>
      <point x="145.016" y="430.958"/>
      <point x="115" y="420" type="curve" smooth="yes"/>
      <point x="82.014" y="407.958"/>
      <point x="72.8925" y="384.96"/>
      <point x="84" y="354" type="curve" smooth="yes"/>
      <point x="119.891" y="253.964"/>
      <point x="170.628" y="172.603"/>
      <point x="238" y="109" type="curve" smooth="yes"/>
      <point x="313.627" y="37.6038"/>
      <point x="399" y="2"/>
      <point x="496" y="2" type="curve" smooth="yes"/>
      <point x="635" y="2"/>
      <point x="748" y="47"/>
      <point x="834" y="135" type="curve" smooth="yes"/>
      <point x="920" y="223"/>
      <point x="963" y="337.994"/>
      <point x="963" y="479" type="curve" smooth="yes"/>
      <point x="963" y="1227" type="line"/>
      <point x="1303" y="1227" type="line" smooth="yes"/>
      <point x="1333" y="1227"/>
      <point x="1352" y="1243"/>
    </contour>
  </outline>
</glyph>
<glyph name="P" format="2">
  <advance width="1229"/>
  <unicode hex="0050"/>
  <outline>
    <contour>
      <point x="987" y="985" type="curve" smooth="yes"/>
      <point x="987" y="926"/>
      <point x="962.836" y="879.238"/>
      <point x="913" y="844" type="curve" smooth="yes"/>
      <point x="863.83" y="809.234"/>
      <point x="809.003" y="791"/>
      <point x="748" y="791" type="curve" smooth="yes"/>
      <point x="205" y="791" type="line"/>
      <point x="205" y="1229" type="line"/>
      <point x="758" y="1229" type="line" smooth="yes"/>
      <point x="897.002" y="1229"/>
      <point x="987" y="1126"/>
    </contour>
    <contour>
      <point x="1090" y="985" type="curve" smooth="yes"/>
      <point x="1090" y="1085"/>
      <point x="1058.98" y="1166.98"/>
      <point x="997" y="1233" type="curve" smooth="yes"/>
      <point x="935.982" y="1297.99"/>
      <point x="856" y="1331"/>
      <point x="758" y="1331" type="curve" smooth="yes"/>
      <point x="154" y="1331" type="line" smooth="yes"/>
      <point x="119" y="1331"/>
      <point x="102" y="1315"/>
      <point x="102" y="1280" type="curve" smooth="yes"/>
      <point x="102" y="51" type="line" smooth="yes"/>
      <point x="102" y="20"/>
      <point x="119" y="2"/>
      <point x="154" y="0" type="curve"/>
      <point x="188" y="2"/>
      <point x="205" y="20"/>
      <point x="205" y="51" type="curve" smooth="yes"/>
      <point x="205" y="688" type="line"/>
      <point x="748" y="688" type="line" smooth="yes"/>
      <point x="838.004" y="688"/>
      <point x="917.047" y="714.944"/>
      <point x="985" y="770" type="curve" smooth="yes"/>
      <point x="1054.05" y="825.943"/>
      <point x="1090" y="897"/>
    </contour>
  </outline>
</glyph>
<glyph name="Q" format="2">
  <advance width="1536"/>
  <unicode hex="0051"/>
  <outline>
    <contour>
      <point x="1348" y="684" type="curve" smooth="yes"/>
      <point x="1348" y="520"/>
      <point x="1290" y="383"/>
      <point x="1176" y="270" type="curve"/>
      <point x="1077" y="369" type="line" smooth="yes"/>
      <point x="1067" y="379"/>
      <point x="1055" y="383"/>
      <point x="1040" y="383" type="curve" smooth="yes"/>
      <point x="1026" y="383"/>
      <point x="1016" y="379"/>
      <point x="1006" y="369" type="curve" smooth="yes"/>
      <point x="981" y="344"/>
      <point x="982.266" y="321.261"/>
      <point x="1006" y="297" type="curve" smooth="yes"/>
      <point x="1096" y="205" type="line"/>
      <point x="999" y="137"/>
      <point x="889.003" y="104"/>
      <point x="768" y="104" type="curve" smooth="yes"/>
      <point x="605.995" y="104"/>
      <point x="468.781" y="155.75"/>
      <point x="356" y="256" type="curve" smooth="yes"/>
      <point x="243.775" y="355.755"/>
      <point x="188" y="487"/>
      <point x="188" y="649" type="curve" smooth="yes"/>
      <point x="188" y="811"/>
      <point x="243.749" y="948.249"/>
      <point x="356" y="1061" type="curve" smooth="yes"/>
      <point x="468.748" y="1174.25"/>
      <point x="606" y="1229"/>
      <point x="768" y="1229" type="curve" smooth="yes"/>
      <point x="930" y="1229"/>
      <point x="1066.97" y="1177.97"/>
      <point x="1180" y="1077" type="curve" smooth="yes"/>
      <point x="1291.98" y="976.964"/>
      <point x="1348" y="846"/>
    </contour>
    <contour>
      <point x="1450" y="682" type="curve" smooth="yes"/>
      <point x="1450" y="872.012"/>
      <point x="1383.8" y="1027.77"/>
      <point x="1251" y="1149" type="curve" smooth="yes"/>
      <point x="1119.79" y="1268.78"/>
      <point x="958" y="1331"/>
      <point x="768" y="1331" type="curve" smooth="yes"/>
      <point x="578" y="1331"/>
      <point x="415.751" y="1266.25"/>
      <point x="283" y="1133" type="curve" smooth="yes"/>
      <point x="151.745" y="1001.25"/>
      <point x="86" y="839.996"/>
      <point x="86" y="649" type="curve" smooth="yes"/>
      <point x="86" y="458.996"/>
      <point x="153.934" y="303.924"/>
      <point x="287" y="180" type="curve" smooth="yes"/>
      <point x="415.933" y="59.925"/>
      <point x="578" y="0"/>
      <point x="768" y="0" type="curve" smooth="yes"/>
      <point x="918" y="0"/>
      <point x="1053" y="43"/>
      <point x="1171" y="129" type="curve"/>
      <point x="1286" y="16" type="line" smooth="yes"/>
      <point x="1309.71" y="-7.29725"/>
      <point x="1333" y="-9"/>
      <point x="1358" y="16" type="curve" smooth="yes"/>
      <point x="1369" y="27"/>
      <point x="1372" y="37"/>
      <point x="1372" y="51" type="curve" smooth="yes"/>
      <point x="1372" y="66"/>
      <point x="1368" y="78"/>
      <point x="1358" y="88" type="curve" smooth="yes"/>
      <point x="1249" y="197" type="line"/>
      <point x="1382" y="328"/>
      <point x="1450" y="488.996"/>
    </contour>
  </outline>
</glyph>
<glyph name="Y" format="2">
  <advance width="1331"/>
  <unicode hex="0059"/>
  <outline>
    <contour>
      <point x="1198" y="1249" type="line" smooth="yes"/>
      <point x="1218.84" y="1276.12"/>
      <point x="1213.95" y="1300.93"/>
      <point x="1188" y="1321" type="curve" smooth="yes"/>
      <point x="1160.94" y="1341.93"/>
      <point x="1136.04" y="1336.97"/>
      <point x="1116" y="1311" type="curve" smooth="yes"/>
      <point x="653" y="711" type="line"/>
      <point x="188" y="1313" type="line" smooth="yes"/>
      <point x="167.948" y="1338.96"/>
      <point x="142.946" y="1341.07"/>
      <point x="117" y="1321" type="curve" smooth="yes"/>
      <point x="89.9447" y="1300.07"/>
      <point x="85.055" y="1276.04"/>
      <point x="106" y="1249" type="curve" smooth="yes"/>
      <point x="604" y="606" type="line"/>
      <point x="604" y="51" type="line" smooth="yes"/>
      <point x="604" y="19.9988"/>
      <point x="621" y="2"/>
      <point x="655" y="0" type="curve"/>
      <point x="690" y="2"/>
      <point x="707" y="19.9988"/>
      <point x="707" y="51" type="curve" smooth="yes"/>
      <point x="707" y="610" type="line"/>
    </contour>
  </outline>
</glyph>
<glyph name="backslash" format="2">
  <advance width="717"/>
  <unicode hex="005C"/>
  <outline>
    <contour>
      <point x="524" y="39" type="curve" smooth="yes"/>
      <point x="525.928" y="45.0237"/>
      <point x="526.08" y="51.0162"/>
      <point x="524" y="61" type="curve" smooth="yes"/>
      <point x="268" y="1290" type="line" smooth="yes"/>
      <point x="261.562" y="1320.91"/>
      <point x="244" y="1335"/>
      <point x="209" y="1331" type="curve"/>
      <point x="186" y="1325"/>
      <point x="174" y="1315"/>
      <point x="170" y="1296" type="curve"/>
      <point x="168" y="1290"/>
      <point x="167.936" y="1281.99"/>
      <point x="170" y="1272" type="curve" smooth="yes"/>
      <point x="424" y="43" type="line" smooth="yes"/>
      <point x="430.391" y="12.078"/>
      <point x="451" y="-2"/>
      <point x="483" y="2" type="curve"/>
      <point x="506" y="8"/>
      <point x="517.928" y="20.0235"/>
    </contour>
  </outline>
</glyph>
<glyph name="c" format="2">
  <advance width="819"/>
  <unicode hex="0063"/>
  <outline>
    <contour>
      <point x="680" y="182" type="curve" smooth="yes"/>
      <point x="695.074" y="212.963"/>
      <point x="685.914" y="235.81"/>
      <point x="655" y="250" type="curve" smooth="yes"/>
      <point x="624.913" y="263.811"/>
      <point x="601.993" y="256.004"/>
      <point x="588" y="225" type="curve" smooth="yes"/>
      <point x="550.991" y="143"/>
      <point x="492" y="102"/>
      <point x="410" y="102" type="curve" smooth="yes"/>
      <point x="352" y="102"/>
      <point x="303" y="127"/>
      <point x="264" y="178" type="curve" smooth="yes"/>
      <point x="225" y="229"/>
      <point x="205" y="283"/>
      <point x="205" y="342" type="curve" smooth="yes"/>
      <point x="205" y="401"/>
      <point x="225" y="455"/>
      <point x="264" y="506" type="curve" smooth="yes"/>
      <point x="303" y="557"/>
      <point x="352" y="582"/>
      <point x="410" y="582" type="curve" smooth="yes"/>
      <point x="465" y="582"/>
      <point x="520.774" y="548.819"/>
      <point x="573" y="483" type="curve" smooth="yes"/>
      <point x="593.774" y="456.819"/>
      <point x="618.239" y="454.681"/>
      <point x="645" y="475" type="curve" smooth="yes"/>
      <point x="672.242" y="495.684"/>
      <point x="672.843" y="518.889"/>
      <point x="653" y="547" type="curve" smooth="yes"/>
      <point x="588.843" y="637.889"/>
      <point x="510" y="684"/>
      <point x="410" y="684" type="curve" smooth="yes"/>
      <point x="322" y="684"/>
      <point x="247.451" y="649.613"/>
      <point x="188" y="580" type="curve" smooth="yes"/>
      <point x="130.451" y="512.614"/>
      <point x="102" y="432"/>
      <point x="102" y="342" type="curve" smooth="yes"/>
      <point x="102" y="252"/>
      <point x="130.86" y="173.884"/>
      <point x="188" y="106" type="curve" smooth="yes"/>
      <point x="247.862" y="34.8812"/>
      <point x="322" y="0"/>
      <point x="410" y="0" type="curve" smooth="yes"/>
      <point x="530" y="0"/>
      <point x="621.076" y="60.9655"/>
    </contour>
  </outline>
</glyph>
<glyph name="j" format="2">
  <advance width="410"/>
  <unicode hex="006A"/>
  <outline>
    <contour>
      <point x="305" y="633" type="line" smooth="yes"/>
      <point x="305" y="664"/>
      <point x="289" y="682"/>
      <point x="254" y="684" type="curve"/>
      <point x="219" y="682"/>
      <point x="203" y="664"/>
      <point x="203" y="633" type="curve" smooth="yes"/>
      <point x="203" y="-281" type="line" smooth="yes"/>
      <point x="203" y="-348"/>
      <point x="185.334" y="-411.181"/>
      <point x="152" y="-471" type="curve" smooth="yes"/>
      <point x="112.33" y="-542.188"/>
      <point x="61" y="-580"/>
      <point x="2" y="-580" type="curve" smooth="yes"/>
      <point x="-37" y="-580"/>
      <point x="-72.3348" y="-567.449"/>
      <point x="-102" y="-545" type="curve" smooth="yes"/>
      <point x="-109.352" y="-539.437"/>
      <point x="-137.236" y="-512.226"/>
      <point x="-184" y="-463" type="curve" smooth="yes"/>
      <point x="-194.239" y="-452.222"/>
      <point x="-207" y="-449"/>
      <point x="-221" y="-449" type="curve" smooth="yes"/>
      <point x="-256" y="-449"/>
      <point x="-272" y="-465"/>
      <point x="-272" y="-500" type="curve" smooth="yes"/>
      <point x="-272" y="-514"/>
      <point x="-266" y="-524"/>
      <point x="-256" y="-535" type="curve"/>
      <point x="-184" y="-633"/>
      <point x="-98" y="-682"/>
      <point x="0" y="-682" type="curve" smooth="yes"/>
      <point x="94" y="-682"/>
      <point x="169.798" y="-634.87"/>
      <point x="229" y="-541" type="curve" smooth="yes"/>
      <point x="280.798" y="-458.87"/>
      <point x="305" y="-369"/>
      <point x="305" y="-268" type="curve" smooth="yes"/>
    </contour>
    <contour>
      <point x="313" y="1004" type="curve" smooth="yes"/>
      <point x="313" y="1042"/>
      <point x="293" y="1063"/>
      <point x="254" y="1063" type="curve" smooth="yes"/>
      <point x="215" y="1063"/>
      <point x="195" y="1042" name=".hr01"/>
      <point x="195" y="1004" type="curve" smooth="yes"/>
      <point x="195" y="965"/>
      <point x="215" y="944"/>
      <point x="254" y="944" type="curve" smooth="yes"/>
      <point x="293" y="944"/>
      <point x="313" y="965"/>
    </contour>
  </outline>
</glyph>
<glyph name="z" format="2">
  <advance width="819"/>
  <unicode hex="007A"/>
  <outline>
    <contour>
      <point x="686" y="51" type="curve" smooth="yes"/>
      <point x="686" y="86"/>
      <point x="670" y="102"/>
      <point x="635" y="102" type="curve" smooth="yes"/>
      <point x="254" y="102" type="line"/>
      <point x="655" y="610" type="line"/>
      <point x="659" y="621"/>
      <point x="662" y="627"/>
      <point x="662" y="633" type="curve" smooth="yes"/>
      <point x="662" y="668"/>
      <point x="645.002" y="684"/>
      <point x="610" y="684" type="curve" smooth="yes"/>
      <point x="223" y="684" type="line" smooth="yes"/>
      <point x="192.998" y="684"/>
      <point x="174" y="668"/>
      <point x="172" y="633" type="curve"/>
      <point x="174" y="598"/>
      <point x="193" y="582"/>
      <point x="223" y="582" type="curve" smooth="yes"/>
      <point x="504" y="582" type="line"/>
      <point x="109" y="80" type="line" smooth="yes"/>
      <point x="102.426" y="71.6455"/>
      <point x="100" y="61"/>
      <point x="100" y="51" type="curve" smooth="yes"/>
      <point x="100" y="16"/>
      <point x="116.999" y="0"/>
      <point x="152" y="0" type="curve" smooth="yes"/>
      <point x="635" y="0" type="line" smooth="yes"/>
      <point x="670.001" y="0"/>
      <point x="686" y="16"/>
    </contour>
  </outline>
</glyph>
<glyph name="asciitilde" format="2">
  <advance width="10"/>
  <unicode hex="007E"/>
  <outline>
    <contour>
      <point x="-94" y="848" type="curve"/>
      <point x="-84" y="860"/>
      <point x="-78" y="872"/>
      <point x="-78" y="887" type="curve" smooth="yes"/>
      <point x="-78" y="922"/>
      <point x="-94" y="938"/>
      <point x="-129" y="938" type="curve" smooth="yes"/>
      <point x="-143" y="938"/>
      <point x="-154" y="934"/>
      <point x="-164" y="924" type="curve"/>
      <point x="-227" y="885"/>
      <point x="-270" y="864"/>
      <point x="-295" y="864" type="curve" smooth="yes"/>
      <point x="-305" y="864"/>
      <point x="-327.92" y="876.118"/>
      <point x="-362" y="899" type="curve" smooth="yes"/>
      <point x="-397.922" y="923.118"/>
      <point x="-432" y="936" name=".hr01"/>
      <point x="-465" y="936" type="curve" smooth="yes"/>
      <point x="-508" y="936"/>
      <point x="-573" y="907"/>
      <point x="-664" y="848" type="curve"/>
      <point x="-674" y="836"/>
      <point x="-680" y="823"/>
      <point x="-680" y="811" type="curve" smooth="yes"/>
      <point x="-680" y="776"/>
      <point x="-662" y="758"/>
      <point x="-627" y="758" type="curve" smooth="yes"/>
      <point x="-614" y="758"/>
      <point x="-602" y="762" name=".hr02"/>
      <point x="-592" y="772" type="curve"/>
      <point x="-541" y="813"/>
      <point x="-500" y="834" name=".hr03"/>
      <point x="-465" y="834" type="curve" smooth="yes"/>
      <point x="-446" y="834"/>
      <point x="-424" y="825"/>
      <point x="-401" y="809" type="curve" smooth="yes"/>
      <point x="-355" y="777"/>
      <point x="-317" y="762" name=".hr04"/>
      <point x="-295" y="762" type="curve" smooth="yes"/>
      <point x="-256" y="762"/>
      <point x="-188" y="791"/>
    </contour>
  </outline>
</glyph>
<glyph name="guillemotleft" format="2">
  <advance width="1229"/>
  <unicode hex="00AB"/>
  <outline>
    <contour>
      <point x="643" y="264" type="curve" smooth="yes"/>
      <point x="662.772" y="292.16"/>
      <point x="657.218" y="317.302"/>
      <point x="631" y="336" type="curve" smooth="yes"/>
      <point x="373" y="520" type="line"/>
      <point x="618" y="698" type="line" smooth="yes"/>
      <point x="644.711" y="717.406"/>
      <point x="649" y="741"/>
      <point x="631" y="770" type="curve"/>
      <point x="616" y="788"/>
      <point x="600" y="795"/>
      <point x="582" y="793" type="curve"/>
      <point x="575" y="791"/>
      <point x="567" y="788"/>
      <point x="561" y="782" type="curve"/>
      <point x="272" y="573" type="line" smooth="yes"/>
      <point x="245.247" y="553.653"/>
      <point x="233" y="537"/>
      <point x="233" y="524" type="curve" smooth="yes"/>
      <point x="233" y="510"/>
      <point x="244.087" y="489.123"/>
      <point x="272" y="469" type="curve" smooth="yes"/>
      <point x="573" y="252" type="line" smooth="yes"/>
      <point x="579.978" y="246.97"/>
      <point x="588" y="244"/>
      <point x="594" y="242" type="curve"/>
      <point x="612" y="240"/>
      <point x="629.771" y="245.159"/>
    </contour>
    <contour>
      <point x="1014" y="260" type="curve"/>
      <point x="1032" y="289"/>
      <point x="1027.78" y="310.693"/>
      <point x="1001" y="330" type="curve" smooth="yes"/>
      <point x="743" y="516" type="line"/>
      <point x="989" y="692" type="line" smooth="yes"/>
      <point x="1015.85" y="711.21"/>
      <point x="1020.77" y="735.84"/>
      <point x="1001" y="764" type="curve" smooth="yes"/>
      <point x="987.771" y="782.841"/>
      <point x="971" y="788"/>
      <point x="952" y="786" type="curve"/>
      <point x="946" y="784"/>
      <point x="938.111" y="781.85"/>
      <point x="930" y="776" type="curve" smooth="yes"/>
      <point x="643" y="569" type="line" smooth="yes"/>
      <point x="615.092" y="548.871"/>
      <point x="604" y="530"/>
      <point x="604" y="518" type="curve" smooth="yes"/>
      <point x="604" y="504"/>
      <point x="616" y="487"/>
      <point x="641" y="465" type="curve"/>
      <point x="942" y="248" type="line" smooth="yes"/>
      <point x="950.112" y="242.152"/>
      <point x="958" y="240"/>
      <point x="965" y="238" type="curve"/>
      <point x="983" y="236"/>
      <point x="999" y="242"/>
    </contour>
  </outline>
</glyph>
<glyph name="degree" format="2">
  <advance width="819"/>
  <unicode hex="00B0"/>
  <outline>
    <contour>
      <point x="496" y="1061" type="curve" smooth="yes"/>
      <point x="496" y="989"/>
      <point x="438" y="932"/>
      <point x="367" y="932" type="curve" smooth="yes"/>
      <point x="295" y="932"/>
      <point x="238" y="989"/>
      <point x="238" y="1061" type="curve" smooth="yes"/>
      <point x="238" y="1133"/>
      <point x="295" y="1190"/>
      <point x="367" y="1190" type="curve" smooth="yes"/>
      <point x="438" y="1190"/>
      <point x="496" y="1133"/>
    </contour>
    <contour>
      <point x="598" y="1061" type="curve" smooth="yes"/>
      <point x="598" y="1124"/>
      <point x="575" y="1180"/>
      <point x="530" y="1225" type="curve" smooth="yes"/>
      <point x="485" y="1270"/>
      <point x="430" y="1292"/>
      <point x="367" y="1292" type="curve" smooth="yes"/>
      <point x="303" y="1292"/>
      <point x="248" y="1270"/>
      <point x="203" y="1225" type="curve" smooth="yes"/>
      <point x="158" y="1180"/>
      <point x="135" y="1124"/>
      <point x="135" y="1061" type="curve" smooth="yes"/>
      <point x="135" y="997"/>
      <point x="158" y="942"/>
      <point x="203" y="897" type="curve" smooth="yes"/>
      <point x="248" y="852"/>
      <point x="303" y="829"/>
      <point x="367" y="829" type="curve" smooth="yes"/>
      <point x="430" y="829"/>
      <point x="485" y="852"/>
      <point x="530" y="897" type="curve" smooth="yes"/>
      <point x="575" y="942"/>
      <point x="598" y="997"/>
    </contour>
  </outline>
</glyph>
<glyph name="acute" format="2">
  <advance width="819"/>
  <unicode hex="00B4"/>
  <outline>
    <contour>
      <point x="557" y="1249" type="curve" smooth="yes"/>
      <point x="557" y="1282"/>
      <point x="539" y="1298"/>
      <point x="502" y="1298" type="curve" smooth="yes"/>
      <point x="485" y="1298"/>
      <point x="473.07" y="1289.96"/>
      <point x="463" y="1274" type="curve" smooth="yes"/>
      <point x="309" y="1030" type="line" smooth="yes"/>
      <point x="303.505" y="1021.29"/>
      <point x="301" y="1014"/>
      <point x="301" y="1004" type="curve" smooth="yes"/>
      <point x="301" y="987"/>
      <point x="308.983" y="972.975"/>
      <point x="326" y="961" type="curve" smooth="yes"/>
      <point x="335.983" y="953.975"/>
      <point x="346" y="952"/>
      <point x="356" y="952" type="curve" smooth="yes"/>
      <point x="371" y="952"/>
      <point x="384.93" y="961.045"/>
      <point x="395" y="977" type="curve" smooth="yes"/>
      <point x="549" y="1221" type="line" smooth="yes"/>
      <point x="554.035" y="1228.98"/>
      <point x="557" y="1239"/>
    </contour>
  </outline>
</glyph>
<glyph name="Adieresis" format="2">
  <advance width="1331"/>
  <unicode hex="00C4"/>
  <outline>
    <contour>
      <point x="483" y="567" type="line"/>
      <point x="645" y="881" type="line"/>
      <point x="811" y="567" type="line"/>
    </contour>
    <contour>
      <point x="1192" y="51" type="curve" smooth="yes"/>
      <point x="1192" y="59"/>
      <point x="1190" y="68"/>
      <point x="1184" y="76" type="curve"/>
      <point x="698" y="1001" type="line" smooth="yes"/>
      <point x="681.774" y="1031.88"/>
      <point x="664" y="1049"/>
      <point x="645" y="1049" type="curve" smooth="yes"/>
      <point x="627" y="1049"/>
      <point x="609.156" y="1031.92"/>
      <point x="592" y="999" type="curve" smooth="yes"/>
      <point x="111" y="76" type="line"/>
      <point x="104" y="68"/>
      <point x="102" y="59"/>
      <point x="102" y="51" type="curve" smooth="yes"/>
      <point x="102" y="33"/>
      <point x="113" y="18"/>
      <point x="131" y="6" type="curve"/>
      <point x="141" y="2"/>
      <point x="150" y="0"/>
      <point x="158" y="0" type="curve" smooth="yes"/>
      <point x="176" y="0"/>
      <point x="191.085" y="9.95525"/>
      <point x="201" y="29" type="curve" smooth="yes"/>
      <point x="428" y="465" type="line"/>
      <point x="864" y="465" type="line"/>
      <point x="1094" y="29" type="line" smooth="yes"/>
      <point x="1104.02" y="10.0098"/>
      <point x="1118" y="0"/>
      <point x="1137" y="0" type="curve" smooth="yes"/>
      <point x="1145" y="0"/>
      <point x="1153" y="2"/>
      <point x="1163" y="6" type="curve"/>
      <point x="1182" y="18"/>
      <point x="1192" y="33"/>
    </contour>
    <contour>
      <point x="551" y="1174" type="curve" smooth="yes"/>
      <point x="551" y="1214"/>
      <point x="530" y="1235"/>
      <point x="487" y="1235" type="curve" smooth="yes"/>
      <point x="446" y="1235"/>
      <point x="426" y="1214"/>
      <point x="426" y="1174" type="curve" smooth="yes"/>
      <point x="426" y="1130"/>
      <point x="446" y="1110"/>
      <point x="487" y="1110" type="curve" smooth="yes"/>
      <point x="530" y="1110"/>
      <point x="551" y="1130"/>
    </contour>
    <contour>
      <point x="868" y="1174" type="curve" smooth="yes"/>
      <point x="868" y="1214"/>
      <point x="848" y="1235"/>
      <point x="805" y="1235" type="curve" smooth="yes"/>
      <point x="764" y="1235"/>
      <point x="743" y="1214"/>
      <point x="743" y="1174" type="curve" smooth="yes"/>
      <point x="743" y="1130"/>
      <point x="764" y="1110"/>
      <point x="805" y="1110" type="curve" smooth="yes"/>
      <point x="848" y="1110"/>
      <point x="868" y="1130"/>
    </contour>
  </outline>
</glyph>
<glyph name="Ccedilla" format="2">
  <advance width="1434"/>
  <unicode hex="00C7"/>
  <outline>
    <contour>
      <point x="1327" y="1063" type="curve"/>
      <point x="1194" y="1241"/>
      <point x="1012.01" y="1331"/>
      <point x="784" y="1331" type="curve" smooth="yes"/>
      <point x="593.993" y="1331"/>
      <point x="431.751" y="1266.25"/>
      <point x="299" y="1133" type="curve" smooth="yes"/>
      <point x="167.745" y="1001.25"/>
      <point x="102" y="840.004"/>
      <point x="102" y="649" type="curve" smooth="yes"/>
      <point x="102" y="464.988"/>
      <point x="165.957" y="311.961"/>
      <point x="293" y="190" type="curve" smooth="yes"/>
      <point x="415.963" y="71.956"/>
      <point x="569" y="8"/>
      <point x="754" y="0" type="curve"/>
      <point x="727" y="-129" type="line"/>
      <point x="797" y="-129" type="line" smooth="yes"/>
      <point x="848" y="-129"/>
      <point x="877.306" y="-148.978"/>
      <point x="881" y="-197" type="curve" smooth="yes"/>
      <point x="884.306" y="-239.977"/>
      <point x="853.977" y="-276.544"/>
      <point x="811" y="-279" type="curve" smooth="yes"/>
      <point x="783.971" y="-280.544"/>
      <point x="762" y="-272"/>
      <point x="743" y="-252" type="curve"/>
      <point x="696" y="-311" type="line"/>
      <point x="735" y="-346"/>
      <point x="775.995" y="-359.939"/>
      <point x="819" y="-356" type="curve" smooth="yes"/>
      <point x="906.994" y="-347.939"/>
      <point x="961.626" y="-272.038"/>
      <point x="954" y="-193" type="curve" smooth="yes"/>
      <point x="950.626" y="-158.034"/>
      <point x="941.091" y="-127.919"/>
      <point x="918" y="-102" type="curve" smooth="yes"/>
      <point x="892.091" y="-72.9188"/>
      <point x="862" y="-57"/>
      <point x="827" y="-55" type="curve"/>
      <point x="838" y="2" type="line"/>
      <point x="1034" y="16"/>
      <point x="1196.08" y="101.923"/>
      <point x="1323" y="264" type="curve" smooth="yes"/>
      <point x="1344.09" y="290.932"/>
      <point x="1341.38" y="315.444"/>
      <point x="1317" y="336" type="curve" smooth="yes"/>
      <point x="1290.37" y="358.45"/>
      <point x="1265.57" y="356.341"/>
      <point x="1245" y="330" type="curve" smooth="yes"/>
      <point x="1126.57" y="178.337"/>
      <point x="972.992" y="102"/>
      <point x="784" y="102" type="curve" smooth="yes"/>
      <point x="623" y="102"/>
      <point x="485.225" y="154.245"/>
      <point x="373" y="254" type="curve" smooth="yes"/>
      <point x="260.219" y="354.25"/>
      <point x="205" y="485"/>
      <point x="205" y="647" type="curve" smooth="yes"/>
      <point x="205" y="809"/>
      <point x="259.997" y="945.997"/>
      <point x="373" y="1059" type="curve" smooth="yes"/>
      <point x="485.002" y="1171"/>
      <point x="623" y="1227"/>
      <point x="784" y="1227" type="curve" smooth="yes"/>
      <point x="982.992" y="1227"/>
      <point x="1141" y="1149"/>
      <point x="1255" y="991" type="curve"/>
      <point x="1266" y="981"/>
      <point x="1276" y="975"/>
      <point x="1290" y="975" type="curve" smooth="yes"/>
      <point x="1325" y="975"/>
      <point x="1341" y="991"/>
      <point x="1341" y="1026" type="curve" smooth="yes"/>
      <point x="1341" y="1040"/>
      <point x="1337" y="1053"/>
    </contour>
  </outline>
</glyph>
<glyph name="Egrave" format="2">
  <advance width="1024"/>
  <unicode hex="00C8"/>
  <outline>
    <contour>
      <point x="825" y="51" type="curve"/>
      <point x="823" y="86"/>
      <point x="805" y="102"/>
      <point x="774" y="102" type="curve" smooth="yes"/>
      <point x="205" y="102" type="line"/>
      <point x="205" y="506" type="line"/>
      <point x="543" y="506" type="line" smooth="yes"/>
      <point x="573" y="506"/>
      <point x="592" y="522"/>
      <point x="594" y="557" type="curve"/>
      <point x="592" y="592"/>
      <point x="573" y="608"/>
      <point x="543" y="608" type="curve" smooth="yes"/>
      <point x="205" y="608" type="line"/>
      <point x="205" y="983" type="line"/>
      <point x="774" y="983" type="line" smooth="yes"/>
      <point x="805" y="983"/>
      <point x="823" y="999"/>
      <point x="825" y="1034" type="curve"/>
      <point x="823" y="1069"/>
      <point x="805" y="1085"/>
      <point x="774" y="1085" type="curve" smooth="yes"/>
      <point x="154" y="1085" type="line" smooth="yes"/>
      <point x="119" y="1085"/>
      <point x="102" y="1069"/>
      <point x="102" y="1034" type="curve" smooth="yes"/>
      <point x="102" y="51" type="line" smooth="yes"/>
      <point x="102" y="16"/>
      <point x="119" y="0"/>
      <point x="154" y="0" type="curve" smooth="yes"/>
      <point x="774" y="0" type="line" smooth="yes"/>
      <point x="805" y="0"/>
      <point x="823" y="16"/>
    </contour>
    <contour>
      <point x="598" y="1161" type="curve" smooth="yes"/>
      <point x="598" y="1174"/>
      <point x="592.103" y="1186.1"/>
      <point x="582" y="1196" type="curve" smooth="yes"/>
      <point x="436" y="1339" type="line" smooth="yes"/>
      <point x="425.38" y="1349.4"/>
      <point x="414" y="1356"/>
      <point x="401" y="1356" type="curve" smooth="yes"/>
      <point x="377" y="1356"/>
      <point x="348" y="1329"/>
      <point x="348" y="1303" type="curve" smooth="yes"/>
      <point x="348" y="1290"/>
      <point x="354.452" y="1278.48"/>
      <point x="365" y="1268" type="curve" smooth="yes"/>
      <point x="510" y="1124" type="line" smooth="yes"/>
      <point x="520.035" y="1114.03"/>
      <point x="532" y="1108"/>
      <point x="545" y="1108" type="curve" smooth="yes"/>
      <point x="569" y="1108"/>
      <point x="598" y="1137"/>
    </contour>
  </outline>
</glyph>
<glyph name="Eacute" format="2">
  <advance width="1024"/>
  <unicode hex="00C9"/>
  <outline>
    <contour>
      <point x="825" y="51" type="curve"/>
      <point x="823" y="86"/>
      <point x="805" y="102"/>
      <point x="774" y="102" type="curve" smooth="yes"/>
      <point x="205" y="102" type="line"/>
      <point x="205" y="506" type="line"/>
      <point x="543" y="506" type="line" smooth="yes"/>
      <point x="573" y="506"/>
      <point x="592" y="522"/>
      <point x="594" y="557" type="curve"/>
      <point x="592" y="592"/>
      <point x="573" y="608"/>
      <point x="543" y="608" type="curve" smooth="yes"/>
      <point x="205" y="608" type="line"/>
      <point x="205" y="983" type="line"/>
      <point x="774" y="983" type="line" smooth="yes"/>
      <point x="805" y="983"/>
      <point x="823" y="999"/>
      <point x="825" y="1034" type="curve"/>
      <point x="823" y="1069"/>
      <point x="805" y="1085"/>
      <point x="774" y="1085" type="curve" smooth="yes"/>
      <point x="154" y="1085" type="line" smooth="yes"/>
      <point x="119" y="1085"/>
      <point x="102" y="1069"/>
      <point x="102" y="1034" type="curve" smooth="yes"/>
      <point x="102" y="51" type="line" smooth="yes"/>
      <point x="102" y="16"/>
      <point x="119" y="0"/>
      <point x="154" y="0" type="curve" smooth="yes"/>
      <point x="774" y="0" type="line" smooth="yes"/>
      <point x="805" y="0"/>
      <point x="823" y="16"/>
    </contour>
    <contour>
      <point x="598" y="1313" type="curve" smooth="yes"/>
      <point x="598" y="1339"/>
      <point x="571" y="1366"/>
      <point x="545" y="1366" type="curve" smooth="yes"/>
      <point x="532" y="1366"/>
      <point x="520.035" y="1359.97"/>
      <point x="510" y="1350" type="curve" smooth="yes"/>
      <point x="365" y="1206" type="line" smooth="yes"/>
      <point x="354.452" y="1195.52"/>
      <point x="348" y="1184"/>
      <point x="348" y="1171" type="curve" smooth="yes"/>
      <point x="348" y="1147"/>
      <point x="377" y="1118"/>
      <point x="401" y="1118" type="curve" smooth="yes"/>
      <point x="414" y="1118"/>
      <point x="425.38" y="1124.6"/>
      <point x="436" y="1135" type="curve" smooth="yes"/>
      <point x="582" y="1278" type="line" smooth="yes"/>
      <point x="592.103" y="1287.9"/>
      <point x="598" y="1300"/>
    </contour>
  </outline>
</glyph>
<glyph name="germandbls" format="2">
  <advance width="1126"/>
  <unicode hex="00DF"/>
  <outline>
    <contour>
      <point x="1032" y="377" type="curve" smooth="yes"/>
      <point x="1032" y="502"/>
      <point x="971" y="604"/>
      <point x="848" y="684" type="curve"/>
      <point x="907" y="698"/>
      <point x="952.243" y="739.882"/>
      <point x="987" y="811" type="curve" smooth="yes"/>
      <point x="1017.24" y="872.882"/>
      <point x="1032" y="936"/>
      <point x="1032" y="1004" type="curve" smooth="yes"/>
      <point x="1032" y="1100"/>
      <point x="993.05" y="1179.06"/>
      <point x="913" y="1243" type="curve" smooth="yes"/>
      <point x="839.05" y="1302.06"/>
      <point x="752.004" y="1331"/>
      <point x="651" y="1331" type="curve" smooth="yes"/>
      <point x="548.996" y="1331"/>
      <point x="446.868" y="1312.41"/>
      <point x="342" y="1276" type="curve" smooth="yes"/>
      <point x="181.853" y="1220.4"/>
      <point x="102" y="1135"/>
      <point x="102" y="1020" type="curve" smooth="yes"/>
      <point x="102" y="51" type="line" smooth="yes"/>
      <point x="102" y="19.9988"/>
      <point x="119" y="2"/>
      <point x="154" y="0" type="curve"/>
      <point x="188" y="2"/>
      <point x="205" y="19.9985"/>
      <point x="205" y="51" type="curve" smooth="yes"/>
      <point x="205" y="1001" type="line" smooth="yes"/>
      <point x="205" y="1092"/>
      <point x="271.988" y="1155.02"/>
      <point x="410" y="1194" type="curve" smooth="yes"/>
      <point x="487.995" y="1216.03"/>
      <point x="567" y="1229"/>
      <point x="651" y="1229" type="curve" smooth="yes"/>
      <point x="721" y="1229"/>
      <point x="782.793" y="1208.71"/>
      <point x="838" y="1169" type="curve" smooth="yes"/>
      <point x="896.792" y="1126.71"/>
      <point x="928" y="1071"/>
      <point x="928" y="1004" type="curve" smooth="yes"/>
      <point x="928" y="837.995"/>
      <point x="833.992" y="754"/>
      <point x="647" y="754" type="curve" smooth="yes"/>
      <point x="616" y="754"/>
      <point x="595.955" y="752.169"/>
      <point x="588" y="750" type="curve" smooth="yes"/>
      <point x="562.954" y="743.169"/>
      <point x="551" y="725"/>
      <point x="551" y="696" type="curve" smooth="yes"/>
      <point x="551" y="668"/>
      <point x="561.115" y="649.322"/>
      <point x="584" y="641" type="curve" smooth="yes"/>
      <point x="594.122" y="637.319"/>
      <point x="616" y="635"/>
      <point x="647" y="635" type="curve" smooth="yes"/>
      <point x="719" y="635"/>
      <point x="782.028" y="610.035"/>
      <point x="840" y="559" type="curve" smooth="yes"/>
      <point x="899.031" y="507.033"/>
      <point x="928" y="449"/>
      <point x="928" y="379" type="curve" smooth="yes"/>
      <point x="928" y="303"/>
      <point x="901.257" y="237.736"/>
      <point x="846" y="184" type="curve" smooth="yes"/>
      <point x="792.257" y="131.736"/>
      <point x="727" y="104"/>
      <point x="651" y="104" type="curve" smooth="yes"/>
      <point x="592" y="104"/>
      <point x="536" y="124"/>
      <point x="487" y="166" type="curve" smooth="yes"/>
      <point x="438" y="208"/>
      <point x="410" y="258"/>
      <point x="399" y="317" type="curve"/>
      <point x="389" y="336"/>
      <point x="373" y="344"/>
      <point x="354" y="344" type="curve" smooth="yes"/>
      <point x="319" y="344"/>
      <point x="301" y="326"/>
      <point x="301" y="287" type="curve" smooth="yes"/>
      <point x="301" y="213"/>
      <point x="342.203" y="145.263"/>
      <point x="422" y="84" type="curve" smooth="yes"/>
      <point x="497.203" y="26.2637"/>
      <point x="575" y="-2"/>
      <point x="651" y="-2" type="curve" smooth="yes"/>
      <point x="758" y="-2"/>
      <point x="847.755" y="33.2495"/>
      <point x="922" y="106" type="curve" smooth="yes"/>
      <point x="996.757" y="179.252"/>
      <point x="1032" y="270"/>
    </contour>
  </outline>
</glyph>
<glyph name="atilde" format="2">
  <advance width="819"/>
  <unicode hex="00E3"/>
  <outline>
    <contour>
      <point x="614" y="342" type="curve" smooth="yes"/>
      <point x="614" y="283"/>
      <point x="594" y="229"/>
      <point x="555" y="178" type="curve" smooth="yes"/>
      <point x="516" y="127"/>
      <point x="467" y="102"/>
      <point x="410" y="102" type="curve" smooth="yes"/>
      <point x="352" y="102"/>
      <point x="303" y="127"/>
      <point x="264" y="178" type="curve" smooth="yes"/>
      <point x="225" y="229"/>
      <point x="205" y="283"/>
      <point x="205" y="342" type="curve" smooth="yes"/>
      <point x="205" y="401"/>
      <point x="225" y="455"/>
      <point x="264" y="506" type="curve" smooth="yes"/>
      <point x="303" y="557"/>
      <point x="352" y="582"/>
      <point x="410" y="582" type="curve" smooth="yes"/>
      <point x="469" y="582"/>
      <point x="518.249" y="555.2"/>
      <point x="559" y="504" type="curve" smooth="yes"/>
      <point x="596.251" y="457.197"/>
      <point x="614" y="401"/>
    </contour>
    <contour>
      <point x="719" y="633" type="line" smooth="yes"/>
      <point x="719" y="664"/>
      <point x="702" y="682"/>
      <point x="668" y="684" type="curve"/>
      <point x="633" y="682"/>
      <point x="616" y="664"/>
      <point x="616" y="633" type="curve" smooth="yes"/>
      <point x="616" y="592" type="line"/>
      <point x="557" y="653"/>
      <point x="489" y="684"/>
      <point x="410" y="684" type="curve" smooth="yes"/>
      <point x="322" y="684"/>
      <point x="247.451" y="649.613"/>
      <point x="188" y="580" type="curve" smooth="yes"/>
      <point x="130.451" y="512.614"/>
      <point x="102" y="432"/>
      <point x="102" y="342" type="curve" smooth="yes"/>
      <point x="102" y="252"/>
      <point x="130.86" y="173.884"/>
      <point x="188" y="106" type="curve" smooth="yes"/>
      <point x="247.862" y="34.8812"/>
      <point x="322" y="0"/>
      <point x="410" y="0" type="curve" smooth="yes"/>
      <point x="489" y="0"/>
      <point x="557" y="31"/>
      <point x="616" y="92" type="curve"/>
      <point x="616" y="51" type="line" smooth="yes"/>
      <point x="616" y="20"/>
      <point x="633" y="2"/>
      <point x="668" y="0" type="curve"/>
      <point x="702" y="2"/>
      <point x="719" y="20"/>
      <point x="719" y="51" type="curve" smooth="yes"/>
    </contour>
    <contour>
      <point x="733" y="848" type="curve"/>
      <point x="743" y="860"/>
      <point x="750" y="872"/>
      <point x="750" y="887" type="curve" smooth="yes"/>
      <point x="750" y="922"/>
      <point x="733" y="938"/>
      <point x="698" y="938" type="curve" smooth="yes"/>
      <point x="684" y="938"/>
      <point x="674" y="934"/>
      <point x="664" y="924" type="curve"/>
      <point x="600" y="885"/>
      <point x="557" y="864"/>
      <point x="532" y="864" type="curve" smooth="yes"/>
      <point x="522" y="864"/>
      <point x="496.926" y="875.891"/>
      <point x="463" y="899" type="curve" smooth="yes"/>
      <point x="427.925" y="922.892"/>
      <point x="395" y="936"/>
      <point x="362" y="936" type="curve" smooth="yes" name=".hr01"/>
      <point x="319" y="936"/>
      <point x="254" y="907"/>
      <point x="164" y="848" type="curve"/>
      <point x="154" y="836"/>
      <point x="147" y="823"/>
      <point x="147" y="811" type="curve" smooth="yes"/>
      <point x="147" y="776"/>
      <point x="166" y="758"/>
      <point x="201" y="758" type="curve" smooth="yes"/>
      <point x="213" y="758"/>
      <point x="225.024" y="762.971"/>
      <point x="236" y="772" type="curve" smooth="yes" name=".hr02"/>
      <point x="287.024" y="813.971"/>
      <point x="328" y="834"/>
      <point x="362" y="834" type="curve" smooth="yes" name=".hr03"/>
      <point x="381" y="834"/>
      <point x="402.893" y="824.844"/>
      <point x="426" y="809" type="curve" smooth="yes"/>
      <point x="472.891" y="776.847"/>
      <point x="510" y="762"/>
      <point x="532" y="762" type="curve" smooth="yes" name=".hr04"/>
      <point x="571" y="762"/>
      <point x="639" y="791"/>
    </contour>
  </outline>
</glyph>
<glyph name="ocircumflex" format="2">
  <advance width="819"/>
  <unicode hex="00F4"/>
  <outline>
    <contour>
      <point x="614" y="342" type="curve" smooth="yes"/>
      <point x="614" y="283"/>
      <point x="594" y="229"/>
      <point x="555" y="178" type="curve" smooth="yes"/>
      <point x="516" y="127"/>
      <point x="467" y="102"/>
      <point x="410" y="102" type="curve" smooth="yes"/>
      <point x="352" y="102"/>
      <point x="303" y="127"/>
      <point x="264" y="178" type="curve" smooth="yes"/>
      <point x="225" y="229"/>
      <point x="205" y="283"/>
      <point x="205" y="342" type="curve" smooth="yes"/>
      <point x="205" y="401"/>
      <point x="225" y="455"/>
      <point x="264" y="506" type="curve" smooth="yes"/>
      <point x="303" y="557"/>
      <point x="352" y="582"/>
      <point x="410" y="582" type="curve" smooth="yes"/>
      <point x="469" y="582"/>
      <point x="518.249" y="555.2"/>
      <point x="559" y="504" type="curve" smooth="yes"/>
      <point x="596.251" y="457.197"/>
      <point x="614" y="401"/>
    </contour>
    <contour>
      <point x="717" y="342" type="curve" smooth="yes"/>
      <point x="717" y="434"/>
      <point x="688.236" y="512.196"/>
      <point x="633" y="578" type="curve" smooth="yes"/>
      <point x="573.235" y="649.199"/>
      <point x="500" y="684"/>
      <point x="410" y="684" type="curve" smooth="yes"/>
      <point x="322" y="684"/>
      <point x="247.451" y="649.613"/>
      <point x="188" y="580" type="curve" smooth="yes"/>
      <point x="130.451" y="512.614"/>
      <point x="102" y="432"/>
      <point x="102" y="342" type="curve" smooth="yes"/>
      <point x="102" y="252"/>
      <point x="130.86" y="173.884"/>
      <point x="188" y="106" type="curve" smooth="yes"/>
      <point x="247.862" y="34.8812"/>
      <point x="322" y="0"/>
      <point x="410" y="0" type="curve" smooth="yes"/>
      <point x="498" y="0"/>
      <point x="571.137" y="34.8812"/>
      <point x="631" y="106" type="curve" smooth="yes"/>
      <point x="688.14" y="173.884"/>
      <point x="717" y="252"/>
    </contour>
    <contour>
      <point x="713" y="825" type="curve" smooth="yes"/>
      <point x="713" y="838"/>
      <point x="706.489" y="849.465"/>
      <point x="696" y="860" type="curve" smooth="yes"/>
      <point x="463" y="1094" type="line" smooth="yes"/>
      <point x="453.021" y="1104.02"/>
      <point x="440" y="1110"/>
      <point x="428" y="1110" type="curve" smooth="yes"/>
      <point x="426" y="1110" type="line" smooth="yes"/>
      <point x="414" y="1110"/>
      <point x="400.979" y="1104.02"/>
      <point x="391" y="1094" type="curve" smooth="yes"/>
      <point x="158" y="860" type="line" smooth="yes"/>
      <point x="147.511" y="849.465"/>
      <point x="141" y="838"/>
      <point x="141" y="825" type="curve" smooth="yes"/>
      <point x="141" y="801"/>
      <point x="170" y="772"/>
      <point x="195" y="772" type="curve" smooth="yes"/>
      <point x="207" y="772"/>
      <point x="219.05" y="777.949"/>
      <point x="229" y="788" type="curve" smooth="yes"/>
      <point x="426" y="987" type="line"/>
      <point x="625" y="788" type="line" smooth="yes"/>
      <point x="635" y="778"/>
      <point x="647" y="772"/>
      <point x="659" y="772" type="curve" smooth="yes"/>
      <point x="684" y="772"/>
      <point x="713" y="801"/>
    </contour>
  </outline>
</glyph>
<glyph name="ugrave" format="2">
  <advance width="819"/>
  <unicode hex="00F9"/>
  <outline>
    <contour>
      <point x="645" y="633" type="line" smooth="yes"/>
      <point x="645" y="664"/>
      <point x="629" y="682"/>
      <point x="594" y="684" type="curve"/>
      <point x="559" y="682"/>
      <point x="543" y="664"/>
      <point x="543" y="633" type="curve" smooth="yes"/>
      <point x="543" y="223" type="line"/>
      <point x="520" y="143"/>
      <point x="465.004" y="102"/>
      <point x="373" y="102" type="curve" smooth="yes"/>
      <point x="275.996" y="102"/>
      <point x="219" y="143"/>
      <point x="205" y="223" type="curve"/>
      <point x="205" y="631" type="line" smooth="yes"/>
      <point x="205" y="662"/>
      <point x="188" y="680"/>
      <point x="154" y="682" type="curve"/>
      <point x="119" y="680"/>
      <point x="102" y="662.002"/>
      <point x="102" y="631" type="curve" smooth="yes"/>
      <point x="102" y="252" type="line" smooth="yes"/>
      <point x="102" y="89.9897"/>
      <point x="209" y="0"/>
      <point x="373" y="0" type="curve" smooth="yes"/>
      <point x="449" y="0"/>
      <point x="506" y="18"/>
      <point x="543" y="53" type="curve"/>
      <point x="543" y="51" type="line" smooth="yes"/>
      <point x="543" y="16"/>
      <point x="559" y="0"/>
      <point x="594" y="0" type="curve" smooth="yes"/>
      <point x="629" y="0"/>
      <point x="645" y="16"/>
      <point x="645" y="51" type="curve" smooth="yes"/>
    </contour>
    <contour>
      <point x="543" y="772" type="curve" smooth="yes"/>
      <point x="543" y="784"/>
      <point x="537" y="796"/>
      <point x="526" y="807" type="curve" smooth="yes"/>
      <point x="293" y="1040" type="line" smooth="yes"/>
      <point x="282" y="1051"/>
      <point x="270" y="1057"/>
      <point x="258" y="1057" type="curve" smooth="yes"/>
      <point x="231" y="1057"/>
      <point x="205" y="1030"/>
      <point x="205" y="1004" type="curve" smooth="yes"/>
      <point x="205" y="991"/>
      <point x="211" y="979"/>
      <point x="221" y="969" type="curve" smooth="yes"/>
      <point x="455" y="735" type="line" smooth="yes"/>
      <point x="465" y="725"/>
      <point x="477" y="719"/>
      <point x="489" y="719" type="curve" smooth="yes"/>
      <point x="514" y="719"/>
      <point x="543" y="748"/>
    </contour>
  </outline>
</glyph>
<glyph name="ydieresis" format="2">
  <advance width="819"/>
  <unicode hex="00FF"/>
  <outline>
    <contour>
      <point x="715" y="616" type="line" smooth="yes"/>
      <point x="717.063" y="620.975"/>
      <point x="717" y="625"/>
      <point x="717" y="629" type="curve" smooth="yes"/>
      <point x="717" y="651"/>
      <point x="707" y="668"/>
      <point x="684" y="678" type="curve"/>
      <point x="651" y="688"/>
      <point x="628.023" y="677.993"/>
      <point x="616" y="649" type="curve" smooth="yes"/>
      <point x="424" y="186" type="line"/>
      <point x="233" y="649" type="line" smooth="yes"/>
      <point x="221.031" y="678.015"/>
      <point x="199" y="688"/>
      <point x="166" y="678" type="curve"/>
      <point x="135" y="662"/>
      <point x="124.793" y="638.914"/>
      <point x="137" y="610" type="curve" smooth="yes"/>
      <point x="373" y="51" type="line"/>
      <point x="102" y="-592" type="line" smooth="yes"/>
      <point x="88.9445" y="-622.977"/>
      <point x="98.1885" y="-644.588"/>
      <point x="129" y="-659" type="curve" smooth="yes"/>
      <point x="160.195" y="-673.591"/>
      <point x="184.122" y="-664.052"/>
      <point x="197" y="-633" type="curve" smooth="yes"/>
    </contour>
    <contour>
      <point x="303" y="885" type="curve" smooth="yes"/>
      <point x="303" y="926"/>
      <point x="283" y="946"/>
      <point x="240" y="946" type="curve" smooth="yes"/>
      <point x="199" y="946"/>
      <point x="178" y="926"/>
      <point x="178" y="885" type="curve" smooth="yes"/>
      <point x="178" y="842"/>
      <point x="199" y="821"/>
      <point x="240" y="821" type="curve" smooth="yes"/>
      <point x="283" y="821"/>
      <point x="303" y="842"/>
    </contour>
    <contour>
      <point x="621" y="885" type="curve" smooth="yes"/>
      <point x="621" y="926"/>
      <point x="600" y="946"/>
      <point x="557" y="946" type="curve" smooth="yes"/>
      <point x="516" y="946"/>
      <point x="496" y="926"/>
      <point x="496" y="885" type="curve" smooth="yes"/>
      <point x="496" y="842"/>
      <point x="516" y="821"/>
      <point x="557" y="821" type="curve" smooth="yes"/>
      <point x="600" y="821"/>
      <point x="621" y="842"/>
    </contour>
  </outline>
</glyph>
<glyph name="uni1200" format="2">
  <advance width="900"/>
  <unicode hex="1200"/>
  <outline>
    <contour>
      <point x="310.962" y="72" type="curve" smooth="yes"/>
      <point x="396.485" y="72"/>
      <point x="535.254" y="218.704"/>
      <point x="632.306" y="448.604" type="curve" smooth="yes"/>
      <point x="703.156" y="616.437"/>
      <point x="755.066" y="867.546"/>
      <point x="718.762" y="1052.25" type="curve" smooth="yes"/>
      <point x="714.616" y="1073.34"/>
      <point x="707.198" y="1094.97"/>
      <point x="692.279" y="1122.16" type="curve" smooth="yes"/>
      <point x="669.829" y="1163.07"/>
      <point x="731.187" y="1196.76"/>
      <point x="753.645" y="1155.84" type="curve" smooth="yes"/>
      <point x="855.916" y="969.482"/>
      <point x="767.507" y="588.887"/>
      <point x="696.795" y="421.38" type="curve" smooth="yes"/>
      <point x="602.443" y="197.876"/>
      <point x="448.012" y="2"/>
      <point x="310.962" y="2" type="curve" smooth="yes"/>
      <point x="142.599" y="2"/>
      <point x="25.0045" y="159.695"/>
      <point x="54.553" y="318.406" type="curve"/>
      <point x="199.444" y="1090.69" type="line"/>
      <point x="207.948" y="1136.58"/>
      <point x="276.765" y="1123.77"/>
      <point x="268.262" y="1077.88" type="curve"/>
      <point x="123.371" y="305.594" type="line"/>
      <point x="101.709" y="189.244"/>
      <point x="186.389" y="72"/>
    </contour>
  </outline>
</glyph>
<glyph name="uni1201" format="2">
  <advance width="1291"/>
  <unicode hex="1201"/>
  <outline>
    <contour>
      <point x="310.961" y="72" type="curve" smooth="yes"/>
      <point x="396.496" y="72"/>
      <point x="535.257" y="218.712"/>
      <point x="632.305" y="448.604" type="curve" smooth="yes"/>
      <point x="703.167" y="616.465"/>
      <point x="755.062" y="867.555"/>
      <point x="718.761" y="1052.25" type="curve" smooth="yes"/>
      <point x="714.615" y="1073.34"/>
      <point x="707.197" y="1094.97"/>
      <point x="692.278" y="1122.16" type="curve" smooth="yes"/>
      <point x="669.827" y="1163.07"/>
      <point x="731.186" y="1196.76"/>
      <point x="753.644" y="1155.84" type="curve" smooth="yes"/>
      <point x="805.928" y="1060.57"/>
      <point x="808.374" y="914.425"/>
      <point x="788.807" y="771.998" type="curve"/>
      <point x="1156" y="772" type="line" smooth="yes"/>
      <point x="1175" y="772"/>
      <point x="1191" y="757"/>
      <point x="1191" y="738" type="curve" smooth="yes"/>
      <point x="1191" y="737" type="line" smooth="yes"/>
      <point x="1191" y="718"/>
      <point x="1175" y="702"/>
      <point x="1156" y="702" type="curve" smooth="yes"/>
      <point x="777.437" y="702.005" type="line"/>
      <point x="756.833" y="591.579"/>
      <point x="725.365" y="489.058"/>
      <point x="696.795" y="421.38" type="curve" smooth="yes"/>
      <point x="602.46" y="197.913"/>
      <point x="448.012" y="2"/>
      <point x="310.962" y="2" type="curve" smooth="yes"/>
      <point x="142.6" y="2"/>
      <point x="25.0075" y="159.71"/>
      <point x="54.553" y="318.406" type="curve"/>
      <point x="199.444" y="1090.69" type="line"/>
      <point x="207.948" y="1136.58"/>
      <point x="276.765" y="1123.77"/>
      <point x="268.262" y="1077.88" type="curve"/>
      <point x="123.371" y="305.594" type="line"/>
      <point x="101.715" y="189.275"/>
      <point x="186.374" y="72"/>
    </contour>
  </outline>
</glyph>
<glyph name="uni1202" format="2">
  <advance width="900"/>
  <unicode hex="1202"/>
  <outline>
    <contour>
      <point x="799.922" y="35" type="curve" smooth="yes"/>
      <point x="799.922" y="15"/>
      <point x="783.923" y="-1.04375"/>
      <point x="764.922" y="-1" type="curve" smooth="yes"/>
      <point x="331.922" y="0" type="line" smooth="yes"/>
      <point x="312.922" y="0.0438"/>
      <point x="295.922" y="15"/>
      <point x="295.922" y="35" type="curve"/>
      <point x="496.12" y="839.418" type="line"/>
      <point x="439.781" y="794.168"/>
      <point x="367.578" y="768"/>
      <point x="279.922" y="768" type="curve" smooth="yes"/>
      <point x="111.562" y="768"/>
      <point x="47.9205" y="914.247"/>
      <point x="50.0515" y="1075.67" type="curve" smooth="yes"/>
      <point x="53.388" y="1328.4" type="line" smooth="yes"/>
      <point x="54.0038" y="1375.06"/>
      <point x="124" y="1374.39"/>
      <point x="123.384" y="1327.74" type="curve" smooth="yes"/>
      <point x="120.048" y="1075" type="line" smooth="yes"/>
      <point x="118.487" y="956.73"/>
      <point x="155.335" y="838"/>
      <point x="279.922" y="838" type="curve" smooth="yes"/>
      <point x="416.974" y="838"/>
      <point x="491.184" y="889.36"/>
      <point x="541.307" y="1020.99" type="curve"/>
      <point x="628.922" y="1373" type="line" smooth="yes"/>
      <point x="633.433" y="1391.12"/>
      <point x="651.946" y="1403.15"/>
      <point x="670.922" y="1399" type="curve" smooth="yes"/>
      <point x="683.954" y="1396.15"/>
      <point x="699.883" y="1385.01"/>
      <point x="696.923" y="1373" type="curve" smooth="yes"/>
      <point x="375.923" y="71" type="line"/>
      <point x="764.923" y="70" type="line" smooth="yes"/>
      <point x="783.923" y="69.9513"/>
      <point x="799.923" y="54"/>
    </contour>
  </outline>
</glyph>
<glyph name="uni1204" format="2">
  <advance width="799"/>
  <unicode hex="1204"/>
  <outline>
    <contour>
      <point x="697.74" y="1360.19" type="curve" smooth="yes"/>
      <point x="440.922" y="324" type="line"/>
      <point x="464.922" y="337"/>
      <point x="491.922" y="344"/>
      <point x="520.922" y="344" type="curve" smooth="yes"/>
      <point x="615.922" y="344"/>
      <point x="692.922" y="267"/>
      <point x="692.922" y="172" type="curve" smooth="yes"/>
      <point x="692.922" y="77"/>
      <point x="615.922" y="0"/>
      <point x="520.922" y="0" type="curve" smooth="yes"/>
      <point x="461.922" y="0"/>
      <point x="408.922" y="30"/>
      <point x="377.922" y="76" type="curve"/>
      <point x="335.529" y="119.241"/>
      <point x="345.098" y="214.937"/>
      <point x="348.729" y="243.089" type="curve" smooth="yes"/>
      <point x="349.051" y="245.586"/>
      <point x="349.237" y="248.24"/>
      <point x="349.923" y="251" type="curve" smooth="yes"/>
      <point x="496.12" y="839.418" type="line"/>
      <point x="439.781" y="794.168"/>
      <point x="367.579" y="768"/>
      <point x="279.923" y="768" type="curve" smooth="yes"/>
      <point x="111.563" y="768"/>
      <point x="47.9205" y="914.247"/>
      <point x="50.0515" y="1075.67" type="curve" smooth="yes"/>
      <point x="53.388" y="1328.4" type="line" smooth="yes"/>
      <point x="54.0038" y="1375.06"/>
      <point x="124" y="1374.39"/>
      <point x="123.384" y="1327.74" type="curve" smooth="yes"/>
      <point x="120.048" y="1075" type="line" smooth="yes"/>
      <point x="118.487" y="956.738"/>
      <point x="155.338" y="838"/>
      <point x="279.923" y="838" type="curve" smooth="yes"/>
      <point x="416.971" y="838"/>
      <point x="491.184" y="889.36"/>
      <point x="541.307" y="1020.99" type="curve"/>
      <point x="628.922" y="1373" type="line" smooth="yes"/>
      <point x="640.194" y="1418.29"/>
      <point x="708.971" y="1405.5"/>
    </contour>
    <contour>
      <point x="622.922" y="172" type="curve" smooth="yes"/>
      <point x="622.922" y="229"/>
      <point x="576.922" y="274"/>
      <point x="520.922" y="274" type="curve" smooth="yes"/>
      <point x="464.922" y="274"/>
      <point x="418.922" y="229"/>
      <point x="418.922" y="172" type="curve" smooth="yes"/>
      <point x="418.922" y="116"/>
      <point x="464.922" y="71"/>
      <point x="520.922" y="71" type="curve" smooth="yes"/>
      <point x="576.922" y="71"/>
      <point x="622.922" y="116"/>
    </contour>
  </outline>
</glyph>
<glyph name="uni1205" format="2">
  <advance width="1028"/>
  <unicode hex="1205"/>
  <outline>
    <contour>
      <point x="881.278" y="1153.84" type="curve" smooth="yes"/>
      <point x="983.532" y="967.504"/>
      <point x="895.149" y="586.911"/>
      <point x="824.428" y="419.38" type="curve" smooth="yes"/>
      <point x="730.093" y="195.907"/>
      <point x="575.643" y="0"/>
      <point x="438.595" y="0" type="curve" smooth="yes"/>
      <point x="270.235" y="0"/>
      <point x="150.958" y="158.003"/>
      <point x="182.187" y="316.406" type="curve" smooth="yes"/>
      <point x="240.358" y="611.469" type="line"/>
      <point x="85.0365" y="611.463" type="line"/>
      <point x="65.7068" y="611.463"/>
      <point x="50.0313" y="627.132"/>
      <point x="50.0313" y="646.461" type="curve" smooth="yes"/>
      <point x="50.0313" y="648.859"/>
      <point x="49.8603" y="651.217"/>
      <point x="50.3195" y="653.479" type="curve"/>
      <point x="94.0447" y="945.642" type="line" smooth="yes"/>
      <point x="100.944" y="991.742"/>
      <point x="170.181" y="981.443"/>
      <point x="163.274" y="935.281" type="curve" smooth="yes"/>
      <point x="125.293" y="681.461" type="line"/>
      <point x="273.011" y="681.461" type="line" smooth="yes"/>
      <point x="301.636" y="681.461"/>
      <point x="322.178" y="666.83"/>
      <point x="315.953" y="635.062" type="curve" smooth="yes"/>
      <point x="251.004" y="303.594" type="line" smooth="yes"/>
      <point x="228.264" y="187.543"/>
      <point x="313.995" y="70"/>
      <point x="438.595" y="70" type="curve" smooth="yes"/>
      <point x="524.139" y="70"/>
      <point x="662.886" y="216.691"/>
      <point x="759.939" y="446.604" type="curve" smooth="yes"/>
      <point x="830.809" y="614.491"/>
      <point x="882.7" y="865.51"/>
      <point x="846.395" y="1050.25" type="curve" smooth="yes"/>
      <point x="842.249" y="1071.35"/>
      <point x="834.827" y="1092.98"/>
      <point x="819.912" y="1120.16" type="curve" smooth="yes"/>
      <point x="797.458" y="1161.09"/>
      <point x="858.811" y="1194.78"/>
    </contour>
  </outline>
</glyph>
<glyph name="uni1206" format="2">
  <advance width="1184"/>
  <unicode hex="1206"/>
  <outline>
    <contour>
      <point x="310.928" y="72" type="curve" smooth="yes"/>
      <point x="396.473" y="72"/>
      <point x="535.257" y="218.786"/>
      <point x="632.272" y="448.604" type="curve" smooth="yes"/>
      <point x="689.557" y="584.306"/>
      <point x="729.591" y="783.448"/>
      <point x="729.776" y="948.98" type="curve" smooth="yes"/>
      <point x="729.966" y="1118" type="line" smooth="yes"/>
      <point x="730.073" y="1213"/>
      <point x="816.966" y="1290"/>
      <point x="911.966" y="1290" type="curve" smooth="yes"/>
      <point x="1006.97" y="1290"/>
      <point x="1083.97" y="1213"/>
      <point x="1083.97" y="1118" type="curve" smooth="yes"/>
      <point x="1083.97" y="1023"/>
      <point x="1006.97" y="946"/>
      <point x="911.966" y="946" type="curve" smooth="yes"/>
      <point x="868.966" y="946"/>
      <point x="827.241" y="967.983"/>
      <point x="797.241" y="992.983" type="curve"/>
      <point x="814.297" y="798.424"/>
      <point x="750.42" y="548.492"/>
      <point x="696.761" y="421.38" type="curve" smooth="yes"/>
      <point x="602.424" y="197.906"/>
      <point x="447.977" y="2"/>
      <point x="310.928" y="2" type="curve" smooth="yes"/>
      <point x="142.567" y="2"/>
      <point x="25.1068" y="159.685"/>
      <point x="54.5193" y="318.406" type="curve"/>
      <point x="199.411" y="1090.69" type="line"/>
      <point x="207.914" y="1136.58"/>
      <point x="276.731" y="1123.77"/>
      <point x="268.228" y="1077.88" type="curve"/>
      <point x="123.337" y="305.594" type="line"/>
      <point x="101.798" y="189.359"/>
      <point x="186.328" y="72"/>
    </contour>
    <contour>
      <point x="1013.97" y="1118" type="curve" smooth="yes"/>
      <point x="1013.97" y="1174"/>
      <point x="967.966" y="1220"/>
      <point x="911.966" y="1220" type="curve" smooth="yes"/>
      <point x="855.966" y="1220"/>
      <point x="809.966" y="1174"/>
      <point x="809.966" y="1118" type="curve" smooth="yes"/>
      <point x="809.966" y="1062"/>
      <point x="855.966" y="1016"/>
      <point x="911.966" y="1016" type="curve" smooth="yes"/>
      <point x="967.966" y="1016"/>
      <point x="1013.97" y="1062"/>
    </contour>
  </outline>
</glyph>
<glyph name="uni1207" format="2">
  <advance width="1502"/>
  <unicode hex="1207"/>
  <outline>
    <contour>
      <point x="1401.6" y="1118" type="curve" smooth="yes"/>
      <point x="1401.6" y="1023"/>
      <point x="1324.56" y="945.971"/>
      <point x="1229.56" y="945.971" type="curve" smooth="yes"/>
      <point x="1186.56" y="945.971"/>
      <point x="1144.88" y="968.075"/>
      <point x="1114.88" y="993.075" type="curve"/>
      <point x="1131.93" y="798.517"/>
      <point x="1067.97" y="548.575"/>
      <point x="1014.32" y="421.479" type="curve" smooth="yes"/>
      <point x="919.99" y="198.021"/>
      <point x="765.525" y="2.04805"/>
      <point x="628.477" y="2.04805" type="curve" smooth="yes"/>
      <point x="460.116" y="2.04805"/>
      <point x="342.281" y="159.813"/>
      <point x="372.067" y="318.464" type="curve" smooth="yes"/>
      <point x="437.308" y="665.961" type="line"/>
      <point x="78.9983" y="574.669" type="line" smooth="yes"/>
      <point x="59.6198" y="569.732"/>
      <point x="47.2321" y="596.508"/>
      <point x="50.5311" y="615.219" type="curve" smooth="yes"/>
      <point x="53.8301" y="633.93"/>
      <point x="72.7571" y="638.663"/>
      <point x="91.0816" y="643.687" type="curve" smooth="yes"/>
      <point x="451.677" y="742.539" type="line"/>
      <point x="517.066" y="1090.76" type="line" smooth="yes"/>
      <point x="525.678" y="1136.63"/>
      <point x="594.49" y="1123.73"/>
      <point x="585.878" y="1077.86" type="curve" smooth="yes"/>
      <point x="440.88" y="305.562" type="line" smooth="yes"/>
      <point x="419.066" y="189.374"/>
      <point x="503.877" y="72.0895"/>
      <point x="628.477" y="72.0895" type="curve" smooth="yes"/>
      <point x="714.021" y="72.0895"/>
      <point x="852.794" y="218.695"/>
      <point x="949.808" y="448.512" type="curve" smooth="yes"/>
      <point x="1007.1" y="584.221"/>
      <point x="1047.09" y="783.515"/>
      <point x="1047.29" y="949.043" type="curve" smooth="yes"/>
      <point x="1047.5" y="1118" type="line" smooth="yes"/>
      <point x="1047.61" y="1213"/>
      <point x="1134.56" y="1290.04"/>
      <point x="1229.56" y="1290.04" type="curve" smooth="yes"/>
      <point x="1324.56" y="1290.04"/>
      <point x="1401.6" y="1213"/>
    </contour>
    <contour>
      <point x="1331.56" y="1118" type="curve" smooth="yes"/>
      <point x="1331.56" y="1174"/>
      <point x="1285.56" y="1219.99"/>
      <point x="1229.56" y="1219.99" type="curve" smooth="yes"/>
      <point x="1173.56" y="1219.99"/>
      <point x="1127.57" y="1174"/>
      <point x="1127.57" y="1118" type="curve" smooth="yes"/>
      <point x="1127.57" y="1062"/>
      <point x="1173.56" y="1016.01"/>
      <point x="1229.56" y="1016.01" type="curve" smooth="yes"/>
      <point x="1285.56" y="1016.01"/>
      <point x="1331.56" y="1062"/>
    </contour>
  </outline>
</glyph>
<glyph name="uni1208" format="2">
  <advance width="822"/>
  <unicode hex="1208"/>
  <outline>
    <contour>
      <point x="722.001" y="35" type="line" smooth="yes"/>
      <point x="722.001" y="16"/>
      <point x="706.001" y="0"/>
      <point x="687.001" y="0" type="curve" smooth="yes"/>
      <point x="667.001" y="0"/>
      <point x="652.001" y="16"/>
      <point x="652.001" y="35" type="curve" smooth="yes"/>
      <point x="652.001" y="800" type="line" smooth="yes"/>
      <point x="652.001" y="979.002"/>
      <point x="508.001" y="1153"/>
      <point x="508.001" y="1153" type="curve"/>
      <point x="101.186" y="930"/>
      <point x="126.011" y="722.158"/>
      <point x="120.001" y="35" type="curve" smooth="yes"/>
      <point x="119.835" y="16"/>
      <point x="104.001" y="0"/>
      <point x="85.0012" y="0" type="curve" smooth="yes"/>
      <point x="66.0012" y="0"/>
      <point x="49.841" y="16"/>
      <point x="50.0012" y="35" type="curve" smooth="yes"/>
      <point x="55.4812" y="684.451"/>
      <point x="21.1857" y="982"/>
      <point x="469.001" y="1205" type="curve"/>
      <point x="469.001" y="1205"/>
      <point x="440.089" y="1259.08"/>
      <point x="388.001" y="1325" type="curve" smooth="yes"/>
      <point x="376.093" y="1340.07"/>
      <point x="379.001" y="1362"/>
      <point x="394.001" y="1374" type="curve" smooth="yes"/>
      <point x="409.001" y="1386"/>
      <point x="430.069" y="1384.06"/>
      <point x="443.001" y="1368" type="curve" smooth="yes"/>
      <point x="612.086" y="1158.04"/>
      <point x="722.001" y="945"/>
      <point x="722.001" y="835" type="curve" smooth="yes"/>
    </contour>
  </outline>
</glyph>
<glyph name="uni1209" format="2">
  <advance width="1254"/>
  <unicode hex="1209"/>
  <outline>
    <contour>
      <point x="1154.14" y="709.868" type="line"/>
      <point x="1155.88" y="689.943"/>
      <point x="1141.24" y="673.654"/>
      <point x="1122.32" y="671.95" type="curve" smooth="yes"/>
      <point x="725.918" y="636.265" type="line"/>
      <point x="722.001" y="35" type="line" smooth="yes"/>
      <point x="721.878" y="16"/>
      <point x="706.001" y="0"/>
      <point x="687.001" y="0" type="curve" smooth="yes"/>
      <point x="667.001" y="0"/>
      <point x="652.001" y="16"/>
      <point x="652.001" y="35" type="curve" smooth="yes"/>
      <point x="652.001" y="800" type="line" smooth="yes"/>
      <point x="652.001" y="979.002"/>
      <point x="508.001" y="1153"/>
      <point x="508.001" y="1153" type="curve"/>
      <point x="101.186" y="930"/>
      <point x="126.011" y="722.15"/>
      <point x="120.001" y="35" type="curve" smooth="yes"/>
      <point x="119.835" y="16"/>
      <point x="104.001" y="0"/>
      <point x="85.0013" y="0" type="curve" smooth="yes"/>
      <point x="66.0013" y="0"/>
      <point x="49.8411" y="16"/>
      <point x="50.0013" y="35" type="curve" smooth="yes"/>
      <point x="55.481" y="684.443"/>
      <point x="21.1858" y="982"/>
      <point x="469.001" y="1205" type="curve"/>
      <point x="469.001" y="1205"/>
      <point x="440.089" y="1259.07"/>
      <point x="388.001" y="1325" type="curve" smooth="yes"/>
      <point x="376.093" y="1340.07"/>
      <point x="379.001" y="1362"/>
      <point x="394.001" y="1374" type="curve" smooth="yes"/>
      <point x="409.001" y="1386"/>
      <point x="430.07" y="1384.06"/>
      <point x="443.001" y="1368" type="curve" smooth="yes"/>
      <point x="612.066" y="1158.06"/>
      <point x="723.953" y="944.99"/>
      <point x="722.001" y="835" type="curve" smooth="yes"/>
      <point x="719.73" y="706.995" type="line"/>
      <point x="1116.22" y="741.684" type="line" smooth="yes"/>
      <point x="1135.15" y="743.34"/>
      <point x="1152.48" y="728.796"/>
      <point x="1154.05" y="710.864" type="curve"/>
    </contour>
  </outline>
</glyph>
<glyph name="uni120A" format="2">
  <advance width="1254"/>
  <unicode hex="120A"/>
  <outline>
    <contour>
      <point x="1154" y="35" type="curve" smooth="yes"/>
      <point x="1154" y="16"/>
      <point x="1139" y="0"/>
      <point x="1119" y="0" type="curve" smooth="yes"/>
      <point x="685.001" y="0" type="line" smooth="yes"/>
      <point x="666" y="0"/>
      <point x="651" y="16"/>
      <point x="651" y="35" type="curve" smooth="yes"/>
      <point x="651" y="800" type="line" smooth="yes"/>
      <point x="651" y="979.002"/>
      <point x="508" y="1153"/>
      <point x="508" y="1153" type="curve"/>
      <point x="101.185" y="930"/>
      <point x="126.009" y="722.143"/>
      <point x="120" y="35" type="curve" smooth="yes"/>
      <point x="119.834" y="16"/>
      <point x="104" y="0"/>
      <point x="85" y="0" type="curve" smooth="yes"/>
      <point x="66" y="0"/>
      <point x="49.8398" y="16"/>
      <point x="50" y="35" type="curve" smooth="yes"/>
      <point x="55.4798" y="684.466"/>
      <point x="21.1845" y="982"/>
      <point x="469" y="1205" type="curve"/>
      <point x="469" y="1205"/>
      <point x="439.088" y="1259.07"/>
      <point x="387" y="1325" type="curve" smooth="yes"/>
      <point x="375.092" y="1340.07"/>
      <point x="378" y="1362"/>
      <point x="393" y="1374" type="curve" smooth="yes"/>
      <point x="408" y="1386"/>
      <point x="429.069" y="1384.06"/>
      <point x="442" y="1368" type="curve" smooth="yes"/>
      <point x="611.065" y="1158.06"/>
      <point x="721" y="945"/>
      <point x="721" y="835" type="curve" smooth="yes"/>
      <point x="721" y="70" type="line"/>
      <point x="1119" y="70" type="line" smooth="yes"/>
      <point x="1138" y="70"/>
      <point x="1154" y="54"/>
    </contour>
  </outline>
</glyph>
<glyph name="uni120C" format="2">
  <advance width="1106"/>
  <unicode hex="120C"/>
  <outline>
    <contour>
      <point x="1006" y="172" type="curve" smooth="yes"/>
      <point x="1006" y="77"/>
      <point x="929.001" y="0"/>
      <point x="834.001" y="0" type="curve" smooth="yes"/>
      <point x="739.001" y="0"/>
      <point x="652.001" y="77"/>
      <point x="652.001" y="172" type="curve" smooth="yes"/>
      <point x="652.001" y="800" type="line" smooth="yes"/>
      <point x="652.001" y="979"/>
      <point x="508.001" y="1153"/>
      <point x="508.001" y="1153" type="curve"/>
      <point x="101.186" y="930"/>
      <point x="126.01" y="722.165"/>
      <point x="120.001" y="35" type="curve" smooth="yes"/>
      <point x="119.835" y="16"/>
      <point x="104.001" y="0"/>
      <point x="85.0012" y="0" type="curve" smooth="yes"/>
      <point x="66.0012" y="0"/>
      <point x="49.841" y="16"/>
      <point x="50.0012" y="35" type="curve" smooth="yes"/>
      <point x="55.4807" y="684.458"/>
      <point x="21.1857" y="982"/>
      <point x="469.001" y="1205" type="curve"/>
      <point x="469.001" y="1205"/>
      <point x="440.088" y="1259.08"/>
      <point x="388.001" y="1325" type="curve" smooth="yes"/>
      <point x="376.094" y="1340.07"/>
      <point x="379.001" y="1362"/>
      <point x="394.001" y="1374" type="curve" smooth="yes"/>
      <point x="409.001" y="1386"/>
      <point x="430.069" y="1384.06"/>
      <point x="443.001" y="1368" type="curve" smooth="yes"/>
      <point x="612.065" y="1158.06"/>
      <point x="722.001" y="945"/>
      <point x="722.001" y="835" type="curve" smooth="yes"/>
      <point x="722.001" y="303" type="line"/>
      <point x="752.001" y="328"/>
      <point x="791.001" y="344"/>
      <point x="834.001" y="344" type="curve" smooth="yes"/>
      <point x="929.001" y="344"/>
      <point x="1006" y="267"/>
    </contour>
    <contour>
      <point x="936.001" y="172" type="curve" smooth="yes"/>
      <point x="936.001" y="228"/>
      <point x="890.001" y="274"/>
      <point x="834.001" y="274" type="curve" smooth="yes"/>
      <point x="778.001" y="274"/>
      <point x="732.001" y="228"/>
      <point x="732.001" y="172" type="curve" smooth="yes"/>
      <point x="732.001" y="116"/>
      <point x="778.001" y="70"/>
      <point x="834.001" y="70" type="curve" smooth="yes"/>
      <point x="890.001" y="70"/>
      <point x="936.001" y="116"/>
    </contour>
  </outline>
</glyph>
<glyph name="uni120E" format="2">
  <advance width="1426"/>
  <unicode hex="120E"/>
  <outline>
    <contour>
      <point x="1325.39" y="909.538" type="curve" smooth="yes"/>
      <point x="1333.67" y="814.899"/>
      <point x="1263.68" y="731.48"/>
      <point x="1169.04" y="723.2" type="curve" smooth="yes"/>
      <point x="1074.4" y="714.92"/>
      <point x="990.982" y="784.917"/>
      <point x="982.702" y="879.556" type="curve" smooth="yes"/>
      <point x="980" y="910.438"/>
      <point x="991.009" y="979.661"/>
      <point x="1018.5" y="998.128" type="curve"/>
      <point x="691" y="973" type="line"/>
      <point x="724.214" y="911.779"/>
      <point x="721.001" y="875.872"/>
      <point x="721.001" y="835" type="curve" smooth="yes"/>
      <point x="721.001" y="35" type="line" smooth="yes"/>
      <point x="721.001" y="16"/>
      <point x="705.001" y="0"/>
      <point x="686.001" y="0" type="curve" smooth="yes"/>
      <point x="666.001" y="0"/>
      <point x="651.001" y="16"/>
      <point x="651.001" y="35" type="curve" smooth="yes"/>
      <point x="651.001" y="800" type="line" smooth="yes"/>
      <point x="651.001" y="914.081"/>
      <point x="566.172" y="1082.72"/>
      <point x="508.001" y="1153" type="curve"/>
      <point x="101.186" y="930"/>
      <point x="126.01" y="722.165"/>
      <point x="120.001" y="35" type="curve" smooth="yes"/>
      <point x="119.835" y="16"/>
      <point x="104.001" y="0"/>
      <point x="85.0013" y="0" type="curve" smooth="yes"/>
      <point x="66.0013" y="0"/>
      <point x="49.841" y="16"/>
      <point x="50.0012" y="35" type="curve" smooth="yes"/>
      <point x="55.4807" y="684.458"/>
      <point x="21.1857" y="982"/>
      <point x="469.001" y="1205" type="curve"/>
      <point x="469.001" y="1205"/>
      <point x="439.087" y="1259.08"/>
      <point x="387.001" y="1325" type="curve" smooth="yes"/>
      <point x="375.094" y="1340.07"/>
      <point x="378.001" y="1362"/>
      <point x="393.001" y="1374" type="curve" smooth="yes"/>
      <point x="408.001" y="1386"/>
      <point x="429.069" y="1384.06"/>
      <point x="442.001" y="1368" type="curve" smooth="yes"/>
      <point x="526.916" y="1262.55"/>
      <point x="595.387" y="1128.96"/>
      <point x="652" y="1040" type="curve"/>
      <point x="1138.19" y="1075.86" type="line" smooth="yes"/>
      <point x="1232.92" y="1082.84"/>
      <point x="1317.11" y="1004.18"/>
    </contour>
    <contour>
      <point x="1254.66" y="903.35" type="curve" smooth="yes"/>
      <point x="1249.7" y="960.133"/>
      <point x="1200.95" y="1001.04"/>
      <point x="1145.16" y="996.159" type="curve" smooth="yes"/>
      <point x="1088.37" y="991.191"/>
      <point x="1047.47" y="942.44"/>
      <point x="1052.44" y="885.656" type="curve" smooth="yes"/>
      <point x="1057.32" y="829.869"/>
      <point x="1106.07" y="788.962"/>
      <point x="1162.85" y="793.93" type="curve" smooth="yes"/>
      <point x="1218.64" y="798.811"/>
      <point x="1259.55" y="847.562"/>
    </contour>
  </outline>
</glyph>
<glyph name="uni120F" format="2">
  <advance width="1243"/>
  <unicode hex="120F"/>
  <outline>
    <contour>
      <point x="1143.02" y="213.197" type="line" smooth="yes"/>
      <point x="1143.02" y="194.197"/>
      <point x="1127.01" y="178.147"/>
      <point x="1108" y="178.176" type="curve" smooth="yes"/>
      <point x="307.44" y="179.405" type="line" smooth="yes"/>
      <point x="288.432" y="179.434"/>
      <point x="272.419" y="195.425"/>
      <point x="272.419" y="214.425" type="curve" smooth="yes"/>
      <point x="272.419" y="215.449" type="line" smooth="yes"/>
      <point x="272.419" y="234.449"/>
      <point x="288.44" y="249.495"/>
      <point x="307.44" y="249.446" type="curve" smooth="yes"/>
      <point x="649.251" y="248.578" type="line"/>
      <point x="649.251" y="799.949" type="line" smooth="yes"/>
      <point x="649.251" y="978.952"/>
      <point x="505.276" y="1153.02"/>
      <point x="505.276" y="1153.02" type="curve"/>
      <point x="177.023" y="973.089"/>
      <point x="129.579" y="802.879"/>
      <point x="120.662" y="382.976" type="curve" smooth="yes"/>
      <point x="120.259" y="363.979"/>
      <point x="104.641" y="347.955"/>
      <point x="85.6414" y="347.955" type="curve" smooth="yes"/>
      <point x="66.6414" y="347.955"/>
      <point x="49.6299" y="367.051"/>
      <point x="50.0061" y="386.048" type="curve" smooth="yes"/>
      <point x="58.2258" y="800.996"/>
      <point x="108.5" y="1026.84"/>
      <point x="466.364" y="1205.04" type="curve"/>
      <point x="466.364" y="1205.04"/>
      <point x="437.349" y="1259.13"/>
      <point x="385.264" y="1325.06" type="curve" smooth="yes"/>
      <point x="373.356" y="1340.13"/>
      <point x="376.408" y="1362"/>
      <point x="391.408" y="1374" type="curve" smooth="yes"/>
      <point x="406.408" y="1386"/>
      <point x="427.423" y="1384.12"/>
      <point x="440.355" y="1368.06" type="curve" smooth="yes"/>
      <point x="609.42" y="1158.12"/>
      <point x="719.292" y="944.974"/>
      <point x="719.292" y="834.969" type="curve" smooth="yes"/>
      <point x="719.292" y="248.414" type="line"/>
      <point x="1108" y="248.217" type="line" smooth="yes"/>
      <point x="1127" y="248.208"/>
      <point x="1143.02" y="233.221"/>
      <point x="1143.02" y="214.221" type="curve" smooth="yes"/>
    </contour>
  </outline>
</glyph>
<glyph name="uni1210" format="2">
  <advance width="1118"/>
  <unicode hex="1210"/>
  <outline>
    <contour>
      <point x="468.18" y="40.6283" type="line" smooth="yes"/>
      <point x="466.524" y="21.7008"/>
      <point x="481.089" y="4.36175"/>
      <point x="499.996" y="2.71075" type="curve"/>
      <point x="500.993" y="2.62375" type="line"/>
      <point x="519.9" y="0.97275"/>
      <point x="537.254" y="15.5127"/>
      <point x="538.91" y="34.4402" type="curve" smooth="yes"/>
      <point x="603.407" y="771.629" type="line"/>
      <point x="696.179" y="774" type="line" smooth="yes"/>
      <point x="879.476" y="778.685"/>
      <point x="948.179" y="746.007"/>
      <point x="948.179" y="582" type="curve" smooth="yes"/>
      <point x="948.179" y="35" type="line" smooth="yes"/>
      <point x="948.179" y="16"/>
      <point x="963.179" y="0"/>
      <point x="983.179" y="0" type="curve" smooth="yes"/>
      <point x="1002.18" y="0"/>
      <point x="1018.18" y="16"/>
      <point x="1018.18" y="35" type="curve" smooth="yes"/>
      <point x="1018.18" y="613" type="line" smooth="yes"/>
      <point x="1018.18" y="819.005"/>
      <point x="873.025" y="852.683"/>
      <point x="694.179" y="845" type="curve" smooth="yes"/>
      <point x="609.508" y="841.363" type="line"/>
      <point x="655.179" y="1363.37" type="line" smooth="yes"/>
      <point x="656.835" y="1382.3"/>
      <point x="642.27" y="1399.64"/>
      <point x="623.363" y="1401.29" type="curve"/>
      <point x="622.366" y="1401.38" type="line"/>
      <point x="603.459" y="1403.03"/>
      <point x="586.105" y="1388.49"/>
      <point x="584.449" y="1369.56" type="curve" smooth="yes"/>
      <point x="538.778" y="847.551" type="line"/>
      <point x="198.588" y="847.551"/>
      <point x="43.8981" y="591.367"/>
      <point x="50.1839" y="34.13" type="curve" smooth="yes"/>
      <point x="50.7099" y="-12.509"/>
      <point x="120.705" y="-11.7182"/>
      <point x="120.179" y="34.9196" type="curve" smooth="yes"/>
      <point x="113.985" y="584.078"/>
      <point x="246.529" y="777.817"/>
      <point x="532.677" y="777.817" type="curve"/>
    </contour>
  </outline>
</glyph>
<glyph name="uni1211" format="2">
  <advance width="1551"/>
  <unicode hex="1211"/>
  <outline>
    <contour>
      <point x="468.18" y="40.6283" type="line" smooth="yes"/>
      <point x="466.524" y="21.7008"/>
      <point x="481.077" y="4.36275"/>
      <point x="499.996" y="2.71075" type="curve"/>
      <point x="500.993" y="2.62375" type="line"/>
      <point x="519.912" y="0.971751"/>
      <point x="537.254" y="15.5128"/>
      <point x="538.91" y="34.4403" type="curve" smooth="yes"/>
      <point x="603.407" y="771.629" type="line"/>
      <point x="696.179" y="774" type="line" smooth="yes"/>
      <point x="879.284" y="778.68"/>
      <point x="948.179" y="746.007"/>
      <point x="948.179" y="582" type="curve" smooth="yes"/>
      <point x="948.179" y="35" type="line" smooth="yes"/>
      <point x="948.179" y="16"/>
      <point x="963.179" y="0"/>
      <point x="983.179" y="0" type="curve" smooth="yes"/>
      <point x="1002.18" y="0"/>
      <point x="1018.18" y="16"/>
      <point x="1018.18" y="35" type="curve" smooth="yes"/>
      <point x="1018.18" y="467" type="line"/>
      <point x="1416.18" y="468" type="line" smooth="yes"/>
      <point x="1435.18" y="468.047"/>
      <point x="1451.18" y="483"/>
      <point x="1451.18" y="503" type="curve" smooth="yes"/>
      <point x="1451.18" y="504" type="line" smooth="yes"/>
      <point x="1451.18" y="523"/>
      <point x="1435.18" y="538"/>
      <point x="1416.18" y="538" type="curve" smooth="yes"/>
      <point x="1018.18" y="538" type="line"/>
      <point x="1018.18" y="613" type="line" smooth="yes"/>
      <point x="1018.18" y="819"/>
      <point x="873.025" y="852.683"/>
      <point x="694.179" y="845" type="curve" smooth="yes"/>
      <point x="609.508" y="841.363" type="line"/>
      <point x="655.179" y="1363.37" type="line" smooth="yes"/>
      <point x="656.835" y="1382.3"/>
      <point x="642.282" y="1399.64"/>
      <point x="623.363" y="1401.29" type="curve"/>
      <point x="622.366" y="1401.38" type="line"/>
      <point x="603.447" y="1403.03"/>
      <point x="586.105" y="1388.49"/>
      <point x="584.449" y="1369.56" type="curve" smooth="yes"/>
      <point x="538.778" y="847.551" type="line"/>
      <point x="198.596" y="847.551"/>
      <point x="43.8986" y="591.352"/>
      <point x="50.1839" y="34.13" type="curve" smooth="yes"/>
      <point x="50.7099" y="-12.5037"/>
      <point x="120.705" y="-11.7155"/>
      <point x="120.179" y="34.9195" type="curve" smooth="yes"/>
      <point x="113.985" y="584.092"/>
      <point x="246.522" y="777.817"/>
      <point x="532.677" y="777.817" type="curve"/>
    </contour>
  </outline>
</glyph>
<glyph name="uni1212" format="2">
  <advance width="1551"/>
  <unicode hex="1212"/>
  <outline>
    <contour>
      <point x="468.18" y="40.6283" type="line" smooth="yes"/>
      <point x="466.524" y="21.7008"/>
      <point x="481.076" y="4.363"/>
      <point x="499.996" y="2.7107" type="curve"/>
      <point x="500.993" y="2.6237" type="line"/>
      <point x="519.913" y="0.971401"/>
      <point x="537.254" y="15.5127"/>
      <point x="538.91" y="34.4402" type="curve" smooth="yes"/>
      <point x="603.407" y="771.629" type="line"/>
      <point x="696.179" y="774" type="line" smooth="yes"/>
      <point x="879.268" y="778.68"/>
      <point x="948.179" y="746.007"/>
      <point x="948.179" y="582" type="curve" smooth="yes"/>
      <point x="948.179" y="35" type="line" smooth="yes"/>
      <point x="948.179" y="16"/>
      <point x="962.179" y="0"/>
      <point x="982.179" y="0" type="curve" smooth="yes"/>
      <point x="1416.18" y="0" type="line" smooth="yes"/>
      <point x="1435.18" y="0"/>
      <point x="1451.18" y="16"/>
      <point x="1451.18" y="35" type="curve" smooth="yes"/>
      <point x="1451.18" y="55"/>
      <point x="1435.18" y="70"/>
      <point x="1416.18" y="70" type="curve" smooth="yes"/>
      <point x="1018.18" y="70" type="line"/>
      <point x="1018.18" y="613" type="line" smooth="yes"/>
      <point x="1018.18" y="819.009"/>
      <point x="873.025" y="852.683"/>
      <point x="694.179" y="845" type="curve" smooth="yes"/>
      <point x="609.508" y="841.363" type="line"/>
      <point x="655.179" y="1363.37" type="line" smooth="yes"/>
      <point x="656.835" y="1382.3"/>
      <point x="642.283" y="1399.64"/>
      <point x="623.363" y="1401.29" type="curve"/>
      <point x="622.366" y="1401.38" type="line"/>
      <point x="603.446" y="1403.03"/>
      <point x="586.105" y="1388.49"/>
      <point x="584.449" y="1369.56" type="curve" smooth="yes"/>
      <point x="538.778" y="847.551" type="line"/>
      <point x="198.596" y="847.551"/>
      <point x="43.8987" y="591.352"/>
      <point x="50.1839" y="34.1301" type="curve" smooth="yes"/>
      <point x="50.7099" y="-12.5036"/>
      <point x="120.705" y="-11.7154"/>
      <point x="120.179" y="34.9196" type="curve" smooth="yes"/>
      <point x="113.985" y="584.092"/>
      <point x="246.522" y="777.817"/>
      <point x="532.677" y="777.817" type="curve"/>
    </contour>
  </outline>
</glyph>
<glyph name="uni1213" format="2">
  <advance width="1100"/>
  <unicode hex="1213"/>
  <outline>
    <contour>
      <point x="115.137" y="421.511" type="curve"/>
      <point x="168.022" y="679.259"/>
      <point x="294.136" y="778.491"/>
      <point x="498.936" y="778.491" type="curve"/>
      <point x="465.381" y="394.954" type="line" smooth="yes"/>
      <point x="463.723" y="376.002"/>
      <point x="478.291" y="358.687"/>
      <point x="497.197" y="357.036" type="curve"/>
      <point x="498.194" y="356.949" type="line"/>
      <point x="517.099" y="355.298"/>
      <point x="534.453" y="369.814"/>
      <point x="536.111" y="388.766" type="curve" smooth="yes"/>
      <point x="569.667" y="772.303" type="line"/>
      <point x="677.91" y="774" type="line" smooth="yes"/>
      <point x="860.917" y="776.869"/>
      <point x="929.91" y="746.007"/>
      <point x="929.91" y="582" type="curve" smooth="yes"/>
      <point x="929.91" y="35" type="line" smooth="yes"/>
      <point x="929.91" y="16"/>
      <point x="944.91" y="0"/>
      <point x="964.91" y="0" type="curve" smooth="yes"/>
      <point x="983.91" y="0"/>
      <point x="999.91" y="16"/>
      <point x="999.91" y="35" type="curve" smooth="yes"/>
      <point x="999.91" y="613" type="line" smooth="yes"/>
      <point x="999.91" y="819.005"/>
      <point x="855.024" y="850.299"/>
      <point x="675.91" y="845" type="curve" smooth="yes"/>
      <point x="575.768" y="842.037" type="line"/>
      <point x="621.439" y="1364.05" type="line" smooth="yes"/>
      <point x="623.095" y="1382.97"/>
      <point x="608.528" y="1400.31"/>
      <point x="589.622" y="1401.96" type="curve"/>
      <point x="588.626" y="1402.05" type="line"/>
      <point x="569.72" y="1403.7"/>
      <point x="552.365" y="1389.16"/>
      <point x="550.709" y="1370.23" type="curve" smooth="yes"/>
      <point x="505.038" y="848.225" type="line"/>
      <point x="264.227" y="848.225"/>
      <point x="116.364" y="719.842"/>
      <point x="52.7562" y="447.178" type="curve"/>
      <point x="34.9347" y="380.234"/>
      <point x="109.141" y="377.486"/>
    </contour>
  </outline>
</glyph>
<glyph name="uni1214" format="2">
  <advance width="1401"/>
  <unicode hex="1214"/>
  <outline>
    <contour>
      <point x="1231.18" y="171" type="curve" smooth="yes"/>
      <point x="1231.18" y="115"/>
      <point x="1185.18" y="70"/>
      <point x="1129.18" y="70" type="curve" smooth="yes"/>
      <point x="1073.18" y="70"/>
      <point x="1027.18" y="115"/>
      <point x="1027.18" y="171" type="curve" smooth="yes"/>
      <point x="1027.18" y="228"/>
      <point x="1073.18" y="273"/>
      <point x="1129.18" y="273" type="curve" smooth="yes"/>
      <point x="1185.18" y="273"/>
      <point x="1231.18" y="228"/>
    </contour>
    <contour>
      <point x="468.18" y="40.6283" type="line" smooth="yes"/>
      <point x="466.524" y="21.7008"/>
      <point x="481.076" y="4.363"/>
      <point x="499.996" y="2.7107" type="curve"/>
      <point x="500.993" y="2.6237" type="line"/>
      <point x="519.913" y="0.971401"/>
      <point x="537.254" y="15.5127"/>
      <point x="538.91" y="34.4402" type="curve" smooth="yes"/>
      <point x="603.407" y="771.629" type="line"/>
      <point x="766.179" y="774" type="line" smooth="yes"/>
      <point x="913.113" y="776.141"/>
      <point x="948.612" y="714.074"/>
      <point x="948.179" y="550" type="curve" smooth="yes"/>
      <point x="947.179" y="171" type="line" smooth="yes"/>
      <point x="946.929" y="75.994"/>
      <point x="1034.18" y="0"/>
      <point x="1129.18" y="0" type="curve" smooth="yes"/>
      <point x="1224.18" y="0"/>
      <point x="1301.18" y="76"/>
      <point x="1301.18" y="171" type="curve" smooth="yes"/>
      <point x="1301.18" y="266"/>
      <point x="1224.18" y="343"/>
      <point x="1129.18" y="343" type="curve" smooth="yes"/>
      <point x="1086.18" y="343"/>
      <point x="1047.18" y="328"/>
      <point x="1017.18" y="302" type="curve"/>
      <point x="1018.18" y="613" type="line" smooth="yes"/>
      <point x="1018.64" y="757.003"/>
      <point x="943.198" y="849.159"/>
      <point x="765.179" y="845" type="curve" smooth="yes"/>
      <point x="609.508" y="841.363" type="line"/>
      <point x="655.179" y="1363.37" type="line" smooth="yes"/>
      <point x="656.835" y="1382.3"/>
      <point x="642.283" y="1399.64"/>
      <point x="623.363" y="1401.29" type="curve"/>
      <point x="622.366" y="1401.38" type="line"/>
      <point x="603.446" y="1403.03"/>
      <point x="586.105" y="1388.49"/>
      <point x="584.449" y="1369.56" type="curve" smooth="yes"/>
      <point x="538.778" y="847.551" type="line"/>
      <point x="198.596" y="847.551"/>
      <point x="43.8987" y="591.352"/>
      <point x="50.1839" y="34.1301" type="curve" smooth="yes"/>
      <point x="50.7099" y="-12.5036"/>
      <point x="120.705" y="-11.7154"/>
      <point x="120.179" y="34.9196" type="curve" smooth="yes"/>
      <point x="113.985" y="584.092"/>
      <point x="246.522" y="777.817"/>
      <point x="532.677" y="777.817" type="curve"/>
    </contour>
  </outline>
</glyph>
<glyph name="uni1215" format="2">
  <advance width="1118"/>
  <unicode hex="1215"/>
  <outline>
    <contour>
      <point x="468.18" y="40.6283" type="line" smooth="yes"/>
      <point x="466.524" y="21.7008"/>
      <point x="481.077" y="4.36275"/>
      <point x="499.996" y="2.71075" type="curve"/>
      <point x="500.993" y="2.62375" type="line"/>
      <point x="519.912" y="0.971751"/>
      <point x="537.254" y="15.5128"/>
      <point x="538.91" y="34.4403" type="curve" smooth="yes"/>
      <point x="603.407" y="771.629" type="line"/>
      <point x="696.179" y="774" type="line" smooth="yes"/>
      <point x="879.284" y="778.68"/>
      <point x="948.179" y="746.007"/>
      <point x="948.179" y="582" type="curve" smooth="yes"/>
      <point x="948.179" y="35" type="line" smooth="yes"/>
      <point x="948.179" y="16"/>
      <point x="963.179" y="0"/>
      <point x="983.179" y="0" type="curve" smooth="yes"/>
      <point x="1002.18" y="0"/>
      <point x="1018.18" y="16"/>
      <point x="1018.18" y="35" type="curve" smooth="yes"/>
      <point x="1018.18" y="613" type="line" smooth="yes"/>
      <point x="1018.18" y="819.005"/>
      <point x="873.025" y="852.683"/>
      <point x="694.179" y="845" type="curve" smooth="yes"/>
      <point x="609.508" y="841.363" type="line"/>
      <point x="655.179" y="1363.37" type="line" smooth="yes"/>
      <point x="656.835" y="1382.3"/>
      <point x="642.282" y="1399.64"/>
      <point x="623.363" y="1401.29" type="curve"/>
      <point x="622.366" y="1401.38" type="line"/>
      <point x="223.604" y="1404" type="line" smooth="yes"/>
      <point x="204.604" y="1404.12"/>
      <point x="188.604" y="1389"/>
      <point x="188.604" y="1369" type="curve" smooth="yes"/>
      <point x="188.604" y="1350"/>
      <point x="204.604" y="1333.96"/>
      <point x="223.604" y="1334" type="curve" smooth="yes"/>
      <point x="581.398" y="1334.69" type="line"/>
      <point x="538.778" y="847.551" type="line"/>
      <point x="198.596" y="847.551"/>
      <point x="43.8986" y="591.352"/>
      <point x="50.1839" y="34.13" type="curve" smooth="yes"/>
      <point x="50.7099" y="-12.5038"/>
      <point x="120.705" y="-11.7156"/>
      <point x="120.179" y="34.9194" type="curve" smooth="yes"/>
      <point x="113.985" y="584.092"/>
      <point x="246.522" y="777.817"/>
      <point x="532.677" y="777.817" type="curve"/>
    </contour>
  </outline>
</glyph>
<glyph name="uni1216" format="2">
  <advance width="1133"/>
  <unicode hex="1216"/>
  <outline>
    <contour>
      <point x="498.685" y="389.963" type="line" smooth="yes"/>
      <point x="497.029" y="371.035"/>
      <point x="511.581" y="353.698"/>
      <point x="530.502" y="352.046" type="curve"/>
      <point x="531.498" y="351.959" type="line"/>
      <point x="550.419" y="350.307"/>
      <point x="567.76" y="364.847"/>
      <point x="569.416" y="383.775" type="curve" smooth="yes"/>
      <point x="603.407" y="772.294" type="line"/>
      <point x="711.432" y="774" type="line" smooth="yes"/>
      <point x="894.436" y="776.891"/>
      <point x="963.432" y="746.007"/>
      <point x="963.432" y="582" type="curve" smooth="yes"/>
      <point x="963.432" y="385" type="line" smooth="yes"/>
      <point x="963.432" y="366"/>
      <point x="978.432" y="350"/>
      <point x="998.432" y="350" type="curve" smooth="yes"/>
      <point x="1017.43" y="350"/>
      <point x="1033.43" y="366"/>
      <point x="1033.43" y="385" type="curve" smooth="yes"/>
      <point x="1033.43" y="613" type="line" smooth="yes"/>
      <point x="1033.43" y="819"/>
      <point x="889.367" y="850.353"/>
      <point x="709.432" y="845" type="curve" smooth="yes"/>
      <point x="609.509" y="842.027" type="line"/>
      <point x="655.179" y="1364.04" type="line" smooth="yes"/>
      <point x="656.835" y="1382.97"/>
      <point x="642.284" y="1400.3"/>
      <point x="623.363" y="1401.95" type="curve"/>
      <point x="622.366" y="1402.04" type="line"/>
      <point x="603.446" y="1403.69"/>
      <point x="586.105" y="1389.15"/>
      <point x="584.449" y="1370.22" type="curve" smooth="yes"/>
      <point x="538.778" y="848.216" type="line"/>
      <point x="198.596" y="848.216"/>
      <point x="43.8987" y="592.016"/>
      <point x="50.184" y="34.7948" type="curve" smooth="yes"/>
      <point x="50.71" y="-11.839"/>
      <point x="120.705" y="-11.0508"/>
      <point x="120.179" y="35.5842" type="curve" smooth="yes"/>
      <point x="113.985" y="584.757"/>
      <point x="246.522" y="778.481"/>
      <point x="532.677" y="778.481" type="curve"/>
    </contour>
  </outline>
</glyph>
<glyph name="uni1217" format="2">
  <advance width="1523"/>
  <unicode hex="1217"/>
  <outline>
    <contour>
      <point x="1422.94" y="213.197" type="line" smooth="yes"/>
      <point x="1422.94" y="194.197"/>
      <point x="1406.93" y="178.147"/>
      <point x="1387.91" y="178.176" type="curve" smooth="yes"/>
      <point x="587.351" y="179.405" type="line" smooth="yes"/>
      <point x="568.334" y="179.434"/>
      <point x="552.33" y="195.425"/>
      <point x="552.33" y="214.425" type="curve" smooth="yes"/>
      <point x="552.33" y="215.449" type="line" smooth="yes"/>
      <point x="552.33" y="234.449"/>
      <point x="568.351" y="249.492"/>
      <point x="587.351" y="249.446" type="curve" smooth="yes"/>
      <point x="929.162" y="248.627" type="line"/>
      <point x="929.572" y="582.041" type="line" smooth="yes"/>
      <point x="929.773" y="746.044"/>
      <point x="860.484" y="776.712"/>
      <point x="677.463" y="773.939" type="curve" smooth="yes"/>
      <point x="569.329" y="772.301" type="line"/>
      <point x="535.742" y="388.71" type="line" smooth="yes"/>
      <point x="534.082" y="369.75"/>
      <point x="516.823" y="356.966"/>
      <point x="497.854" y="356.966" type="curve" smooth="yes"/>
      <point x="496.83" y="356.966" type="line" smooth="yes"/>
      <point x="477.861" y="356.966"/>
      <point x="463.221" y="375.894"/>
      <point x="464.881" y="394.854" type="curve" smooth="yes"/>
      <point x="498.468" y="778.445" type="line"/>
      <point x="293.667" y="778.445"/>
      <point x="165.061" y="679.731"/>
      <point x="114.673" y="421.478" type="curve" smooth="yes"/>
      <point x="106.163" y="377.866"/>
      <point x="36.2608" y="379.711"/>
      <point x="52.4135" y="447.078" type="curve" smooth="yes"/>
      <point x="117.697" y="719.349"/>
      <point x="263.802" y="848.281"/>
      <point x="504.612" y="848.281" type="curve"/>
      <point x="550.282" y="1370.32" type="line" smooth="yes"/>
      <point x="551.938" y="1389.25"/>
      <point x="569.201" y="1402.06"/>
      <point x="588.17" y="1402.06" type="curve" smooth="yes"/>
      <point x="589.194" y="1402.06" type="line" smooth="yes"/>
      <point x="608.163" y="1402.06"/>
      <point x="622.595" y="1382.9"/>
      <point x="620.938" y="1363.97" type="curve" smooth="yes"/>
      <point x="575.268" y="842.137" type="line"/>
      <point x="675.415" y="845.005" type="line" smooth="yes"/>
      <point x="854.589" y="850.134"/>
      <point x="999.524" y="818.966"/>
      <point x="999.409" y="612.966" type="curve" smooth="yes"/>
      <point x="999.204" y="248.422" type="line"/>
      <point x="1387.91" y="248.217" type="line" smooth="yes"/>
      <point x="1406.91" y="248.207"/>
      <point x="1422.94" y="233.221"/>
      <point x="1422.94" y="214.221" type="curve" smooth="yes"/>
    </contour>
  </outline>
</glyph>
<glyph name="uni1218" format="2">
  <advance width="1321"/>
  <unicode hex="1218"/>
  <outline>
    <contour>
      <point x="1220.98" y="858.617" type="curve" smooth="yes"/>
      <point x="1220.98" y="648.645"/>
      <point x="1146.17" y="449.112"/>
      <point x="972.587" y="438.603" type="curve" smooth="yes"/>
      <point x="897.433" y="434.054"/>
      <point x="755.321" y="429.926"/>
      <point x="752.989" y="554.51" type="curve" smooth="yes"/>
      <point x="743.99" y="1035.25" type="line"/>
      <point x="653.9" y="1028.27" type="line"/>
      <point x="530.983" y="474" type="line" smooth="yes"/>
      <point x="519.989" y="424.424"/>
      <point x="416.919" y="390.502"/>
      <point x="321.997" y="391.97" type="curve" smooth="yes"/>
      <point x="193.213" y="393.962"/>
      <point x="50" y="452.934"/>
      <point x="50" y="604.158" type="curve" smooth="yes"/>
      <point x="50" y="1081.85"/>
      <point x="506.881" y="1097.63"/>
      <point x="829.535" y="1105.79" type="curve" smooth="yes"/>
      <point x="994.934" y="1109.97"/>
      <point x="1220.98" y="1142.61"/>
    </contour>
    <contour>
      <point x="1150.98" y="858.617" type="curve" smooth="yes"/>
      <point x="1150.98" y="1082.14"/>
      <point x="967.651" y="1027.99"/>
      <point x="816.432" y="1040.63" type="curve"/>
      <point x="821.98" y="542.617" type="line" smooth="yes"/>
      <point x="822.497" y="496.147"/>
      <point x="950.129" y="507.372"/>
      <point x="968.354" y="508.475" type="curve" smooth="yes"/>
      <point x="1108" y="516.926"/>
      <point x="1150.98" y="688.628"/>
    </contour>
    <contour>
      <point x="579.683" y="1025.34" type="line"/>
      <point x="308.42" y="1008.93"/>
      <point x="119.937" y="889.392"/>
      <point x="119.937" y="602.636" type="curve" smooth="yes"/>
      <point x="119.937" y="517.575"/>
      <point x="204.767" y="458.787"/>
      <point x="327.638" y="462.589" type="curve" smooth="yes"/>
      <point x="376.62" y="464.104"/>
      <point x="458.401" y="470.737"/>
      <point x="467.997" y="514.617" type="curve" smooth="yes"/>
    </contour>
  </outline>
</glyph>
<glyph name="uni1219" format="2">
  <advance width="1754"/>
  <unicode hex="1219"/>
  <outline>
    <contour>
      <point x="1653.74" y="802.992" type="curve" smooth="yes"/>
      <point x="1653.74" y="783.992"/>
      <point x="1637.82" y="767.991"/>
      <point x="1618.74" y="767.991" type="curve" smooth="yes"/>
      <point x="1216.14" y="768" type="line"/>
      <point x="1197.07" y="594.482"/>
      <point x="1120.87" y="447.578"/>
      <point x="972.588" y="438.603" type="curve" smooth="yes"/>
      <point x="897.405" y="434.052"/>
      <point x="755.32" y="429.981"/>
      <point x="752.989" y="554.51" type="curve" smooth="yes"/>
      <point x="743.99" y="1035.25" type="line"/>
      <point x="653.9" y="1028.27" type="line"/>
      <point x="530.983" y="474" type="line" smooth="yes"/>
      <point x="519.989" y="424.424"/>
      <point x="416.922" y="390.503"/>
      <point x="321.997" y="391.97" type="curve" smooth="yes"/>
      <point x="193.218" y="393.96"/>
      <point x="50" y="452.942"/>
      <point x="50" y="604.158" type="curve"/>
      <point x="50" y="1081.83"/>
      <point x="506.87" y="1097.63"/>
      <point x="829.535" y="1105.79" type="curve"/>
      <point x="994.82" y="1113.18"/>
      <point x="1220.98" y="1142.6"/>
      <point x="1220.98" y="858.617" type="curve" smooth="yes"/>
      <point x="1220.98" y="851.729"/>
      <point x="1220.9" y="844.852"/>
      <point x="1220.74" y="837.993" type="curve"/>
      <point x="1618.74" y="837.992" type="line" smooth="yes"/>
      <point x="1637.75" y="837.992"/>
      <point x="1653.74" y="822.992"/>
    </contour>
    <contour>
      <point x="1150.98" y="858.617" type="curve" smooth="yes"/>
      <point x="1150.98" y="1082.14"/>
      <point x="967.651" y="1027.99"/>
      <point x="816.432" y="1040.63" type="curve"/>
      <point x="821.98" y="542.617" type="line" smooth="yes"/>
      <point x="822.497" y="496.147"/>
      <point x="950.13" y="507.373"/>
      <point x="968.354" y="508.475" type="curve" smooth="yes"/>
      <point x="1107.93" y="516.92"/>
      <point x="1150.98" y="688.629"/>
    </contour>
    <contour>
      <point x="579.683" y="1025.34" type="line"/>
      <point x="308.42" y="1008.93"/>
      <point x="119.937" y="889.395"/>
      <point x="119.937" y="602.636" type="curve"/>
      <point x="119.937" y="517.58"/>
      <point x="204.79" y="458.789"/>
      <point x="327.638" y="462.589" type="curve" smooth="yes"/>
      <point x="376.584" y="464.103"/>
      <point x="458.401" y="470.737"/>
      <point x="467.997" y="514.617" type="curve" smooth="yes"/>
    </contour>
  </outline>
</glyph>
<glyph name="uni121A" format="2">
  <advance width="1662"/>
  <unicode hex="121A"/>
  <outline>
    <contour>
      <point x="1221.47" y="1113.96" type="curve"/>
      <point x="1221.47" y="1113.96"/>
      <point x="1159.59" y="418.289"/>
      <point x="1128.66" y="70.9518" type="curve"/>
      <point x="1526.66" y="70.9515" type="line" smooth="yes"/>
      <point x="1545.66" y="70.9515"/>
      <point x="1561.66" y="55.9513"/>
      <point x="1561.66" y="35.9513" type="curve" smooth="yes"/>
      <point x="1561.66" y="16.9513"/>
      <point x="1545.74" y="0.950763"/>
      <point x="1526.66" y="0.950763" type="curve" smooth="yes"/>
      <point x="1092.66" y="0.950763" type="line" smooth="yes"/>
      <point x="1072.55" y="0.950763"/>
      <point x="1055.88" y="17.0055"/>
      <point x="1057.66" y="35.951" type="curve" smooth="yes"/>
      <point x="1126.92" y="773.292" type="line"/>
      <point x="1088.41" y="725.986"/>
      <point x="1037.4" y="695.736"/>
      <point x="972.588" y="691.813" type="curve" smooth="yes"/>
      <point x="897.414" y="687.264"/>
      <point x="755.32" y="683.231"/>
      <point x="752.989" y="807.72" type="curve" smooth="yes"/>
      <point x="743.99" y="1288.46" type="line"/>
      <point x="653.9" y="1281.48" type="line"/>
      <point x="530.983" y="727.21" type="line" smooth="yes"/>
      <point x="519.989" y="677.634"/>
      <point x="416.922" y="643.713"/>
      <point x="321.997" y="645.18" type="curve" smooth="yes"/>
      <point x="193.218" y="647.17"/>
      <point x="50" y="706.152"/>
      <point x="50" y="857.368" type="curve"/>
      <point x="50" y="1335.04"/>
      <point x="506.87" y="1350.84"/>
      <point x="829.535" y="1359" type="curve"/>
      <point x="994.413" y="1366.37"/>
      <point x="1220.35" y="1395.65"/>
    </contour>
    <contour>
      <point x="1150.98" y="1111.83" type="curve" smooth="yes"/>
      <point x="1150.98" y="1335.35"/>
      <point x="967.651" y="1281.2"/>
      <point x="816.432" y="1293.84" type="curve"/>
      <point x="821.98" y="795.827" type="line" smooth="yes"/>
      <point x="822.497" y="749.357"/>
      <point x="950.127" y="760.583"/>
      <point x="968.354" y="761.685" type="curve" smooth="yes"/>
      <point x="1124.42" y="771.128"/>
      <point x="1150.98" y="987.258"/>
    </contour>
    <contour>
      <point x="327.638" y="715.799" type="curve" smooth="yes"/>
      <point x="376.59" y="717.313"/>
      <point x="458.401" y="723.947"/>
      <point x="467.997" y="767.827" type="curve" smooth="yes"/>
      <point x="579.683" y="1278.55" type="line"/>
      <point x="308.42" y="1262.14"/>
      <point x="119.937" y="1142.6"/>
      <point x="119.937" y="855.846" type="curve"/>
      <point x="119.937" y="770.79"/>
      <point x="204.787" y="712"/>
    </contour>
  </outline>
</glyph>
<glyph name="uni121C" format="2">
  <advance width="1524"/>
  <unicode hex="121C"/>
  <outline>
    <contour>
      <point x="1220.98" y="1112.62" type="curve" smooth="yes"/>
      <point x="1220.16" y="887.624"/>
      <point x="1154.96" y="340.24"/>
      <point x="1152.6" y="312.705" type="curve"/>
      <point x="1152.83" y="313.064" type="line"/>
      <point x="1184.9" y="335.355"/>
      <point x="1225.17" y="347.891"/>
      <point x="1267.98" y="344.147" type="curve" smooth="yes"/>
      <point x="1361.5" y="335.968"/>
      <point x="1431.62" y="252.535"/>
      <point x="1423.34" y="157.896" type="curve" smooth="yes"/>
      <point x="1415.06" y="63.2572"/>
      <point x="1331.78" y="-6.74876"/>
      <point x="1238" y="1.45399" type="curve" smooth="yes"/>
      <point x="1143.48" y="9.72099"/>
      <point x="1063.33" y="93.7542"/>
      <point x="1071.61" y="187.859" type="curve"/>
      <point x="1071.68" y="188.663" type="line"/>
      <point x="1133" y="781" type="line"/>
      <point x="1095.35" y="738.335"/>
      <point x="1033.61" y="695.507"/>
      <point x="972.588" y="691.813" type="curve" smooth="yes"/>
      <point x="897.441" y="687.265"/>
      <point x="755.32" y="683.232"/>
      <point x="752.989" y="807.72" type="curve" smooth="yes"/>
      <point x="743.99" y="1288.46" type="line"/>
      <point x="653.9" y="1281.48" type="line"/>
      <point x="530.983" y="727.21" type="line" smooth="yes"/>
      <point x="519.988" y="677.633"/>
      <point x="416.922" y="643.713"/>
      <point x="321.997" y="645.18" type="curve" smooth="yes"/>
      <point x="193.218" y="647.17"/>
      <point x="50" y="706.152"/>
      <point x="50" y="857.368" type="curve"/>
      <point x="50" y="1335.04"/>
      <point x="506.87" y="1350.84"/>
      <point x="829.535" y="1359" type="curve"/>
      <point x="994.668" y="1366.38"/>
      <point x="1222.02" y="1395.76"/>
    </contour>
    <contour>
      <point x="1150.98" y="1111.83" type="curve" smooth="yes"/>
      <point x="1150.98" y="1335.35"/>
      <point x="967.651" y="1281.2"/>
      <point x="816.432" y="1293.84" type="curve"/>
      <point x="821.98" y="795.827" type="line" smooth="yes"/>
      <point x="822.497" y="749.357"/>
      <point x="950.13" y="760.583"/>
      <point x="968.354" y="761.685" type="curve" smooth="yes"/>
      <point x="1107.94" y="770.132"/>
      <point x="1150.98" y="941.839"/>
    </contour>
    <contour>
      <point x="1353.61" y="163.997" type="curve" smooth="yes"/>
      <point x="1358.49" y="219.785"/>
      <point x="1317.7" y="269.531"/>
      <point x="1261.88" y="274.413" type="curve" smooth="yes"/>
      <point x="1205.07" y="279.381"/>
      <point x="1156.26" y="237.478"/>
      <point x="1151.38" y="181.69" type="curve" smooth="yes"/>
      <point x="1146.5" y="125.903"/>
      <point x="1187.29" y="76.1565"/>
      <point x="1244.1" y="71.188" type="curve" smooth="yes"/>
      <point x="1299.92" y="66.3065"/>
      <point x="1348.73" y="108.21"/>
    </contour>
    <contour>
      <point x="327.638" y="715.799" type="curve" smooth="yes"/>
      <point x="376.594" y="717.313"/>
      <point x="458.401" y="723.947"/>
      <point x="467.997" y="767.827" type="curve" smooth="yes"/>
      <point x="579.683" y="1278.55" type="line"/>
      <point x="308.42" y="1262.14"/>
      <point x="119.937" y="1142.6"/>
      <point x="119.937" y="855.846" type="curve"/>
      <point x="119.937" y="770.79"/>
      <point x="204.786" y="711.999"/>
    </contour>
  </outline>
</glyph>
<glyph name="uni121D" format="2">
  <advance width="1423"/>
  <unicode hex="121D"/>
  <outline>
    <contour>
      <point x="1323.47" y="1111.83" type="curve" smooth="yes"/>
      <point x="1323.47" y="901.856"/>
      <point x="1248.66" y="702.321"/>
      <point x="1075.08" y="691.813" type="curve" smooth="yes"/>
      <point x="999.926" y="687.264"/>
      <point x="857.814" y="683.127"/>
      <point x="855.481" y="807.72" type="curve" smooth="yes"/>
      <point x="846.48" y="1288.46" type="line"/>
      <point x="756.392" y="1281.48" type="line"/>
      <point x="633.475" y="727.21" type="line" smooth="yes"/>
      <point x="631.456" y="718.104"/>
      <point x="621.573" y="702.531"/>
      <point x="608.053" y="692.109" type="curve"/>
      <point x="112.839" y="8.34804" type="line" smooth="yes"/>
      <point x="101.45" y="-7.37746"/>
      <point x="80.0059" y="-10.411"/>
      <point x="64.8389" y="0.34804" type="curve" smooth="yes"/>
      <point x="49" y="11.5838"/>
      <point x="45.0528" y="33.1918"/>
      <point x="56.839" y="49.348" type="curve" smooth="yes"/>
      <point x="495.282" y="650.347" type="line"/>
      <point x="472.207" y="646.637"/>
      <point x="448.09" y="644.816"/>
      <point x="424.489" y="645.18" type="curve" smooth="yes"/>
      <point x="295.76" y="647.169"/>
      <point x="152.492" y="706.152"/>
      <point x="152.492" y="857.368" type="curve"/>
      <point x="152.492" y="1335.04"/>
      <point x="609.362" y="1350.84"/>
      <point x="932.028" y="1359" type="curve"/>
      <point x="1097.31" y="1366.39"/>
      <point x="1323.47" y="1395.82"/>
    </contour>
    <contour>
      <point x="1253.47" y="1111.83" type="curve" smooth="yes"/>
      <point x="1253.47" y="1335.35"/>
      <point x="1070.14" y="1281.2"/>
      <point x="918.924" y="1293.84" type="curve"/>
      <point x="924.472" y="795.827" type="line" smooth="yes"/>
      <point x="924.989" y="749.357"/>
      <point x="1052.62" y="760.583"/>
      <point x="1070.85" y="761.685" type="curve" smooth="yes"/>
      <point x="1210.44" y="770.132"/>
      <point x="1253.47" y="941.839"/>
    </contour>
    <contour>
      <point x="430.13" y="715.799" type="curve" smooth="yes"/>
      <point x="479.086" y="717.313"/>
      <point x="560.893" y="723.947"/>
      <point x="570.489" y="767.827" type="curve" smooth="yes"/>
      <point x="682.175" y="1278.55" type="line"/>
      <point x="410.912" y="1262.14"/>
      <point x="222.429" y="1142.6"/>
      <point x="222.429" y="855.846" type="curve"/>
      <point x="222.429" y="770.79"/>
      <point x="307.278" y="711.999"/>
    </contour>
  </outline>
</glyph>
<glyph name="uni121E" format="2">
  <advance width="1321"/>
  <unicode hex="121E"/>
  <outline>
    <contour>
      <point x="1220.98" y="1111.83" type="curve" smooth="yes"/>
      <point x="1220.98" y="901.856"/>
      <point x="1146.17" y="702.321"/>
      <point x="972.587" y="691.813" type="curve" smooth="yes"/>
      <point x="897.434" y="687.264"/>
      <point x="755.321" y="683.152"/>
      <point x="752.989" y="807.72" type="curve" smooth="yes"/>
      <point x="743.99" y="1288.46" type="line"/>
      <point x="653.9" y="1281.48" type="line"/>
      <point x="392.104" y="27.5743" type="line" smooth="yes"/>
      <point x="388.221" y="8.97576"/>
      <point x="370.621" y="-3.86424"/>
      <point x="351" y="0" type="curve" smooth="yes"/>
      <point x="332.361" y="3.67075"/>
      <point x="319.638" y="22.509"/>
      <point x="323.426" y="41.1045" type="curve" smooth="yes"/>
      <point x="450.371" y="664.355" type="line"/>
      <point x="412.647" y="651.557"/>
      <point x="366.429" y="644.493"/>
      <point x="321.997" y="645.18" type="curve" smooth="yes"/>
      <point x="193.241" y="647.17"/>
      <point x="50" y="706.152"/>
      <point x="50" y="857.368" type="curve" smooth="yes"/>
      <point x="50" y="1071.48"/>
      <point x="183.214" y="1330.1"/>
      <point x="534.98" y="1345.83" type="curve" smooth="yes"/>
      <point x="829.535" y="1359" type="line" smooth="yes"/>
      <point x="994.82" y="1366.39"/>
      <point x="1220.98" y="1395.82"/>
    </contour>
    <contour>
      <point x="1150.98" y="1111.83" type="curve" smooth="yes"/>
      <point x="1150.98" y="1335.35"/>
      <point x="967.651" y="1281.2"/>
      <point x="816.432" y="1293.84" type="curve"/>
      <point x="821.98" y="795.827" type="line" smooth="yes"/>
      <point x="822.497" y="749.357"/>
      <point x="950.129" y="760.583"/>
      <point x="968.354" y="761.685" type="curve" smooth="yes"/>
      <point x="1107.97" y="770.134"/>
      <point x="1150.98" y="941.839"/>
    </contour>
    <contour>
      <point x="579.683" y="1278.55" type="line"/>
      <point x="543.801" y="1276.38" type="line" smooth="yes"/>
      <point x="173.097" y="1253.95"/>
      <point x="119.937" y="986.758"/>
      <point x="119.937" y="855.846" type="curve" smooth="yes"/>
      <point x="119.937" y="770.79"/>
      <point x="204.775" y="711.998"/>
      <point x="327.638" y="715.799" type="curve" smooth="yes"/>
      <point x="376.608" y="717.313"/>
      <point x="458.401" y="723.947"/>
      <point x="467.997" y="767.827" type="curve" smooth="yes"/>
    </contour>
  </outline>
</glyph>
<glyph name="uni121F" format="2">
  <advance width="1673"/>
  <unicode hex="121F"/>
  <outline>
    <contour>
      <point x="1572.97" y="213.197" type="line" smooth="yes"/>
      <point x="1572.97" y="194.197"/>
      <point x="1556.97" y="178.147"/>
      <point x="1537.95" y="178.176" type="curve" smooth="yes"/>
      <point x="737.388" y="179.405" type="line" smooth="yes"/>
      <point x="718.37" y="179.434"/>
      <point x="702.367" y="195.425"/>
      <point x="702.367" y="214.425" type="curve" smooth="yes"/>
      <point x="702.367" y="215.449" type="line" smooth="yes"/>
      <point x="702.367" y="234.449"/>
      <point x="718.388" y="249.495"/>
      <point x="737.388" y="249.446" type="curve" smooth="yes"/>
      <point x="1079.2" y="248.578" type="line"/>
      <point x="1127.25" y="773.718" type="line"/>
      <point x="1088.7" y="726.173"/>
      <point x="1037.56" y="695.745"/>
      <point x="972.588" y="691.813" type="curve" smooth="yes"/>
      <point x="897.436" y="687.266"/>
      <point x="755.319" y="683.255"/>
      <point x="752.989" y="807.72" type="curve" smooth="yes"/>
      <point x="743.99" y="1288.46" type="line"/>
      <point x="653.9" y="1281.48" type="line"/>
      <point x="530.983" y="727.21" type="line" smooth="yes"/>
      <point x="519.989" y="677.634"/>
      <point x="416.921" y="643.714"/>
      <point x="321.997" y="645.18" type="curve" smooth="yes"/>
      <point x="193.219" y="647.17"/>
      <point x="50" y="706.152"/>
      <point x="50" y="857.368" type="curve"/>
      <point x="50" y="1335.04"/>
      <point x="506.86" y="1350.84"/>
      <point x="829.535" y="1359" type="curve"/>
      <point x="994.692" y="1366.39"/>
      <point x="1220.8" y="1395.74"/>
      <point x="1220.98" y="1112.51" type="curve"/>
      <point x="1220.98" y="1112.51"/>
      <point x="1213.64" y="1021.5"/>
      <point x="1209.96" y="977.257" type="curve" smooth="yes"/>
      <point x="1149.24" y="248.414" type="line"/>
      <point x="1537.95" y="248.217" type="line" smooth="yes"/>
      <point x="1556.95" y="248.208"/>
      <point x="1572.97" y="233.221"/>
      <point x="1572.97" y="214.221" type="curve" smooth="yes"/>
    </contour>
    <contour>
      <point x="1150.98" y="1111.83" type="curve" smooth="yes"/>
      <point x="1150.98" y="1335.35"/>
      <point x="967.651" y="1281.2"/>
      <point x="816.432" y="1293.84" type="curve"/>
      <point x="821.98" y="795.827" type="line" smooth="yes"/>
      <point x="822.497" y="749.357"/>
      <point x="950.132" y="760.583"/>
      <point x="968.354" y="761.685" type="curve" smooth="yes"/>
      <point x="1107.89" y="770.127"/>
      <point x="1150.98" y="941.84"/>
    </contour>
    <contour>
      <point x="579.683" y="1278.55" type="line"/>
      <point x="308.42" y="1262.14"/>
      <point x="119.937" y="1142.61"/>
      <point x="119.937" y="855.846" type="curve"/>
      <point x="119.937" y="770.79"/>
      <point x="204.79" y="712"/>
      <point x="327.638" y="715.799" type="curve" smooth="yes"/>
      <point x="376.564" y="717.311"/>
      <point x="458.401" y="723.947"/>
      <point x="467.997" y="767.827" type="curve" smooth="yes"/>
    </contour>
  </outline>
</glyph>
<glyph name="uni1220" format="2">
  <advance width="1362"/>
  <unicode hex="1220"/>
  <outline>
    <contour>
      <point x="1256" y="1153" type="curve" smooth="yes"/>
      <point x="1272.55" y="1016.75"/>
      <point x="1257.77" y="895.711"/>
      <point x="1192.88" y="773.069" type="curve" smooth="yes"/>
      <point x="1132.1" y="658.206"/>
      <point x="1015.34" y="637.781"/>
      <point x="892.042" y="628" type="curve" smooth="yes"/>
      <point x="784.759" y="619.489"/>
      <point x="729.438" y="682.479"/>
      <point x="699.286" y="764.684" type="curve"/>
      <point x="683.086" y="704.832"/>
      <point x="661.722" y="643.053"/>
      <point x="634.479" y="583.294" type="curve" smooth="yes"/>
      <point x="528.976" y="351.87"/>
      <point x="1.96128" y="311.78"/>
      <point x="53.543" y="554.756" type="curve" smooth="yes"/>
      <point x="160.395" y="1058.08" type="line" smooth="yes"/>
      <point x="170.116" y="1103.87"/>
      <point x="238.596" y="1089.35"/>
      <point x="228.869" y="1043.54" type="curve" smooth="yes"/>
      <point x="121.705" y="538.842" type="line" smooth="yes"/>
      <point x="93.842" y="407.618"/>
      <point x="494.996" y="446.084"/>
      <point x="570.786" y="612.332" type="curve" smooth="yes"/>
      <point x="608.993" y="696.141"/>
      <point x="657.857" y="904.529"/>
      <point x="666.633" y="1108.74" type="curve" smooth="yes"/>
      <point x="668.638" y="1155.4"/>
      <point x="736.534" y="1155.58"/>
      <point x="736.632" y="1108.89" type="curve" smooth="yes"/>
      <point x="736.866" y="996.917"/>
      <point x="692.557" y="682.394"/>
      <point x="886.504" y="697.78" type="curve" smooth="yes"/>
      <point x="980.008" y="705.198"/>
      <point x="1086.17" y="718.666"/>
      <point x="1130.4" y="806.611" type="curve" smooth="yes"/>
      <point x="1193.51" y="932.104"/>
      <point x="1199.5" y="1037.62"/>
      <point x="1186.51" y="1144.56" type="curve" smooth="yes"/>
      <point x="1180.88" y="1190.9"/>
      <point x="1250.37" y="1199.34"/>
    </contour>
  </outline>
</glyph>
<glyph name="uni1221" format="2">
  <advance width="1746"/>
  <unicode hex="1221"/>
  <outline>
    <contour>
      <point x="1646" y="889.813" type="line" smooth="yes"/>
      <point x="1646" y="869.813"/>
      <point x="1630" y="854.861"/>
      <point x="1611" y="854.813" type="curve" smooth="yes"/>
      <point x="1228.18" y="853.846" type="line"/>
      <point x="1219.56" y="828.209"/>
      <point x="1208.01" y="801.664"/>
      <point x="1192.88" y="773.069" type="curve" smooth="yes"/>
      <point x="1132.1" y="658.206"/>
      <point x="1015.34" y="637.782"/>
      <point x="892.042" y="628" type="curve" smooth="yes"/>
      <point x="784.758" y="619.488"/>
      <point x="729.438" y="682.479"/>
      <point x="699.285" y="764.684" type="curve"/>
      <point x="683.086" y="704.832"/>
      <point x="661.724" y="643.057"/>
      <point x="634.479" y="583.294" type="curve" smooth="yes"/>
      <point x="528.968" y="351.858"/>
      <point x="1.96123" y="311.78"/>
      <point x="53.543" y="554.756" type="curve" smooth="yes"/>
      <point x="160.395" y="1058.08" type="line" smooth="yes"/>
      <point x="170.108" y="1103.84"/>
      <point x="238.587" y="1089.31"/>
      <point x="228.869" y="1043.54" type="curve" smooth="yes"/>
      <point x="121.705" y="538.842" type="line" smooth="yes"/>
      <point x="93.842" y="407.618"/>
      <point x="494.996" y="446.088"/>
      <point x="570.786" y="612.332" type="curve" smooth="yes"/>
      <point x="608.99" y="696.135"/>
      <point x="661.674" y="926.152"/>
      <point x="666.632" y="1108.74" type="curve" smooth="yes"/>
      <point x="667.9" y="1155.42"/>
      <point x="736.533" y="1155.58"/>
      <point x="736.632" y="1108.89" type="curve" smooth="yes"/>
      <point x="736.869" y="996.916"/>
      <point x="692.555" y="682.393"/>
      <point x="886.504" y="697.781" type="curve" smooth="yes"/>
      <point x="979.977" y="705.197"/>
      <point x="1086.17" y="718.669"/>
      <point x="1130.4" y="806.611" type="curve" smooth="yes"/>
      <point x="1193.51" y="932.105"/>
      <point x="1199.5" y="1037.63"/>
      <point x="1186.51" y="1144.56" type="curve" smooth="yes"/>
      <point x="1180.88" y="1190.89"/>
      <point x="1250.37" y="1199.35"/>
      <point x="1256" y="1153" type="curve" smooth="yes"/>
      <point x="1265.05" y="1078.49"/>
      <point x="1253.78" y="983.279"/>
      <point x="1245.23" y="924.821" type="curve"/>
      <point x="1611" y="924.813" type="line" smooth="yes"/>
      <point x="1630" y="924.813"/>
      <point x="1646" y="909.813"/>
      <point x="1646" y="890.813" type="curve" smooth="yes"/>
    </contour>
  </outline>
</glyph>
<glyph name="uni1223" format="2">
  <advance width="1241"/>
  <unicode hex="1223"/>
  <outline>
    <contour>
      <point x="963.151" y="836" type="curve"/>
      <point x="1072.15" y="1263" type="line" smooth="yes"/>
      <point x="1076.78" y="1281.12"/>
      <point x="1095.17" y="1293.15"/>
      <point x="1114.15" y="1289" type="curve" smooth="yes"/>
      <point x="1127.18" y="1286.15"/>
      <point x="1143.16" y="1275"/>
      <point x="1140.15" y="1263" type="curve" smooth="yes"/>
      <point x="830.151" y="27" type="line" smooth="yes"/>
      <point x="825.608" y="8.88475"/>
      <point x="807.13" y="-3.146"/>
      <point x="788.151" y="1" type="curve" smooth="yes"/>
      <point x="775.12" y="3.8468"/>
      <point x="759.172" y="15"/>
      <point x="762.152" y="27.001" type="curve" smooth="yes"/>
      <point x="944.152" y="760.001" type="line"/>
      <point x="944.152" y="760.001"/>
      <point x="828.298" y="741.606"/>
      <point x="740.656" y="737.781" type="curve"/>
      <point x="633.191" y="733.094"/>
      <point x="579.304" y="784.796"/>
      <point x="549.152" y="867" type="curve"/>
      <point x="532.952" y="807.148"/>
      <point x="515.871" y="753.049"/>
      <point x="488.63" y="693.294" type="curve" smooth="yes"/>
      <point x="383.172" y="461.959"/>
      <point x="2.20954" y="524.856"/>
      <point x="54.99" y="767.914" type="curve" smooth="yes"/>
      <point x="145.678" y="1185.54" type="line" smooth="yes"/>
      <point x="155.644" y="1231.43"/>
      <point x="224.115" y="1216.87"/>
      <point x="214.152" y="1171" type="curve" smooth="yes"/>
      <point x="123.152" y="752" type="line" smooth="yes"/>
      <point x="94.6813" y="620.91"/>
      <point x="349.137" y="556.052"/>
      <point x="424.937" y="722.332" type="curve" smooth="yes"/>
      <point x="463.149" y="806.157"/>
      <point x="518.315" y="1021.53"/>
      <point x="520.784" y="1218.74" type="curve" smooth="yes"/>
      <point x="521.369" y="1265.47"/>
      <point x="590.688" y="1265.6"/>
      <point x="590.784" y="1218.89" type="curve" smooth="yes"/>
      <point x="591.022" y="1103.53"/>
      <point x="545.928" y="800.355"/>
      <point x="740.656" y="807.781" type="curve"/>
      <point x="877.601" y="813.005"/>
      <point x="963.152" y="836"/>
    </contour>
  </outline>
</glyph>
<glyph name="uni1225" format="2">
  <advance width="1407"/>
  <unicode hex="1225"/>
  <outline>
    <contour>
      <point x="1300.83" y="1262.78" type="curve" smooth="yes"/>
      <point x="1317.38" y="1126.53"/>
      <point x="1302.61" y="1005.49"/>
      <point x="1237.71" y="882.849" type="curve" smooth="yes"/>
      <point x="1176.93" y="767.986"/>
      <point x="1060.32" y="745.52"/>
      <point x="936.877" y="737.781" type="curve" smooth="yes"/>
      <point x="829.525" y="731.05"/>
      <point x="775.525" y="784.795"/>
      <point x="745.373" y="867" type="curve"/>
      <point x="729.174" y="807.148"/>
      <point x="712.091" y="753.048"/>
      <point x="684.852" y="693.294" type="curve" smooth="yes"/>
      <point x="602.97" y="513.675"/>
      <point x="354.992" y="511.362"/>
      <point x="272.917" y="633.127" type="curve"/>
      <point x="118.373" y="31" type="line" smooth="yes"/>
      <point x="113.73" y="12.9102"/>
      <point x="95.352" y="0.855"/>
      <point x="76.3732" y="5" type="curve" smooth="yes"/>
      <point x="63.3417" y="7.846"/>
      <point x="47.3457" y="19.01"/>
      <point x="50.3732" y="31" type="curve" smooth="yes"/>
      <point x="341.899" y="1185.54" type="line" smooth="yes"/>
      <point x="350.121" y="1218.1"/>
      <point x="386.046" y="1220.26"/>
      <point x="402.94" y="1201.93" type="curve"/>
      <point x="407.266" y="1198.09"/>
      <point x="410.222" y="1193.47"/>
      <point x="410.264" y="1188.59" type="curve"/>
      <point x="411.626" y="1183.42"/>
      <point x="411.791" y="1177.53"/>
      <point x="410.373" y="1171" type="curve" smooth="yes"/>
      <point x="319.373" y="752" type="line" smooth="yes"/>
      <point x="290.903" y="620.91"/>
      <point x="545.357" y="556.048"/>
      <point x="621.159" y="722.332" type="curve" smooth="yes"/>
      <point x="659.371" y="806.159"/>
      <point x="714.539" y="1021.61"/>
      <point x="717.006" y="1218.74" type="curve" smooth="yes"/>
      <point x="717.59" y="1265.45"/>
      <point x="786.909" y="1265.59"/>
      <point x="787.005" y="1218.89" type="curve" smooth="yes"/>
      <point x="787.242" y="1103.53"/>
      <point x="736.75" y="797.54"/>
      <point x="931.339" y="807.561" type="curve" smooth="yes"/>
      <point x="1025.01" y="812.385"/>
      <point x="1131" y="828.433"/>
      <point x="1175.23" y="916.391" type="curve" smooth="yes"/>
      <point x="1238.35" y="1041.89"/>
      <point x="1244.33" y="1147.4"/>
      <point x="1231.35" y="1254.34" type="curve" smooth="yes"/>
      <point x="1225.72" y="1300.67"/>
      <point x="1295.21" y="1309.12"/>
    </contour>
  </outline>
</glyph>
<glyph name="uni1226" format="2">
  <advance width="1211"/>
  <unicode hex="1226"/>
  <outline>
    <contour>
      <point x="1104.62" y="1262.78" type="curve" smooth="yes"/>
      <point x="1121.17" y="1126.53"/>
      <point x="1106.39" y="1005.49"/>
      <point x="1041.5" y="882.849" type="curve" smooth="yes"/>
      <point x="980.718" y="767.986"/>
      <point x="864.101" y="745.52"/>
      <point x="740.66" y="737.781" type="curve" smooth="yes"/>
      <point x="633.308" y="731.05"/>
      <point x="579.309" y="784.795"/>
      <point x="549.157" y="867" type="curve"/>
      <point x="454.339" y="470.233"/>
      <point x="437.369" y="422.067"/>
      <point x="338.157" y="26.4855" type="curve" smooth="yes"/>
      <point x="326.803" y="-18.7832"/>
      <point x="258.907" y="-1.74998"/>
      <point x="270.26" y="43.5145" type="curve" smooth="yes"/>
      <point x="339.188" y="318.345"/>
      <point x="368.371" y="425.272"/>
      <point x="411.589" y="598.131" type="curve"/>
      <point x="262.926" y="489.509"/>
      <point x="11.444" y="567.359"/>
      <point x="54.9948" y="767.914" type="curve" smooth="yes"/>
      <point x="145.683" y="1185.54" type="line" smooth="yes"/>
      <point x="155.656" y="1231.47"/>
      <point x="224.12" y="1216.88"/>
      <point x="214.157" y="1171" type="curve" smooth="yes"/>
      <point x="123.157" y="752" type="line" smooth="yes"/>
      <point x="94.686" y="620.91"/>
      <point x="349.141" y="556.048"/>
      <point x="424.942" y="722.332" type="curve" smooth="yes"/>
      <point x="463.155" y="806.159"/>
      <point x="518.322" y="1021.61"/>
      <point x="520.789" y="1218.74" type="curve" smooth="yes"/>
      <point x="521.374" y="1265.45"/>
      <point x="590.693" y="1265.59"/>
      <point x="590.789" y="1218.89" type="curve" smooth="yes"/>
      <point x="591.026" y="1103.53"/>
      <point x="540.534" y="797.54"/>
      <point x="735.122" y="807.561" type="curve" smooth="yes"/>
      <point x="828.797" y="812.385"/>
      <point x="934.781" y="828.433"/>
      <point x="979.016" y="916.391" type="curve" smooth="yes"/>
      <point x="1042.13" y="1041.89"/>
      <point x="1048.12" y="1147.4"/>
      <point x="1035.13" y="1254.34" type="curve" smooth="yes"/>
      <point x="1029.5" y="1300.67"/>
      <point x="1098.99" y="1309.12"/>
    </contour>
  </outline>
</glyph>
<glyph name="uni1227" format="2">
  <advance width="1410"/>
  <unicode hex="1227"/>
  <outline>
    <contour>
      <point x="1310.43" y="213.197" type="line" smooth="yes"/>
      <point x="1310.43" y="194.197"/>
      <point x="1294.42" y="178.147"/>
      <point x="1275.41" y="178.176" type="curve" smooth="yes"/>
      <point x="474.843" y="179.405" type="line" smooth="yes"/>
      <point x="455.828" y="179.434"/>
      <point x="439.822" y="195.425"/>
      <point x="439.822" y="214.425" type="curve" smooth="yes"/>
      <point x="439.822" y="215.449" type="line" smooth="yes"/>
      <point x="439.822" y="234.449"/>
      <point x="455.843" y="249.495"/>
      <point x="474.843" y="249.446" type="curve" smooth="yes"/>
      <point x="816.654" y="248.578" type="line"/>
      <point x="944.158" y="760" type="line"/>
      <point x="944.158" y="760"/>
      <point x="828.304" y="741.605"/>
      <point x="740.662" y="737.78" type="curve"/>
      <point x="633.197" y="733.093"/>
      <point x="579.31" y="784.795"/>
      <point x="549.158" y="867" type="curve"/>
      <point x="532.958" y="807.148"/>
      <point x="515.878" y="753.052"/>
      <point x="488.636" y="693.294" type="curve" smooth="yes"/>
      <point x="383.174" y="461.948"/>
      <point x="2.18151" y="524.699"/>
      <point x="54.996" y="767.914" type="curve" smooth="yes"/>
      <point x="145.684" y="1185.54" type="line" smooth="yes"/>
      <point x="155.657" y="1231.47"/>
      <point x="224.122" y="1216.88"/>
      <point x="214.158" y="1171" type="curve" smooth="yes"/>
      <point x="123.158" y="752" type="line" smooth="yes"/>
      <point x="94.6873" y="620.91"/>
      <point x="349.144" y="556.052"/>
      <point x="424.943" y="722.332" type="curve" smooth="yes"/>
      <point x="463.155" y="806.157"/>
      <point x="518.323" y="1021.59"/>
      <point x="520.79" y="1218.74" type="curve" smooth="yes"/>
      <point x="521.375" y="1265.45"/>
      <point x="590.694" y="1265.6"/>
      <point x="590.79" y="1218.89" type="curve" smooth="yes"/>
      <point x="591.027" y="1103.53"/>
      <point x="545.934" y="800.354"/>
      <point x="740.662" y="807.78" type="curve"/>
      <point x="877.607" y="813.005"/>
      <point x="963.158" y="836"/>
      <point x="963.158" y="836" type="curve"/>
      <point x="1072.16" y="1263" type="line" smooth="yes"/>
      <point x="1076.78" y="1281.12"/>
      <point x="1095.18" y="1293.15"/>
      <point x="1114.16" y="1289" type="curve" smooth="yes"/>
      <point x="1127.19" y="1286.15"/>
      <point x="1143.15" y="1275"/>
      <point x="1140.16" y="1263" type="curve" smooth="yes"/>
      <point x="886.696" y="248.414" type="line"/>
      <point x="1275.41" y="248.217" type="line" smooth="yes"/>
      <point x="1294.41" y="248.208"/>
      <point x="1310.43" y="233.221"/>
      <point x="1310.43" y="214.221" type="curve" smooth="yes"/>
    </contour>
  </outline>
</glyph>
<glyph name="uni1228" format="2">
  <advance width="965"/>
  <unicode hex="1228"/>
  <outline>
    <contour>
      <point x="830.343" y="0" type="curve" smooth="yes"/>
      <point x="377.343" y="0" type="line" smooth="yes"/>
      <point x="175.548" y="0"/>
      <point x="41.8325" y="106.157"/>
      <point x="50.388" y="304.256" type="curve" smooth="yes"/>
      <point x="63.2723" y="602.587"/>
      <point x="652.343" y="924.561"/>
      <point x="652.343" y="1183" type="curve" smooth="yes"/>
      <point x="652.343" y="1229.67"/>
      <point x="722.343" y="1229.67"/>
      <point x="722.343" y="1183" type="curve" smooth="yes"/>
      <point x="722.343" y="885.056"/>
      <point x="133.079" y="563.235"/>
      <point x="120.345" y="301.711" type="curve" smooth="yes"/>
      <point x="112.935" y="149.534"/>
      <point x="207.932" y="70"/>
      <point x="377.343" y="70" type="curve" smooth="yes"/>
      <point x="830.343" y="70" type="line" smooth="yes"/>
      <point x="877.008" y="70"/>
      <point x="877.008" y="0"/>
    </contour>
  </outline>
</glyph>
<glyph name="uni122A" format="2">
  <advance width="822"/>
  <unicode hex="122A"/>
  <outline>
    <contour>
      <point x="722.326" y="1183" type="curve" smooth="yes"/>
      <point x="722.326" y="885.052"/>
      <point x="133.06" y="563.247"/>
      <point x="120.328" y="301.711" type="curve"/>
      <point x="112.92" y="149.543"/>
      <point x="214.05" y="24.1835"/>
      <point x="377.326" y="70" type="curve" smooth="yes"/>
      <point x="527" y="112"/>
      <point x="645" y="238"/>
      <point x="645.285" y="337.982" type="curve" smooth="yes"/>
      <point x="645.345" y="359.077"/>
      <point x="638.872" y="378.396"/>
      <point x="633.925" y="389.585" type="curve" smooth="yes"/>
      <point x="626.247" y="406.951"/>
      <point x="635.721" y="428.025"/>
      <point x="653.349" y="435.109" type="curve"/>
      <point x="670.978" y="442.193"/>
      <point x="691.6" y="433.235"/>
      <point x="698.874" y="415.685" type="curve"/>
      <point x="709.506" y="392.601"/>
      <point x="715.186" y="366.195"/>
      <point x="715.286" y="337.982" type="curve" smooth="yes"/>
      <point x="715.702" y="219.92"/>
      <point x="618.394" y="70.2205"/>
      <point x="377.326" y="0" type="curve"/>
      <point x="181.922" y="-50.2238"/>
      <point x="41.817" y="106.158"/>
      <point x="50.3707" y="304.256" type="curve"/>
      <point x="63.2525" y="602.584"/>
      <point x="652.326" y="924.558"/>
      <point x="652.326" y="1183" type="curve"/>
      <point x="652.326" y="1229.67"/>
      <point x="722.326" y="1229.67"/>
    </contour>
  </outline>
</glyph>
<glyph name="uni122B" format="2">
  <advance width="1142"/>
  <unicode hex="122B"/>
  <outline>
    <contour>
      <point x="377.326" y="0" type="line" smooth="yes"/>
      <point x="181.91" y="-50.227"/>
      <point x="41.8183" y="106.159"/>
      <point x="50.3713" y="304.256" type="curve" smooth="yes"/>
      <point x="63.252" y="602.583"/>
      <point x="652.326" y="924.566"/>
      <point x="652.326" y="1183" type="curve" smooth="yes"/>
      <point x="652.326" y="1229.66"/>
      <point x="722.326" y="1229.66"/>
      <point x="722.326" y="1183" type="curve" smooth="yes"/>
      <point x="722.326" y="885.061"/>
      <point x="133.06" y="563.268"/>
      <point x="120.328" y="301.711" type="curve" smooth="yes"/>
      <point x="112.92" y="149.525"/>
      <point x="213.447" y="26.2583"/>
      <point x="377.326" y="70" type="curve" smooth="yes"/>
      <point x="590.725" y="126.959" type="line"/>
      <point x="624.324" y="405.58" type="line" smooth="yes"/>
      <point x="626.598" y="424.435"/>
      <point x="645.098" y="437.972"/>
      <point x="663.907" y="435.293" type="curve"/>
      <point x="1006.91" y="466.293" type="line" smooth="yes"/>
      <point x="1026.83" y="468.093"/>
      <point x="1041.91" y="451.293"/>
      <point x="1041.91" y="431.293" type="curve" smooth="yes"/>
      <point x="1041.91" y="412.293"/>
      <point x="1026.79" y="398.217"/>
      <point x="1006.91" y="396.293" type="curve" smooth="yes"/>
      <point x="696.907" y="366.293" type="line"/>
      <point x="695.598" y="369.029"/>
      <point x="693.465" y="372.479"/>
      <point x="690.864" y="376.373" type="curve"/>
      <point x="649.363" y="84.869" type="line" smooth="yes"/>
      <point x="648.238" y="76.9625"/>
      <point x="644.849" y="68.76"/>
      <point x="638" y="67" type="curve" smooth="yes"/>
    </contour>
  </outline>
</glyph>
<glyph name="uni122C" format="2">
  <advance width="826"/>
  <unicode hex="122C"/>
  <outline>
    <contour>
      <point x="725.657" y="172" type="curve" smooth="yes"/>
      <point x="725.657" y="76.4297"/>
      <point x="648.336" y="0"/>
      <point x="553" y="0" type="curve" smooth="yes"/>
      <point x="377.343" y="0" type="line" smooth="yes"/>
      <point x="175.55" y="0"/>
      <point x="41.8333" y="106.158"/>
      <point x="50.388" y="304.256" type="curve" smooth="yes"/>
      <point x="63.2715" y="602.586"/>
      <point x="652.343" y="924.562"/>
      <point x="652.343" y="1183" type="curve" smooth="yes"/>
      <point x="652.343" y="1229.67"/>
      <point x="722.343" y="1229.67"/>
      <point x="722.343" y="1183" type="curve" smooth="yes"/>
      <point x="722.343" y="885.057"/>
      <point x="133.078" y="563.234"/>
      <point x="120.345" y="301.711" type="curve" smooth="yes"/>
      <point x="112.935" y="149.535"/>
      <point x="207.964" y="66.343"/>
      <point x="377.343" y="70" type="curve" smooth="yes"/>
      <point x="423.657" y="71" type="line"/>
      <point x="402.657" y="99"/>
      <point x="381.657" y="134"/>
      <point x="381.657" y="172" type="curve" smooth="yes"/>
      <point x="381.657" y="267"/>
      <point x="458.657" y="344"/>
      <point x="553.657" y="344" type="curve" smooth="yes"/>
      <point x="648.657" y="344"/>
      <point x="725.657" y="267.002"/>
    </contour>
    <contour>
      <point x="655.657" y="172" type="curve" smooth="yes"/>
      <point x="655.657" y="228"/>
      <point x="609.657" y="274"/>
      <point x="553.657" y="274" type="curve" smooth="yes"/>
      <point x="497.657" y="274"/>
      <point x="451.657" y="228"/>
      <point x="451.657" y="172" type="curve" smooth="yes"/>
      <point x="451.657" y="116"/>
      <point x="497.657" y="70"/>
      <point x="553.657" y="70" type="curve" smooth="yes"/>
      <point x="609.657" y="70"/>
      <point x="655.657" y="116"/>
    </contour>
  </outline>
</glyph>
<glyph name="uni122D" format="2">
  <advance width="965"/>
  <unicode hex="122D"/>
  <outline>
    <contour>
      <point x="830.343" y="0" type="curve" smooth="yes"/>
      <point x="377.343" y="0" type="line" smooth="yes"/>
      <point x="175.548" y="0"/>
      <point x="41.833" y="106.157"/>
      <point x="50.388" y="304.256" type="curve" smooth="yes"/>
      <point x="63.2715" y="602.586"/>
      <point x="162" y="1183"/>
      <point x="162" y="1183" type="curve"/>
      <point x="162" y="1211.91"/>
      <point x="188.859" y="1222.91"/>
      <point x="209.303" y="1216" type="curve"/>
      <point x="607" y="1216" type="line" smooth="yes"/>
      <point x="626" y="1216"/>
      <point x="642" y="1200"/>
      <point x="642" y="1181" type="curve" smooth="yes"/>
      <point x="642" y="1162"/>
      <point x="626" y="1146"/>
      <point x="607" y="1146" type="curve" smooth="yes"/>
      <point x="229.078" y="1146" type="line"/>
      <point x="229.078" y="1146"/>
      <point x="132.555" y="552.49"/>
      <point x="120.344" y="301.712" type="curve" smooth="yes"/>
      <point x="112.933" y="149.486"/>
      <point x="207.932" y="70"/>
      <point x="377.343" y="70" type="curve" smooth="yes"/>
      <point x="830.343" y="70" type="line" smooth="yes"/>
      <point x="877.007" y="70"/>
      <point x="877.007" y="0"/>
    </contour>
  </outline>
</glyph>
<glyph name="uni122E" format="2">
  <advance width="965"/>
  <unicode hex="122E"/>
  <outline>
    <contour>
      <point x="830.343" y="0" type="curve" smooth="yes"/>
      <point x="377.343" y="0" type="line" smooth="yes"/>
      <point x="175.548" y="0"/>
      <point x="41.8335" y="106.158"/>
      <point x="50.388" y="304.256" type="curve" smooth="yes"/>
      <point x="63.271" y="602.586"/>
      <point x="162" y="1183"/>
      <point x="162" y="1183" type="curve"/>
      <point x="162" y="1211.91"/>
      <point x="188.859" y="1222.91"/>
      <point x="209.303" y="1216" type="curve"/>
      <point x="630.071" y="1218" type="line" smooth="yes"/>
      <point x="720.19" y="1218.43"/>
      <point x="790.071" y="1135"/>
      <point x="790.071" y="1044" type="curve" smooth="yes"/>
      <point x="790.071" y="948.998"/>
      <point x="713.071" y="871.998"/>
      <point x="618.071" y="871.998" type="curve" smooth="yes"/>
      <point x="523.071" y="871.998"/>
      <point x="446.071" y="948.998"/>
      <point x="446.071" y="1044" type="curve" smooth="yes"/>
      <point x="446.071" y="1083"/>
      <point x="459.071" y="1119"/>
      <point x="481.071" y="1148" type="curve"/>
      <point x="229.079" y="1146" type="line"/>
      <point x="229.079" y="1146"/>
      <point x="132.558" y="552.553"/>
      <point x="120.345" y="301.711" type="curve" smooth="yes"/>
      <point x="112.93" y="149.422"/>
      <point x="207.932" y="70"/>
      <point x="377.343" y="70" type="curve" smooth="yes"/>
      <point x="830.343" y="70" type="line" smooth="yes"/>
      <point x="877.008" y="70"/>
      <point x="877.008" y="0"/>
    </contour>
    <contour>
      <point x="720.071" y="1044" type="curve" smooth="yes"/>
      <point x="720.071" y="1101"/>
      <point x="674.071" y="1146"/>
      <point x="618.071" y="1146" type="curve" smooth="yes"/>
      <point x="562.071" y="1146"/>
      <point x="516.071" y="1101"/>
      <point x="516.071" y="1044" type="curve" smooth="yes"/>
      <point x="516.071" y="987.998"/>
      <point x="562.071" y="942.998"/>
      <point x="618.071" y="942.998" type="curve" smooth="yes"/>
      <point x="674.071" y="942.998"/>
      <point x="720.071" y="987.998"/>
    </contour>
  </outline>
</glyph>
<glyph name="uni122F" format="2">
  <advance width="1257"/>
  <unicode hex="122F"/>
  <outline>
    <contour>
      <point x="1122.09" y="1162.44" type="curve" smooth="yes"/>
      <point x="721.411" y="1162.44" type="line"/>
      <point x="695.671" y="870.3"/>
      <point x="132.852" y="557.24"/>
      <point x="120.413" y="301.67" type="curve" smooth="yes"/>
      <point x="113.005" y="149.481"/>
      <point x="213.296" y="26.3045"/>
      <point x="377.232" y="70.0415" type="curve" smooth="yes"/>
      <point x="590.634" y="126.976" type="line"/>
      <point x="624.221" y="405.504" type="line" smooth="yes"/>
      <point x="626.494" y="424.356"/>
      <point x="645.143" y="437.879"/>
      <point x="663.952" y="435.2" type="curve"/>
      <point x="1006.99" y="466.329" type="line" smooth="yes"/>
      <point x="1026.91" y="468.137"/>
      <point x="1041.81" y="451.309"/>
      <point x="1041.81" y="431.309" type="curve" smooth="yes"/>
      <point x="1041.81" y="412.309"/>
      <point x="1026.87" y="398.205"/>
      <point x="1006.99" y="396.288" type="curve" smooth="yes"/>
      <point x="696.925" y="366.387" type="line"/>
      <point x="695.616" y="369.124"/>
      <point x="693.382" y="372.528"/>
      <point x="690.781" y="376.423" type="curve"/>
      <point x="649.411" y="84.7874" type="line" smooth="yes"/>
      <point x="648.29" y="76.8804"/>
      <point x="644.792" y="68.7289"/>
      <point x="637.943" y="66.9696" type="curve" smooth="yes"/>
      <point x="377.232" y="0" type="line" smooth="yes"/>
      <point x="181.909" y="-50.1732"/>
      <point x="41.8188" y="106.236"/>
      <point x="50.3713" y="304.333" type="curve" smooth="yes"/>
      <point x="62.9123" y="594.812"/>
      <point x="621.746" y="907.613"/>
      <point x="651.074" y="1162.44" type="curve"/>
      <point x="283.434" y="1162.44" type="line" smooth="yes"/>
      <point x="236.769" y="1162.44"/>
      <point x="236.77" y="1232.49"/>
      <point x="283.434" y="1232.49" type="curve" smooth="yes"/>
      <point x="1122.09" y="1232.49" type="line" smooth="yes"/>
      <point x="1168.75" y="1232.49"/>
      <point x="1168.75" y="1162.44"/>
    </contour>
  </outline>
</glyph>
<glyph name="uni1230" format="2">
  <advance width="922"/>
  <unicode hex="1230"/>
  <outline>
    <contour>
      <point x="822" y="35" type="curve" smooth="yes"/>
      <point x="822" y="962" type="line" smooth="yes"/>
      <point x="822" y="1074"/>
      <point x="676" y="1200"/>
      <point x="560" y="1200" type="curve" smooth="yes"/>
      <point x="471" y="1200" type="line"/>
      <point x="471" y="1369" type="line" smooth="yes"/>
      <point x="471" y="1388"/>
      <point x="456" y="1404"/>
      <point x="436" y="1404" type="curve" smooth="yes"/>
      <point x="435" y="1404" type="line" smooth="yes"/>
      <point x="416" y="1404"/>
      <point x="401" y="1388"/>
      <point x="401" y="1369" type="curve" smooth="yes"/>
      <point x="401" y="1200" type="line"/>
      <point x="270" y="1199"/>
      <point x="50" y="1015.99"/>
      <point x="50" y="795" type="curve" smooth="yes"/>
      <point x="50" y="35" type="line" smooth="yes"/>
      <point x="50" y="16"/>
      <point x="66" y="0"/>
      <point x="85" y="0" type="curve" smooth="yes"/>
      <point x="105" y="0"/>
      <point x="120" y="16"/>
      <point x="120" y="35" type="curve" smooth="yes"/>
      <point x="120" y="795" type="line" smooth="yes"/>
      <point x="120" y="966"/>
      <point x="298" y="1130"/>
      <point x="403" y="1130" type="curve" smooth="yes"/>
      <point x="560" y="1130" type="line" smooth="yes"/>
      <point x="645" y="1130"/>
      <point x="752" y="1028"/>
      <point x="752" y="962" type="curve" smooth="yes"/>
      <point x="752" y="35" type="line" smooth="yes"/>
      <point x="752" y="16"/>
      <point x="767" y="0"/>
      <point x="787" y="0" type="curve" smooth="yes"/>
      <point x="806" y="0"/>
      <point x="822" y="16"/>
    </contour>
  </outline>
</glyph>
<glyph name="uni1231" format="2">
  <advance width="1355"/>
  <unicode hex="1231"/>
  <outline>
    <contour>
      <point x="822" y="35" type="curve" smooth="yes"/>
      <point x="822" y="662.118" type="line"/>
      <point x="1220" y="662.118" type="line" smooth="yes"/>
      <point x="1239" y="662.118"/>
      <point x="1255" y="678.118"/>
      <point x="1255" y="697.118" type="curve" smooth="yes"/>
      <point x="1255" y="698.118" type="line" smooth="yes"/>
      <point x="1255" y="717.118"/>
      <point x="1239" y="732.118"/>
      <point x="1220" y="732.118" type="curve" smooth="yes"/>
      <point x="822" y="732.118" type="line"/>
      <point x="822" y="962" type="line" smooth="yes"/>
      <point x="822" y="1074"/>
      <point x="676" y="1200"/>
      <point x="560" y="1200" type="curve" smooth="yes"/>
      <point x="471" y="1200" type="line"/>
      <point x="471" y="1369" type="line" smooth="yes"/>
      <point x="471" y="1388"/>
      <point x="456" y="1404"/>
      <point x="436" y="1404" type="curve" smooth="yes"/>
      <point x="435" y="1404" type="line" smooth="yes"/>
      <point x="416" y="1404"/>
      <point x="401" y="1388"/>
      <point x="401" y="1369" type="curve" smooth="yes"/>
      <point x="401" y="1200" type="line"/>
      <point x="270" y="1199"/>
      <point x="50" y="1015.99"/>
      <point x="50" y="795" type="curve" smooth="yes"/>
      <point x="50" y="35" type="line" smooth="yes"/>
      <point x="50" y="16"/>
      <point x="66" y="0"/>
      <point x="85" y="0" type="curve" smooth="yes"/>
      <point x="105" y="0"/>
      <point x="120" y="16"/>
      <point x="120" y="35" type="curve" smooth="yes"/>
      <point x="120" y="795" type="line" smooth="yes"/>
      <point x="120" y="966"/>
      <point x="298" y="1130"/>
      <point x="403" y="1130" type="curve" smooth="yes"/>
      <point x="560" y="1130" type="line" smooth="yes"/>
      <point x="645" y="1130"/>
      <point x="752" y="1028"/>
      <point x="752" y="962" type="curve" smooth="yes"/>
      <point x="752" y="35" type="line" smooth="yes"/>
      <point x="752" y="16"/>
      <point x="767" y="0"/>
      <point x="787" y="0" type="curve" smooth="yes"/>
      <point x="806" y="0"/>
      <point x="822" y="16"/>
    </contour>
  </outline>
</glyph>
<glyph name="uni1233" format="2">
  <advance width="922"/>
  <unicode hex="1233"/>
  <outline>
    <contour>
      <point x="822" y="35" type="curve" smooth="yes"/>
      <point x="822" y="962" type="line" smooth="yes"/>
      <point x="822" y="1074"/>
      <point x="676" y="1200"/>
      <point x="560" y="1200" type="curve" smooth="yes"/>
      <point x="471" y="1200" type="line"/>
      <point x="471" y="1369" type="line" smooth="yes"/>
      <point x="471" y="1388"/>
      <point x="456" y="1404"/>
      <point x="436" y="1404" type="curve" smooth="yes"/>
      <point x="435" y="1404" type="line" smooth="yes"/>
      <point x="416" y="1404"/>
      <point x="401" y="1388"/>
      <point x="401" y="1369" type="curve" smooth="yes"/>
      <point x="401" y="1200" type="line"/>
      <point x="270" y="1199"/>
      <point x="50" y="1016"/>
      <point x="50" y="795" type="curve" smooth="yes"/>
      <point x="50" y="385" type="line" smooth="yes"/>
      <point x="50" y="366"/>
      <point x="66" y="350"/>
      <point x="85" y="350" type="curve" smooth="yes"/>
      <point x="105" y="350"/>
      <point x="120" y="366"/>
      <point x="120" y="385" type="curve" smooth="yes"/>
      <point x="120" y="795" type="line" smooth="yes"/>
      <point x="120" y="967.007"/>
      <point x="298" y="1130"/>
      <point x="403" y="1130" type="curve" smooth="yes"/>
      <point x="560" y="1130" type="line" smooth="yes"/>
      <point x="645" y="1130"/>
      <point x="752" y="1028"/>
      <point x="752" y="962" type="curve" smooth="yes"/>
      <point x="752" y="35" type="line" smooth="yes"/>
      <point x="752" y="16"/>
      <point x="767" y="0"/>
      <point x="787" y="0" type="curve" smooth="yes"/>
      <point x="806" y="0"/>
      <point x="822" y="16"/>
    </contour>
  </outline>
</glyph>
<glyph name="uni1234" format="2">
  <advance width="1205"/>
  <unicode hex="1234"/>
  <outline>
    <contour>
      <point x="1035" y="172" type="curve" smooth="yes"/>
      <point x="1035" y="116"/>
      <point x="989" y="70"/>
      <point x="933" y="70" type="curve" smooth="yes"/>
      <point x="877" y="70"/>
      <point x="831" y="116"/>
      <point x="831" y="172" type="curve" smooth="yes"/>
      <point x="831" y="228"/>
      <point x="877" y="274"/>
      <point x="933" y="274" type="curve" smooth="yes"/>
      <point x="989" y="274"/>
      <point x="1035" y="228"/>
    </contour>
    <contour>
      <point x="120" y="35" type="curve" smooth="yes"/>
      <point x="120" y="795" type="line" smooth="yes"/>
      <point x="120" y="966"/>
      <point x="298" y="1130"/>
      <point x="403" y="1130" type="curve" smooth="yes"/>
      <point x="560" y="1130" type="line" smooth="yes"/>
      <point x="645" y="1130"/>
      <point x="752.084" y="1028.01"/>
      <point x="752" y="962" type="curve" smooth="yes"/>
      <point x="751" y="172" type="line" smooth="yes"/>
      <point x="750.88" y="76.9942"/>
      <point x="838" y="0"/>
      <point x="933" y="0" type="curve" smooth="yes"/>
      <point x="1028" y="0"/>
      <point x="1105" y="77"/>
      <point x="1105" y="172" type="curve" smooth="yes"/>
      <point x="1105" y="267"/>
      <point x="1028" y="344"/>
      <point x="933" y="344" type="curve" smooth="yes"/>
      <point x="890" y="344"/>
      <point x="851" y="328"/>
      <point x="821" y="303" type="curve"/>
      <point x="821" y="962" type="line" smooth="yes"/>
      <point x="821" y="1074"/>
      <point x="676" y="1200"/>
      <point x="560" y="1200" type="curve" smooth="yes"/>
      <point x="471" y="1200" type="line"/>
      <point x="471" y="1369" type="line" smooth="yes"/>
      <point x="471" y="1388"/>
      <point x="456" y="1404"/>
      <point x="436" y="1404" type="curve" smooth="yes"/>
      <point x="435" y="1404" type="line" smooth="yes"/>
      <point x="416" y="1404"/>
      <point x="401" y="1388"/>
      <point x="401" y="1369" type="curve" smooth="yes"/>
      <point x="401" y="1200" type="line"/>
      <point x="270" y="1199"/>
      <point x="50" y="1015.99"/>
      <point x="50" y="795" type="curve" smooth="yes"/>
      <point x="50" y="35" type="line" smooth="yes"/>
      <point x="50" y="16"/>
      <point x="66" y="0"/>
      <point x="85" y="0" type="curve" smooth="yes"/>
      <point x="105" y="0"/>
      <point x="120" y="16"/>
    </contour>
  </outline>
</glyph>
<glyph name="uni1236" format="2">
  <advance width="922"/>
  <unicode hex="1236"/>
  <outline>
    <contour>
      <point x="120" y="35" type="curve" smooth="yes"/>
      <point x="120" y="795" type="line" smooth="yes"/>
      <point x="120" y="966"/>
      <point x="298" y="1130"/>
      <point x="403" y="1130" type="curve" smooth="yes"/>
      <point x="560" y="1130" type="line" smooth="yes"/>
      <point x="645" y="1130"/>
      <point x="752" y="1028"/>
      <point x="752" y="962" type="curve" smooth="yes"/>
      <point x="752" y="386" type="line" smooth="yes"/>
      <point x="752" y="367"/>
      <point x="767" y="351"/>
      <point x="787" y="351" type="curve" smooth="yes"/>
      <point x="806" y="351"/>
      <point x="822" y="367"/>
      <point x="822" y="386" type="curve" smooth="yes"/>
      <point x="822" y="962" type="line" smooth="yes"/>
      <point x="822" y="1074"/>
      <point x="676" y="1200"/>
      <point x="560" y="1200" type="curve" smooth="yes"/>
      <point x="471" y="1200" type="line"/>
      <point x="471" y="1369" type="line" smooth="yes"/>
      <point x="471" y="1388"/>
      <point x="456" y="1404"/>
      <point x="436" y="1404" type="curve" smooth="yes"/>
      <point x="435" y="1404" type="line" smooth="yes"/>
      <point x="416" y="1404"/>
      <point x="401" y="1388"/>
      <point x="401" y="1369" type="curve" smooth="yes"/>
      <point x="401" y="1200" type="line"/>
      <point x="270" y="1199"/>
      <point x="50" y="1015.99"/>
      <point x="50" y="795" type="curve" smooth="yes"/>
      <point x="50" y="35" type="line" smooth="yes"/>
      <point x="50" y="16"/>
      <point x="66" y="0"/>
      <point x="85" y="0" type="curve" smooth="yes"/>
      <point x="105" y="0"/>
      <point x="120" y="16"/>
    </contour>
  </outline>
</glyph>
<glyph name="uni1237" format="2">
  <advance width="1362"/>
  <unicode hex="1237"/>
  <outline>
    <contour>
      <point x="1261.8" y="213.197" type="line" smooth="yes"/>
      <point x="1261.8" y="194.197"/>
      <point x="1245.79" y="178.147"/>
      <point x="1226.78" y="178.176" type="curve" smooth="yes"/>
      <point x="426.218" y="179.405" type="line" smooth="yes"/>
      <point x="407.211" y="179.434"/>
      <point x="391.197" y="195.425"/>
      <point x="391.197" y="214.425" type="curve" smooth="yes"/>
      <point x="391.197" y="215.449" type="line" smooth="yes"/>
      <point x="391.197" y="234.449"/>
      <point x="407.217" y="249.505"/>
      <point x="426.218" y="249.446" type="curve" smooth="yes"/>
      <point x="752.054" y="248.447" type="line"/>
      <point x="752.054" y="961.945" type="line" smooth="yes"/>
      <point x="752.054" y="1027.95"/>
      <point x="644.955" y="1130.09"/>
      <point x="559.952" y="1130.09" type="curve" smooth="yes"/>
      <point x="403.075" y="1130.09" type="line" smooth="yes"/>
      <point x="298.072" y="1130.09"/>
      <point x="120.042" y="967.052"/>
      <point x="120.042" y="795.033" type="curve" smooth="yes"/>
      <point x="120.042" y="385.024" type="line" smooth="yes"/>
      <point x="120.042" y="366.022"/>
      <point x="105.021" y="350.003"/>
      <point x="85.0208" y="350.003" type="curve" smooth="yes"/>
      <point x="66.0208" y="350.003"/>
      <point x="50" y="366.022"/>
      <point x="50" y="385.024" type="curve" smooth="yes"/>
      <point x="50" y="795.033" type="line" smooth="yes"/>
      <point x="50" y="1016.04"/>
      <point x="270.027" y="1198.92"/>
      <point x="401.027" y="1199.92" type="curve"/>
      <point x="401.027" y="1369.09" type="line" smooth="yes"/>
      <point x="401.027" y="1388.09"/>
      <point x="416.024" y="1403.9"/>
      <point x="435.024" y="1403.9" type="curve" smooth="yes"/>
      <point x="436.048" y="1403.9" type="line" smooth="yes"/>
      <point x="456.048" y="1403.9"/>
      <point x="471.069" y="1388.09"/>
      <point x="471.069" y="1369.09" type="curve" smooth="yes"/>
      <point x="471.069" y="1199.92" type="line"/>
      <point x="559.952" y="1199.92" type="line" smooth="yes"/>
      <point x="675.956" y="1199.92"/>
      <point x="822.096" y="1073.95"/>
      <point x="822.096" y="961.945" type="curve" smooth="yes"/>
      <point x="822.096" y="248.398" type="line"/>
      <point x="1226.78" y="248.217" type="line" smooth="yes"/>
      <point x="1245.79" y="248.209"/>
      <point x="1261.8" y="233.221"/>
      <point x="1261.8" y="214.221" type="curve" smooth="yes"/>
    </contour>
  </outline>
</glyph>
<glyph name="uni1239" format="2">
  <advance width="1355"/>
  <unicode hex="1239"/>
  <outline>
    <contour>
      <point x="822" y="35" type="curve" smooth="yes"/>
      <point x="822" y="541" type="line"/>
      <point x="1220" y="541" type="line" smooth="yes"/>
      <point x="1239" y="541"/>
      <point x="1255" y="557"/>
      <point x="1255" y="576" type="curve" smooth="yes"/>
      <point x="1255" y="577" type="line" smooth="yes"/>
      <point x="1255" y="596"/>
      <point x="1239" y="611"/>
      <point x="1220" y="611" type="curve" smooth="yes"/>
      <point x="822" y="611" type="line"/>
      <point x="822" y="902" type="line" smooth="yes"/>
      <point x="822" y="1014"/>
      <point x="676" y="1140"/>
      <point x="560" y="1140" type="curve" smooth="yes"/>
      <point x="526" y="1140" type="line"/>
      <point x="528.883" y="1337.97" type="line"/>
      <point x="809.812" y="1362.55" type="line" smooth="yes"/>
      <point x="829.736" y="1364.29"/>
      <point x="843.373" y="1380.54"/>
      <point x="841.628" y="1400.46" type="curve"/>
      <point x="841.541" y="1401.46" type="line"/>
      <point x="839.883" y="1420.39"/>
      <point x="822.638" y="1433.94"/>
      <point x="803.711" y="1432.28" type="curve" smooth="yes"/>
      <point x="154.188" y="1375.45" type="line" smooth="yes"/>
      <point x="135.26" y="1373.8"/>
      <point x="120.716" y="1356.46"/>
      <point x="122.371" y="1337.54" type="curve" smooth="yes"/>
      <point x="124.114" y="1317.61"/>
      <point x="141.361" y="1304.06"/>
      <point x="160.289" y="1305.72" type="curve" smooth="yes"/>
      <point x="459.149" y="1331.87" type="line"/>
      <point x="456" y="1140" type="line"/>
      <point x="403" y="1140" type="line" smooth="yes"/>
      <point x="272" y="1140"/>
      <point x="50" y="957"/>
      <point x="50" y="735" type="curve" smooth="yes"/>
      <point x="50" y="35" type="line" smooth="yes"/>
      <point x="50" y="16"/>
      <point x="66" y="0"/>
      <point x="85" y="0" type="curve" smooth="yes"/>
      <point x="105" y="0"/>
      <point x="120" y="16"/>
      <point x="120" y="35" type="curve" smooth="yes"/>
      <point x="120" y="735" type="line" smooth="yes"/>
      <point x="120" y="906"/>
      <point x="298" y="1070"/>
      <point x="403" y="1070" type="curve" smooth="yes"/>
      <point x="560" y="1070" type="line" smooth="yes"/>
      <point x="645" y="1070"/>
      <point x="752" y="968.02"/>
      <point x="752" y="902" type="curve" smooth="yes"/>
      <point x="752" y="35" type="line" smooth="yes"/>
      <point x="752" y="15.995"/>
      <point x="767" y="0"/>
      <point x="787" y="0" type="curve" smooth="yes"/>
      <point x="806" y="0"/>
      <point x="822" y="16"/>
    </contour>
  </outline>
</glyph>
<glyph name="uni123A" format="2">
  <advance width="1355"/>
  <unicode hex="123A"/>
  <outline>
    <contour>
      <point x="120" y="35" type="curve" smooth="yes"/>
      <point x="120" y="735" type="line" smooth="yes"/>
      <point x="120" y="906"/>
      <point x="298" y="1070"/>
      <point x="403" y="1070" type="curve" smooth="yes"/>
      <point x="560" y="1070" type="line" smooth="yes"/>
      <point x="645" y="1070"/>
      <point x="752.076" y="968.02"/>
      <point x="752" y="902" type="curve" smooth="yes"/>
      <point x="751" y="35" type="line" smooth="yes"/>
      <point x="750.978" y="15.995"/>
      <point x="767" y="0"/>
      <point x="786" y="0" type="curve" smooth="yes"/>
      <point x="1220" y="0" type="line" smooth="yes"/>
      <point x="1240" y="0"/>
      <point x="1255" y="16"/>
      <point x="1255" y="35" type="curve" smooth="yes"/>
      <point x="1255" y="55"/>
      <point x="1239" y="70"/>
      <point x="1220" y="70" type="curve" smooth="yes"/>
      <point x="822" y="70" type="line"/>
      <point x="822" y="902" type="line" smooth="yes"/>
      <point x="822" y="1014"/>
      <point x="676" y="1140"/>
      <point x="560" y="1140" type="curve" smooth="yes"/>
      <point x="538" y="1140" type="line"/>
      <point x="540.862" y="1338.45" type="line"/>
      <point x="822.787" y="1363.11" type="line" smooth="yes"/>
      <point x="841.715" y="1364.77"/>
      <point x="856.347" y="1381.11"/>
      <point x="854.604" y="1401.03" type="curve" smooth="yes"/>
      <point x="852.948" y="1419.96"/>
      <point x="835.615" y="1434.5"/>
      <point x="816.686" y="1432.85" type="curve" smooth="yes"/>
      <point x="284.74" y="1386.31"/>
      <point x="171.125" y="1376.88"/>
      <point x="152.22" y="1374.71" type="curve" smooth="yes"/>
      <point x="134.335" y="1372.66"/>
      <point x="120.74" y="1355.9"/>
      <point x="122.396" y="1336.97" type="curve" smooth="yes"/>
      <point x="124.052" y="1318.04"/>
      <point x="141.386" y="1303.5"/>
      <point x="160.314" y="1305.15" type="curve" smooth="yes"/>
      <point x="471.128" y="1332.35" type="line"/>
      <point x="469" y="1140" type="line"/>
      <point x="403" y="1140" type="line" smooth="yes"/>
      <point x="272" y="1140"/>
      <point x="50" y="957"/>
      <point x="50" y="735" type="curve" smooth="yes"/>
      <point x="50" y="35" type="line" smooth="yes"/>
      <point x="50" y="16"/>
      <point x="66" y="0"/>
      <point x="85" y="0" type="curve" smooth="yes"/>
      <point x="105" y="0"/>
      <point x="120" y="16"/>
    </contour>
  </outline>
</glyph>
<glyph name="uni123B" format="2">
  <advance width="942"/>
  <unicode hex="123B"/>
  <outline>
    <contour>
      <point x="822" y="35" type="curve" smooth="yes"/>
      <point x="822" y="902" type="line" smooth="yes"/>
      <point x="822" y="1014.01"/>
      <point x="676" y="1140"/>
      <point x="560" y="1140" type="curve" smooth="yes"/>
      <point x="526" y="1140" type="line"/>
      <point x="528.883" y="1337.97" type="line"/>
      <point x="809.812" y="1362.55" type="line" smooth="yes"/>
      <point x="829.736" y="1364.29"/>
      <point x="843.373" y="1380.54"/>
      <point x="841.628" y="1400.46" type="curve"/>
      <point x="841.541" y="1401.46" type="line"/>
      <point x="839.883" y="1420.39"/>
      <point x="822.638" y="1433.94"/>
      <point x="803.711" y="1432.28" type="curve" smooth="yes"/>
      <point x="154.188" y="1375.45" type="line" smooth="yes"/>
      <point x="135.26" y="1373.8"/>
      <point x="120.716" y="1356.46"/>
      <point x="122.371" y="1337.54" type="curve" smooth="yes"/>
      <point x="124.114" y="1317.61"/>
      <point x="141.361" y="1304.06"/>
      <point x="160.289" y="1305.72" type="curve" smooth="yes"/>
      <point x="459.149" y="1331.87" type="line"/>
      <point x="456" y="1140" type="line"/>
      <point x="403" y="1140" type="line" smooth="yes"/>
      <point x="272" y="1140"/>
      <point x="50" y="957"/>
      <point x="50" y="735" type="curve" smooth="yes"/>
      <point x="50" y="385" type="line" smooth="yes"/>
      <point x="50" y="366"/>
      <point x="66" y="350"/>
      <point x="85" y="350" type="curve" smooth="yes"/>
      <point x="105" y="350"/>
      <point x="120" y="366"/>
      <point x="120" y="385" type="curve" smooth="yes"/>
      <point x="120" y="735" type="line" smooth="yes"/>
      <point x="120" y="907"/>
      <point x="298" y="1070"/>
      <point x="403" y="1070" type="curve" smooth="yes"/>
      <point x="560" y="1070" type="line" smooth="yes"/>
      <point x="645" y="1070"/>
      <point x="752" y="968.02"/>
      <point x="752" y="902" type="curve" smooth="yes"/>
      <point x="752" y="35" type="line" smooth="yes"/>
      <point x="752" y="15.995"/>
      <point x="767" y="0"/>
      <point x="787" y="0" type="curve" smooth="yes"/>
      <point x="806" y="0"/>
      <point x="822" y="15.995"/>
    </contour>
  </outline>
</glyph>
<glyph name="uni123C" format="2">
  <advance width="1207"/>
  <unicode hex="123C"/>
  <outline>
    <contour>
      <point x="1037" y="172" type="curve" smooth="yes"/>
      <point x="1037" y="116"/>
      <point x="992" y="70"/>
      <point x="935" y="70" type="curve" smooth="yes"/>
      <point x="879" y="70"/>
      <point x="834" y="116"/>
      <point x="834" y="172" type="curve" smooth="yes"/>
      <point x="834" y="228"/>
      <point x="879" y="274"/>
      <point x="935" y="274" type="curve" smooth="yes"/>
      <point x="992" y="274"/>
      <point x="1037" y="228"/>
    </contour>
    <contour>
      <point x="120" y="35" type="curve" smooth="yes"/>
      <point x="120" y="735" type="line" smooth="yes"/>
      <point x="120" y="906"/>
      <point x="298" y="1070"/>
      <point x="403" y="1070" type="curve" smooth="yes"/>
      <point x="560" y="1070" type="line" smooth="yes"/>
      <point x="645" y="1070"/>
      <point x="753" y="968.001"/>
      <point x="753" y="902" type="curve" smooth="yes"/>
      <point x="753" y="172" type="line" smooth="yes"/>
      <point x="753" y="76.998"/>
      <point x="840" y="0"/>
      <point x="935" y="0" type="curve" smooth="yes"/>
      <point x="1030" y="0"/>
      <point x="1107" y="77"/>
      <point x="1107" y="172" type="curve" smooth="yes"/>
      <point x="1107" y="267"/>
      <point x="1030" y="344"/>
      <point x="935" y="344" type="curve" smooth="yes"/>
      <point x="893" y="344"/>
      <point x="854" y="328"/>
      <point x="824" y="303" type="curve"/>
      <point x="822" y="902" type="line" smooth="yes"/>
      <point x="821.626" y="1014"/>
      <point x="676" y="1140"/>
      <point x="560" y="1140" type="curve" smooth="yes"/>
      <point x="538" y="1140" type="line"/>
      <point x="540.885" y="1337.92" type="line"/>
      <point x="822.81" y="1362.59" type="line" smooth="yes"/>
      <point x="841.738" y="1364.25"/>
      <point x="856.372" y="1380.58"/>
      <point x="854.627" y="1400.51" type="curve"/>
      <point x="854.539" y="1401.5" type="line"/>
      <point x="852.882" y="1420.43"/>
      <point x="835.637" y="1433.98"/>
      <point x="816.709" y="1432.32" type="curve" smooth="yes"/>
      <point x="166.19" y="1375.41" type="line" smooth="yes"/>
      <point x="147.262" y="1373.75"/>
      <point x="132.718" y="1356.42"/>
      <point x="134.374" y="1337.49" type="curve" smooth="yes"/>
      <point x="136.117" y="1317.57"/>
      <point x="153.363" y="1304.02"/>
      <point x="172.291" y="1305.68" type="curve" smooth="yes"/>
      <point x="471.151" y="1331.82" type="line"/>
      <point x="469" y="1140" type="line"/>
      <point x="403" y="1140" type="line" smooth="yes"/>
      <point x="272" y="1140"/>
      <point x="50" y="957"/>
      <point x="50" y="735" type="curve" smooth="yes"/>
      <point x="50" y="35" type="line" smooth="yes"/>
      <point x="50" y="16"/>
      <point x="66" y="0"/>
      <point x="85" y="0" type="curve" smooth="yes"/>
      <point x="105" y="0"/>
      <point x="120" y="16"/>
    </contour>
  </outline>
</glyph>
<glyph name="uni123D" format="2">
  <advance width="962"/>
  <unicode hex="123D"/>
  <outline>
    <contour>
      <point x="88.0462" y="1306.9" type="curve" smooth="yes"/>
      <point x="351.043" y="1329.91" type="line"/>
      <point x="458.809" y="1140" type="line"/>
      <point x="442.809" y="1140" type="line" smooth="yes"/>
      <point x="311.809" y="1140"/>
      <point x="89.8085" y="957"/>
      <point x="89.8085" y="735" type="curve" smooth="yes"/>
      <point x="89.8085" y="35" type="line" smooth="yes"/>
      <point x="89.8085" y="16"/>
      <point x="105.809" y="0"/>
      <point x="124.809" y="0" type="curve" smooth="yes"/>
      <point x="144.809" y="0"/>
      <point x="159.809" y="16"/>
      <point x="159.809" y="35" type="curve" smooth="yes"/>
      <point x="159.809" y="735" type="line" smooth="yes"/>
      <point x="159.809" y="906"/>
      <point x="337.809" y="1070"/>
      <point x="442.809" y="1070" type="curve" smooth="yes"/>
      <point x="599.809" y="1070" type="line" smooth="yes"/>
      <point x="684.809" y="1070"/>
      <point x="791.809" y="968.02"/>
      <point x="791.809" y="902" type="curve" smooth="yes"/>
      <point x="791.809" y="35" type="line" smooth="yes"/>
      <point x="791.809" y="15.995"/>
      <point x="806.809" y="0"/>
      <point x="826.809" y="0" type="curve" smooth="yes"/>
      <point x="845.809" y="0"/>
      <point x="861.809" y="15.995"/>
      <point x="861.809" y="35" type="curve" smooth="yes"/>
      <point x="861.809" y="902" type="line" smooth="yes"/>
      <point x="861.809" y="1014.01"/>
      <point x="716.809" y="1140"/>
      <point x="599.809" y="1140" type="curve" smooth="yes"/>
      <point x="540.809" y="1140" type="line"/>
      <point x="432.732" y="1337.05" type="line"/>
      <point x="710.672" y="1361.37" type="line" smooth="yes"/>
      <point x="729.6" y="1363.03"/>
      <point x="744.233" y="1379.36"/>
      <point x="742.488" y="1399.29" type="curve"/>
      <point x="742.401" y="1400.28" type="line"/>
      <point x="740.744" y="1419.21"/>
      <point x="723.498" y="1432.76"/>
      <point x="704.571" y="1431.1" type="curve" smooth="yes"/>
      <point x="81.9453" y="1376.63" type="line" smooth="yes"/>
      <point x="63.0183" y="1374.97"/>
      <point x="48.4731" y="1357.64"/>
      <point x="50.1289" y="1338.71" type="curve" smooth="yes"/>
      <point x="51.8719" y="1318.79"/>
      <point x="69.1186" y="1305.24"/>
    </contour>
  </outline>
</glyph>
<glyph name="uni123E" format="2">
  <advance width="955"/>
  <unicode hex="123E"/>
  <outline>
    <contour>
      <point x="120" y="35" type="curve" smooth="yes"/>
      <point x="120" y="735" type="line" smooth="yes"/>
      <point x="120" y="906"/>
      <point x="298" y="1070"/>
      <point x="403" y="1070" type="curve" smooth="yes"/>
      <point x="560" y="1070" type="line" smooth="yes"/>
      <point x="645" y="1070"/>
      <point x="752" y="968"/>
      <point x="752" y="902" type="curve" smooth="yes"/>
      <point x="752" y="386" type="line" smooth="yes"/>
      <point x="752" y="367"/>
      <point x="767" y="351"/>
      <point x="787" y="351" type="curve" smooth="yes"/>
      <point x="806" y="351"/>
      <point x="822" y="367"/>
      <point x="822" y="386" type="curve" smooth="yes"/>
      <point x="822" y="902" type="line" smooth="yes"/>
      <point x="822" y="1014"/>
      <point x="676" y="1140"/>
      <point x="560" y="1140" type="curve" smooth="yes"/>
      <point x="538" y="1140" type="line"/>
      <point x="540.885" y="1337.92" type="line"/>
      <point x="822.81" y="1362.59" type="line" smooth="yes"/>
      <point x="841.738" y="1364.25"/>
      <point x="856.372" y="1380.58"/>
      <point x="854.627" y="1400.51" type="curve"/>
      <point x="854.539" y="1401.5" type="line"/>
      <point x="852.882" y="1420.43"/>
      <point x="835.637" y="1433.98"/>
      <point x="816.709" y="1432.32" type="curve" smooth="yes"/>
      <point x="166.19" y="1375.41" type="line" smooth="yes"/>
      <point x="147.262" y="1373.75"/>
      <point x="132.718" y="1356.42"/>
      <point x="134.374" y="1337.49" type="curve" smooth="yes"/>
      <point x="136.117" y="1317.57"/>
      <point x="153.363" y="1304.02"/>
      <point x="172.291" y="1305.68" type="curve" smooth="yes"/>
      <point x="471.151" y="1331.82" type="line"/>
      <point x="469" y="1140" type="line"/>
      <point x="403" y="1140" type="line" smooth="yes"/>
      <point x="272" y="1140"/>
      <point x="50" y="957"/>
      <point x="50" y="735" type="curve" smooth="yes"/>
      <point x="50" y="35" type="line" smooth="yes"/>
      <point x="50" y="16"/>
      <point x="66" y="0"/>
      <point x="85" y="0" type="curve" smooth="yes"/>
      <point x="105" y="0"/>
      <point x="120" y="16"/>
    </contour>
  </outline>
</glyph>
<glyph name="uni123F" format="2">
  <advance width="1346"/>
  <unicode hex="123F"/>
  <outline>
    <contour>
      <point x="1245.8" y="213.197" type="line" smooth="yes"/>
      <point x="1245.8" y="194.197"/>
      <point x="1229.86" y="178.147"/>
      <point x="1210.78" y="178.176" type="curve" smooth="yes"/>
      <point x="410.214" y="179.405" type="line" smooth="yes"/>
      <point x="391.133" y="179.434"/>
      <point x="375.193" y="195.425"/>
      <point x="375.193" y="214.425" type="curve" smooth="yes"/>
      <point x="375.193" y="215.449" type="line" smooth="yes"/>
      <point x="375.193" y="234.449"/>
      <point x="391.214" y="249.494"/>
      <point x="410.214" y="249.446" type="curve" smooth="yes"/>
      <point x="752.025" y="248.594" type="line"/>
      <point x="752.025" y="901.939" type="line" smooth="yes"/>
      <point x="752.025" y="967.963"/>
      <point x="644.926" y="1070.08"/>
      <point x="559.923" y="1070.08" type="curve" smooth="yes"/>
      <point x="403.046" y="1070.08" type="line" smooth="yes"/>
      <point x="298.043" y="1070.08"/>
      <point x="120.013" y="907.029"/>
      <point x="120.013" y="735.027" type="curve" smooth="yes"/>
      <point x="120.013" y="385.024" type="line" smooth="yes"/>
      <point x="120.013" y="366.024"/>
      <point x="104.992" y="350.003"/>
      <point x="84.992" y="350.003" type="curve" smooth="yes"/>
      <point x="65.992" y="350.003"/>
      <point x="49.9712" y="366.024"/>
      <point x="49.9712" y="385.024" type="curve" smooth="yes"/>
      <point x="49.9712" y="735.027" type="line" smooth="yes"/>
      <point x="49.9712" y="957.029"/>
      <point x="272.039" y="1139.92"/>
      <point x="403.046" y="1139.92" type="curve" smooth="yes"/>
      <point x="456.089" y="1139.92" type="line"/>
      <point x="459.161" y="1331.81" type="line"/>
      <point x="160.358" y="1305.8" type="line" smooth="yes"/>
      <point x="141.43" y="1304.16"/>
      <point x="124.213" y="1317.62"/>
      <point x="122.47" y="1337.55" type="curve" smooth="yes"/>
      <point x="120.815" y="1356.47"/>
      <point x="135.287" y="1373.78"/>
      <point x="154.214" y="1375.44" type="curve" smooth="yes"/>
      <point x="803.635" y="1432.37" type="line" smooth="yes"/>
      <point x="822.563" y="1434.03"/>
      <point x="839.866" y="1420.37"/>
      <point x="841.523" y="1401.45" type="curve"/>
      <point x="841.728" y="1400.42" type="line"/>
      <point x="843.473" y="1380.5"/>
      <point x="829.704" y="1364.28"/>
      <point x="809.779" y="1362.53" type="curve" smooth="yes"/>
      <point x="528.794" y="1337.96" type="line"/>
      <point x="525.927" y="1139.92" type="line"/>
      <point x="559.923" y="1139.92" type="line" smooth="yes"/>
      <point x="675.926" y="1139.92"/>
      <point x="822.067" y="1013.94"/>
      <point x="822.067" y="901.939" type="curve" smooth="yes"/>
      <point x="822.067" y="248.423" type="line"/>
      <point x="1210.78" y="248.218" type="line" smooth="yes"/>
      <point x="1229.78" y="248.208"/>
      <point x="1245.8" y="233.221"/>
      <point x="1245.8" y="214.221" type="curve" smooth="yes"/>
    </contour>
  </outline>
</glyph>
<glyph name="uni1240" format="2">
  <advance width="1160"/>
  <unicode hex="1240"/>
  <outline>
    <contour>
      <point x="1060.01" y="899.397" type="curve" smooth="yes"/>
      <point x="1060.01" y="689.427"/>
      <point x="885.25" y="489.891"/>
      <point x="711.622" y="479.383" type="curve" smooth="yes"/>
      <point x="653.437" y="475.862"/>
      <point x="587.467" y="483.409"/>
      <point x="545.467" y="504.409" type="curve"/>
      <point x="463.068" y="31" type="line" smooth="yes"/>
      <point x="455.063" y="-14.99"/>
      <point x="386.246" y="-2.8835"/>
      <point x="394.131" y="43.1555" type="curve" smooth="yes"/>
      <point x="467.835" y="473.516" type="line"/>
      <point x="427.529" y="456.591"/>
      <point x="373.562" y="446.954"/>
      <point x="321.997" y="447.75" type="curve" smooth="yes"/>
      <point x="193.221" y="449.738"/>
      <point x="50" y="508.721"/>
      <point x="50" y="659.937" type="curve" smooth="yes"/>
      <point x="50" y="874.049"/>
      <point x="182.558" y="1153.25"/>
      <point x="534.98" y="1148.4" type="curve" smooth="yes"/>
      <point x="586.75" y="1147.68" type="line"/>
      <point x="624.267" y="1347.86" type="line" smooth="yes"/>
      <point x="632.869" y="1393.75"/>
      <point x="701.822" y="1381.52"/>
      <point x="693.204" y="1335.7" type="curve" smooth="yes"/>
      <point x="657.66" y="1146.72" type="line"/>
      <point x="668.57" y="1146.57" type="line" smooth="yes"/>
      <point x="833.862" y="1144.32"/>
      <point x="1060.01" y="1183.38"/>
    </contour>
    <contour>
      <point x="990.014" y="899.397" type="curve" smooth="yes"/>
      <point x="990.014" y="1120.4"/>
      <point x="797.113" y="1072.88"/>
      <point x="646.601" y="1084" type="curve"/>
      <point x="557.39" y="578.292" type="line"/>
      <point x="583.675" y="549.51"/>
      <point x="691.845" y="548.315"/>
      <point x="707.388" y="549.255" type="curve" smooth="yes"/>
      <point x="846.916" y="557.695"/>
      <point x="990.014" y="729.406"/>
    </contour>
    <contour>
      <point x="574.954" y="1080.84" type="line"/>
      <point x="543.801" y="1078.95" type="line" smooth="yes"/>
      <point x="173.098" y="1056.51"/>
      <point x="119.937" y="789.328"/>
      <point x="119.937" y="658.416" type="curve" smooth="yes"/>
      <point x="119.937" y="573.36"/>
      <point x="204.785" y="514.57"/>
      <point x="327.638" y="518.369" type="curve" smooth="yes"/>
      <point x="370.535" y="519.695"/>
      <point x="457.246" y="529.296"/>
      <point x="483.334" y="561.399" type="curve"/>
    </contour>
  </outline>
</glyph>
<glyph name="uni1241" format="2">
  <advance width="1160"/>
  <unicode hex="1241"/>
  <outline>
    <contour>
      <point x="1060.01" y="899.397" type="curve" smooth="yes"/>
      <point x="1060.01" y="689.427"/>
      <point x="885.249" y="489.89"/>
      <point x="711.622" y="479.383" type="curve" smooth="yes"/>
      <point x="653.438" y="475.862"/>
      <point x="587.467" y="483.409"/>
      <point x="545.467" y="504.409" type="curve"/>
      <point x="521.212" y="357.007" type="line"/>
      <point x="883.443" y="357" type="line" smooth="yes"/>
      <point x="902.443" y="357"/>
      <point x="918.443" y="342"/>
      <point x="918.443" y="323" type="curve" smooth="yes"/>
      <point x="918.443" y="322" type="line" smooth="yes"/>
      <point x="918.443" y="303"/>
      <point x="902.449" y="287"/>
      <point x="883.443" y="287" type="curve" smooth="yes"/>
      <point x="508.727" y="286.998" type="line"/>
      <point x="463.068" y="31" type="line" smooth="yes"/>
      <point x="454.868" y="-14.9725"/>
      <point x="386.243" y="-2.90125"/>
      <point x="394.131" y="43.1555" type="curve" smooth="yes"/>
      <point x="467.835" y="473.516" type="line"/>
      <point x="427.529" y="456.591"/>
      <point x="373.562" y="446.954"/>
      <point x="321.997" y="447.75" type="curve" smooth="yes"/>
      <point x="193.262" y="449.737"/>
      <point x="50" y="508.722"/>
      <point x="50" y="659.938" type="curve" smooth="yes"/>
      <point x="50" y="874.05"/>
      <point x="182.446" y="1153.25"/>
      <point x="534.98" y="1148.4" type="curve" smooth="yes"/>
      <point x="586.75" y="1147.68" type="line"/>
      <point x="624.267" y="1347.86" type="line" smooth="yes"/>
      <point x="632.872" y="1393.77"/>
      <point x="701.822" y="1381.52"/>
      <point x="693.204" y="1335.7" type="curve" smooth="yes"/>
      <point x="657.66" y="1146.72" type="line"/>
      <point x="668.57" y="1146.57" type="line" smooth="yes"/>
      <point x="833.806" y="1144.32"/>
      <point x="1060.01" y="1183.38"/>
    </contour>
    <contour>
      <point x="990.014" y="899.397" type="curve" smooth="yes"/>
      <point x="990.014" y="1120.4"/>
      <point x="797.113" y="1072.88"/>
      <point x="646.601" y="1084" type="curve"/>
      <point x="557.39" y="578.292" type="line"/>
      <point x="583.675" y="549.51"/>
      <point x="691.845" y="548.315"/>
      <point x="707.388" y="549.255" type="curve" smooth="yes"/>
      <point x="846.893" y="557.693"/>
      <point x="990.014" y="729.407"/>
    </contour>
    <contour>
      <point x="574.954" y="1080.84" type="line"/>
      <point x="543.801" y="1078.95" type="line" smooth="yes"/>
      <point x="173.098" y="1056.51"/>
      <point x="119.937" y="789.328"/>
      <point x="119.937" y="658.416" type="curve" smooth="yes"/>
      <point x="119.937" y="573.36"/>
      <point x="204.775" y="514.571"/>
      <point x="327.638" y="518.369" type="curve" smooth="yes"/>
      <point x="370.545" y="519.695"/>
      <point x="457.246" y="529.296"/>
      <point x="483.334" y="561.399" type="curve"/>
    </contour>
  </outline>
</glyph>
<glyph name="uni1242" format="2">
  <advance width="1160"/>
  <unicode hex="1242"/>
  <outline>
    <contour>
      <point x="1060.01" y="893.104" type="curve" smooth="yes"/>
      <point x="1060.01" y="683.134"/>
      <point x="885.249" y="483.596"/>
      <point x="711.622" y="473.09" type="curve" smooth="yes"/>
      <point x="653.438" y="469.569"/>
      <point x="587.467" y="477.116"/>
      <point x="545.467" y="498.116" type="curve"/>
      <point x="468.927" y="69.9925" type="line"/>
      <point x="853.844" y="70" type="line" smooth="yes"/>
      <point x="872.849" y="70"/>
      <point x="888.844" y="55"/>
      <point x="888.844" y="35" type="curve" smooth="yes"/>
      <point x="888.844" y="16"/>
      <point x="872.876" y="0" name=".hr01"/>
      <point x="853.844" y="0" type="curve" smooth="yes"/>
      <point x="429.91" y="0" type="line"/>
      <point x="408.848" y="-2.8238"/>
      <point x="389.379" y="22.4619"/>
      <point x="393.029" y="43.1554" type="curve" smooth="yes"/>
      <point x="467.835" y="467.222" type="line"/>
      <point x="427.529" y="450.298"/>
      <point x="373.562" y="440.661"/>
      <point x="321.997" y="441.456" type="curve" smooth="yes"/>
      <point x="193.254" y="443.444"/>
      <point x="50" y="502.428"/>
      <point x="50" y="653.644" type="curve" smooth="yes"/>
      <point x="50" y="867.756"/>
      <point x="182.206" y="1146.96"/>
      <point x="534.98" y="1142.1" type="curve" smooth="yes"/>
      <point x="586.75" y="1141.39" type="line"/>
      <point x="623.165" y="1347.86" type="line" smooth="yes"/>
      <point x="631.286" y="1393.9"/>
      <point x="700.201" y="1381.62"/>
      <point x="692.102" y="1335.7" type="curve" smooth="yes"/>
      <point x="657.66" y="1140.42" type="line"/>
      <point x="668.57" y="1140.28" type="line" smooth="yes"/>
      <point x="833.686" y="1138.03"/>
      <point x="1060.01" y="1177.09"/>
    </contour>
    <contour>
      <point x="990.014" y="893.104" type="curve" smooth="yes"/>
      <point x="990.014" y="1114.1"/>
      <point x="797.113" y="1066.59"/>
      <point x="646.601" y="1077.71" type="curve"/>
      <point x="557.39" y="571.998" type="line"/>
      <point x="583.675" y="543.217"/>
      <point x="691.845" y="542.022"/>
      <point x="707.388" y="542.962" type="curve" smooth="yes"/>
      <point x="846.898" y="551.4"/>
      <point x="990.014" y="723.114"/>
    </contour>
    <contour>
      <point x="574.954" y="1074.54" type="line"/>
      <point x="543.801" y="1072.66" type="line" smooth="yes"/>
      <point x="173.098" y="1050.22"/>
      <point x="119.937" y="783.035"/>
      <point x="119.937" y="652.123" type="curve" smooth="yes"/>
      <point x="119.937" y="567.067"/>
      <point x="204.776" y="508.277"/>
      <point x="327.638" y="512.075" type="curve" smooth="yes"/>
      <point x="370.543" y="513.402"/>
      <point x="457.246" y="523.003"/>
      <point x="483.334" y="555.106" type="curve"/>
    </contour>
  </outline>
</glyph>
